<svg width="561" height="477" viewBox="0 0 561 477" fill="none" xmlns="http://www.w3.org/2000/svg">
<path d="M28.5708 124.753C-3.06543 71.0281 -16.991 36.3671 36.1288 -34.7176C261.857 -74.9261 729.861 -154.568 796.054 -151.468C878.795 -147.593 909.962 93.8231 904.692 126.585C899.423 159.348 849.977 244.019 827.205 272.805C732.902 258.821 674.485 256.837 622.132 320.183C582.463 368.182 583.273 406.686 588.595 476.031C553.805 454.645 460.283 390.651 459.5 378C458.874 367.879 121.025 318.861 144.082 272.366C167.139 225.87 155.558 203.951 146.689 191.03C117.54 148.565 54.7053 169.135 28.5708 124.753Z" fill="#F6E3FF"/>
<g clip-path="url(#clip0)">
<path d="M149.199 265.66C149.199 265.66 153.259 231.2 158.309 218.3C163.359 205.4 174.569 194.3 174.569 194.3C175.351 193.825 176.249 193.574 177.164 193.574C178.079 193.574 178.977 193.825 179.759 194.3C182.419 195.98 173.519 232.78 173.519 232.78L154.379 266.25L149.199 265.66Z" fill="#D69A58"/>
<path d="M164.731 207.09C164.731 207.09 171.211 211.57 172.611 214.66C172.611 214.66 165.461 210.31 161.531 211.57L164.731 207.09Z" fill="#EFCC9A"/>
<path d="M159 216.62C162.92 217.067 166.51 219.03 169 222.09C169 222.09 160.27 221.09 157.07 222.09L159 216.62Z" fill="#EFCC9A"/>
<path d="M166.48 254.4C166.48 254.4 170.55 219.94 175.6 207C180.65 194.06 191.86 183 191.86 183C192.64 182.519 193.539 182.264 194.455 182.264C195.372 182.264 196.271 182.519 197.05 183C199.71 184.68 190.81 221.48 190.81 221.48L171.67 255L166.48 254.4Z" fill="#D8A364"/>
<path d="M181.999 195.82C181.999 195.82 188.489 200.31 189.889 203.39C189.889 203.39 182.729 199.05 178.809 200.31L181.999 195.82Z" fill="#EFCC9A"/>
<path d="M176.301 205.36C180.221 205.807 183.81 207.77 186.301 210.83C186.301 210.83 177.571 209.83 174.371 210.83L176.301 205.36Z" fill="#EFCC9A"/>
<path d="M148.541 213.68C150.192 213.68 151.531 212.341 151.531 210.69C151.531 209.039 150.192 207.7 148.541 207.7C146.889 207.7 145.551 209.039 145.551 210.69C145.551 212.341 146.889 213.68 148.541 213.68Z" fill="#95C148"/>
<path d="M149.121 219.5C151.28 219.5 153.031 217.749 153.031 215.59C153.031 213.431 151.28 211.68 149.121 211.68C146.962 211.68 145.211 213.431 145.211 215.59C145.211 217.749 146.962 219.5 149.121 219.5Z" fill="#9FCE5B"/>
<path d="M153.121 212.78C155.28 212.78 157.031 211.029 157.031 208.87C157.031 206.711 155.28 204.96 153.121 204.96C150.962 204.96 149.211 206.711 149.211 208.87C149.211 211.029 150.962 212.78 153.121 212.78Z" fill="#9FCE5B"/>
<path d="M159.84 216.78C161.999 216.78 163.75 215.029 163.75 212.87C163.75 210.711 161.999 208.96 159.84 208.96C157.68 208.96 155.93 210.711 155.93 212.87C155.93 215.029 157.68 216.78 159.84 216.78Z" fill="#9FCE5B"/>
<path d="M154.66 218.63C156.819 218.63 158.57 216.879 158.57 214.72C158.57 212.561 156.819 210.81 154.66 210.81C152.501 210.81 150.75 212.561 150.75 214.72C150.75 216.879 152.501 218.63 154.66 218.63Z" fill="#95C148"/>
<path d="M155.44 214.68C157.102 214.68 158.45 213.332 158.45 211.67C158.45 210.008 157.102 208.66 155.44 208.66C153.777 208.66 152.43 210.008 152.43 211.67C152.43 213.332 153.777 214.68 155.44 214.68Z" fill="#9FCE5B"/>
<path d="M181.778 214.31H122.238V289.94H181.778V214.31Z" fill="#E2BA86"/>
<path d="M194.548 214.31H135.008V289.94H194.548V214.31Z" fill="#EFCC9A"/>
<path d="M281.998 291L277.998 421C277.992 421.323 277.908 421.641 277.753 421.925C277.598 422.208 277.377 422.451 277.108 422.63L265.478 430.38C265.118 430.617 264.844 430.964 264.697 431.369C264.551 431.775 264.539 432.217 264.664 432.629C264.789 433.042 265.043 433.403 265.39 433.659C265.737 433.915 266.157 434.052 266.588 434.05H294.088C294.6 434.051 295.092 433.855 295.464 433.504C295.836 433.152 296.06 432.671 296.088 432.16L309.998 291H281.998Z" fill="#F698F9"/>
<path d="M338.551 291L342.551 421C342.556 421.323 342.64 421.641 342.795 421.925C342.95 422.208 343.172 422.451 343.441 422.63L355.071 430.38C355.407 430.622 355.66 430.963 355.794 431.355C355.928 431.748 355.937 432.172 355.819 432.569C355.702 432.967 355.464 433.318 355.138 433.574C354.812 433.831 354.415 433.979 354.001 434H326.441C325.929 434.001 325.436 433.805 325.064 433.454C324.692 433.102 324.469 432.621 324.441 432.11L310.551 291H338.551Z" fill="#F698F9"/>
<path d="M338.602 298H281.602L275.602 225C277.602 216 281.032 214.15 286.602 213L308.132 209.51C309.76 209.165 311.443 209.165 313.072 209.51L329.122 213C331.807 213.577 334.212 215.057 335.938 217.193C337.663 219.33 338.603 221.994 338.602 224.74V298Z" fill="#F698F9"/>
<path d="M292.798 178.49C292.798 178.49 277.598 207 293.598 208C310.598 209.06 301.008 194.89 301.008 194.89L298.598 178L292.798 178.49Z" fill="black"/>
<path d="M312.69 197.11L313.9 211.18C314.004 212.178 313.798 213.185 313.309 214.061C312.821 214.938 312.074 215.643 311.17 216.08C308.976 216.983 306.514 216.983 304.32 216.08C303.373 215.724 302.556 215.089 301.978 214.258C301.399 213.428 301.086 212.442 301.08 211.43L301 197.11H312.69Z" fill="#F698F9"/>
<path d="M301 204.88L301.05 207.54C301.05 207.54 306.05 207.67 306.83 204.34C306.84 204.34 301.41 203.75 301 204.88Z" fill="#E475EA"/>
<path d="M303.54 194.92C309.864 194.92 314.99 189.794 314.99 183.47C314.99 177.146 309.864 172.02 303.54 172.02C297.216 172.02 292.09 177.146 292.09 183.47C292.09 189.794 297.216 194.92 303.54 194.92Z" fill="#F698F9"/>
<path d="M314.999 183.47C314.999 183.47 316.999 205 302.869 205C288.739 205 292.089 183.45 292.089 183.45L314.999 183.47Z" fill="#F698F9"/>
<path d="M289.602 181.67C289.602 181.67 298.142 182.73 301.342 181.67C304.542 180.61 305.602 181.67 305.602 181.67L306.672 179.53C306.672 179.53 309.872 180.6 308.802 185.93C308.802 185.93 312.002 181.67 313.072 187C314.142 192.33 313.072 192.33 313.072 192.33C313.072 192.33 304.602 208 316.602 208C330.602 208 323.732 192.46 321.602 185C319.472 177.54 314.142 171 304.542 171C294.942 171 290.672 173.13 289.602 181.67Z" fill="black"/>
<path d="M312.102 193.02C314.587 193.02 316.602 191.005 316.602 188.52C316.602 186.035 314.587 184.02 312.102 184.02C309.616 184.02 307.602 186.035 307.602 188.52C307.602 191.005 309.616 193.02 312.102 193.02Z" fill="#F698F9"/>
<path d="M313.26 189.77C313.196 189.76 313.137 189.725 313.098 189.673C313.059 189.621 313.042 189.555 313.05 189.49C313.066 189.431 313.066 189.369 313.05 189.31C312.774 189.404 312.517 189.547 312.29 189.73C312.243 189.771 312.183 189.793 312.12 189.793C312.058 189.793 311.998 189.771 311.95 189.73C311.91 189.683 311.887 189.622 311.887 189.56C311.887 189.498 311.91 189.437 311.95 189.39C312.066 189.286 312.158 189.159 312.222 189.017C312.285 188.874 312.318 188.721 312.318 188.565C312.318 188.409 312.285 188.256 312.222 188.113C312.158 187.971 312.066 187.844 311.95 187.74C311.905 187.693 311.879 187.63 311.879 187.565C311.879 187.5 311.905 187.437 311.95 187.39C311.973 187.366 312 187.347 312.03 187.334C312.06 187.321 312.093 187.314 312.125 187.314C312.158 187.314 312.191 187.321 312.221 187.334C312.251 187.347 312.278 187.366 312.3 187.39C312.499 187.586 312.647 187.829 312.731 188.095C312.815 188.362 312.832 188.645 312.78 188.92C312.864 188.883 312.954 188.864 313.045 188.864C313.137 188.864 313.227 188.883 313.31 188.92C313.44 189 313.59 189.18 313.53 189.59C313.512 189.646 313.476 189.695 313.427 189.727C313.378 189.76 313.319 189.775 313.26 189.77Z" fill="black"/>
<path d="M293.852 189.02C294.266 189.02 294.602 188.684 294.602 188.27C294.602 187.856 294.266 187.52 293.852 187.52C293.437 187.52 293.102 187.856 293.102 188.27C293.102 188.684 293.437 189.02 293.852 189.02Z" fill="black"/>
<path d="M302.852 189.02C303.266 189.02 303.602 188.684 303.602 188.27C303.602 187.856 303.266 187.52 302.852 187.52C302.437 187.52 302.102 187.856 302.102 188.27C302.102 188.684 302.437 189.02 302.852 189.02Z" fill="black"/>
<path d="M298.408 196C298.142 196 297.883 195.916 297.668 195.76C297.482 195.624 297.337 195.438 297.251 195.225C297.164 195.011 297.139 194.777 297.178 194.55L297.848 190.49C297.86 190.425 297.897 190.366 297.951 190.327C298.005 190.288 298.072 190.271 298.138 190.28C298.171 190.285 298.203 190.296 298.231 190.314C298.26 190.331 298.285 190.354 298.304 190.381C298.324 190.408 298.338 190.438 298.345 190.471C298.353 190.503 298.354 190.537 298.348 190.57L297.668 194.63C297.643 194.767 297.657 194.908 297.708 195.037C297.759 195.166 297.846 195.278 297.958 195.36C298.071 195.443 298.205 195.492 298.344 195.503C298.484 195.513 298.624 195.485 298.748 195.42L298.988 195.3C299.048 195.271 299.117 195.267 299.18 195.287C299.243 195.308 299.296 195.352 299.328 195.41C299.343 195.44 299.352 195.473 299.354 195.507C299.356 195.54 299.352 195.574 299.34 195.606C299.329 195.637 299.312 195.666 299.289 195.691C299.266 195.716 299.239 195.736 299.208 195.75L298.968 195.87C298.794 195.957 298.602 196.001 298.408 196Z" fill="black"/>
<path d="M296.099 197.52L303.689 197.11C303.462 198.135 302.872 199.044 302.03 199.67C301.187 200.296 300.147 200.598 299.099 200.52C295.099 200.52 296.099 197.52 296.099 197.52Z" fill="white"/>
<path d="M295.702 225.34L279.352 285.28C279.049 286.384 278.481 287.397 277.697 288.23C276.912 289.064 275.935 289.692 274.852 290.06C272.838 290.736 270.726 291.074 268.602 291.06C261.602 291.06 261.602 286.06 261.602 286.06L276.222 222.06C276.222 222.06 278.602 215.06 285.602 214.06C289.472 213.5 292.422 216 294.292 218.35C295.051 219.327 295.574 220.466 295.818 221.679C296.063 222.892 296.023 224.145 295.702 225.34Z" fill="#F698F9"/>
<path d="M271.599 271L234.599 205.53C234.599 205.53 232.829 202.96 232.379 205.25C232.189 206.25 234.839 214.13 234.839 214.13C234.839 214.13 231.609 214 231.779 216.89C231.487 216.847 231.19 216.862 230.904 216.937C230.619 217.011 230.351 217.142 230.118 217.323C229.884 217.503 229.69 217.728 229.545 217.986C229.401 218.243 229.311 218.527 229.279 218.82C229.279 218.82 225.669 218.82 227.049 222.14C228.429 225.46 262.199 288 262.199 288L271.599 271Z" fill="#F698F9"/>
<path d="M238.64 222C238.507 222.003 238.375 221.98 238.252 221.932C238.128 221.884 238.015 221.812 237.92 221.72C237.833 221.632 237.766 221.527 237.723 221.412C237.68 221.296 237.662 221.173 237.67 221.05C237.67 219.7 240.13 217.47 240.4 217.22C240.448 217.174 240.513 217.148 240.58 217.148C240.647 217.148 240.711 217.174 240.76 217.22C240.806 217.267 240.831 217.33 240.831 217.395C240.831 217.46 240.806 217.523 240.76 217.57C240.05 218.21 238.21 220.08 238.19 221.04C238.186 221.096 238.194 221.153 238.212 221.207C238.231 221.26 238.261 221.309 238.3 221.35C238.93 221.97 241.02 220.27 241.94 219.35C241.963 219.326 241.991 219.307 242.022 219.293C242.053 219.28 242.086 219.273 242.12 219.273C242.153 219.273 242.187 219.28 242.218 219.293C242.249 219.307 242.277 219.326 242.3 219.35C242.324 219.372 242.343 219.4 242.356 219.43C242.369 219.46 242.376 219.492 242.376 219.525C242.376 219.558 242.369 219.59 242.356 219.62C242.343 219.65 242.324 219.678 242.3 219.7C241.84 220.13 239.92 222 238.64 222Z" fill="black"/>
<path d="M236.528 221.9C234.528 221.9 232.168 218.12 231.888 217.65C231.854 217.593 231.843 217.524 231.858 217.459C231.873 217.394 231.912 217.337 231.968 217.3C232.027 217.267 232.096 217.257 232.161 217.274C232.227 217.291 232.283 217.333 232.318 217.39C233.118 218.72 235.528 222.03 236.988 221.29C237.083 221.243 237.166 221.175 237.232 221.092C237.297 221.009 237.344 220.913 237.368 220.81C237.748 219.37 235.708 215.88 234.888 214.65C234.854 214.595 234.842 214.529 234.855 214.466C234.868 214.402 234.905 214.347 234.958 214.31C234.986 214.291 235.017 214.278 235.049 214.272C235.082 214.265 235.115 214.265 235.148 214.272C235.18 214.278 235.211 214.291 235.239 214.31C235.267 214.328 235.29 214.352 235.308 214.38C235.428 214.57 238.358 218.99 237.848 220.93C237.81 221.105 237.732 221.268 237.621 221.409C237.511 221.549 237.369 221.662 237.208 221.74C236.997 221.846 236.764 221.901 236.528 221.9Z" fill="black"/>
<path d="M233.379 225.1C233.293 225.11 233.206 225.11 233.119 225.1C231.179 224.68 229.189 219.52 228.969 218.93C228.946 218.869 228.948 218.801 228.974 218.741C229 218.682 229.049 218.634 229.109 218.61C229.173 218.587 229.243 218.59 229.305 218.618C229.366 218.646 229.415 218.697 229.439 218.76C230.009 220.28 231.809 224.3 233.229 224.61C233.355 224.639 233.487 224.631 233.609 224.589C233.731 224.546 233.838 224.471 233.919 224.37C235.429 222.86 232.619 218.69 231.409 217.2C231.363 217.153 231.338 217.09 231.338 217.025C231.338 216.96 231.363 216.897 231.409 216.85C231.432 216.826 231.459 216.807 231.489 216.794C231.519 216.781 231.551 216.774 231.584 216.774C231.617 216.774 231.649 216.781 231.68 216.794C231.71 216.807 231.737 216.826 231.759 216.85C231.949 217.08 236.379 222.55 234.249 224.68C234.026 224.929 233.713 225.08 233.379 225.1Z" fill="black"/>
<path d="M230.331 227.11H230.271C229.639 227.006 229.067 226.676 228.661 226.18C228.616 226.133 228.59 226.07 228.59 226.005C228.59 225.94 228.616 225.877 228.661 225.83C228.684 225.806 228.711 225.787 228.741 225.774C228.771 225.761 228.804 225.754 228.836 225.754C228.869 225.754 228.902 225.761 228.932 225.774C228.962 225.787 228.989 225.806 229.011 225.83C229.332 226.213 229.772 226.477 230.261 226.58C230.38 226.587 230.499 226.567 230.608 226.52C230.718 226.473 230.815 226.401 230.891 226.31C231.458 225.653 231.757 224.807 231.731 223.94C231.729 223.908 231.732 223.875 231.743 223.844C231.753 223.814 231.769 223.785 231.791 223.761C231.812 223.737 231.838 223.717 231.868 223.703C231.897 223.689 231.929 223.681 231.961 223.68C231.994 223.676 232.028 223.679 232.06 223.688C232.092 223.698 232.122 223.714 232.147 223.735C232.172 223.757 232.193 223.784 232.208 223.814C232.222 223.844 232.23 223.877 232.231 223.91C232.268 224.922 231.909 225.908 231.231 226.66C231.002 226.923 230.679 227.085 230.331 227.11Z" fill="black"/>
<path d="M278.602 285.27H278.532C278.5 285.261 278.471 285.246 278.445 285.225C278.419 285.204 278.398 285.179 278.382 285.15C278.367 285.121 278.357 285.09 278.353 285.057C278.349 285.025 278.352 284.992 278.362 284.96L288.862 247.46C288.882 247.397 288.925 247.344 288.982 247.311C289.04 247.278 289.107 247.267 289.172 247.28C289.235 247.299 289.289 247.342 289.321 247.4C289.353 247.458 289.36 247.526 289.342 247.59L278.842 285.09C278.825 285.141 278.793 285.186 278.75 285.218C278.707 285.25 278.655 285.268 278.602 285.27Z" fill="black"/>
<path d="M269.1 270.77H269.02C268.958 270.749 268.907 270.705 268.877 270.648C268.847 270.59 268.841 270.522 268.86 270.46C269.81 267.61 266.93 263.27 266.86 263.23C266.841 263.203 266.828 263.172 266.821 263.139C266.815 263.106 266.815 263.073 266.821 263.04C266.828 263.008 266.841 262.977 266.859 262.949C266.878 262.922 266.902 262.898 266.93 262.88C266.956 262.862 266.987 262.849 267.018 262.842C267.05 262.836 267.083 262.836 267.115 262.842C267.146 262.849 267.177 262.862 267.203 262.88C267.23 262.899 267.253 262.922 267.27 262.95C267.4 263.13 270.33 267.53 269.27 270.62C269.255 270.656 269.231 270.689 269.202 270.714C269.173 270.74 269.138 270.759 269.1 270.77Z" fill="black"/>
<path d="M285.13 262.31H285.04L267.04 255.77C266.978 255.747 266.927 255.701 266.899 255.641C266.871 255.581 266.867 255.512 266.89 255.45C266.912 255.388 266.959 255.337 267.019 255.309C267.079 255.281 267.148 255.277 267.21 255.3L285.21 261.84C285.269 261.857 285.319 261.895 285.352 261.947C285.385 261.998 285.397 262.06 285.387 262.121C285.378 262.181 285.346 262.236 285.298 262.274C285.251 262.313 285.191 262.333 285.13 262.33V262.31Z" fill="black"/>
<path d="M281.602 272H271.602C269.425 269.824 267.419 267.484 265.602 265C263.602 262 262.602 268 262.602 268L253.602 271L262.602 288C262.602 288 263.372 291 267.602 291C270.298 290.976 272.982 290.64 275.602 290L277.602 288L281.602 272Z" fill="#EE87F4"/>
<path d="M281.632 291.37L328.052 296.23C330.091 296.445 332.135 295.868 333.761 294.62C335.387 293.371 336.472 291.545 336.792 289.52L338.602 278V223L331.602 219L317.772 234.53L314.602 272H288.602L281.602 288.67L281.632 291.37Z" fill="#EE87F4"/>
<path d="M338.172 222.61L334.802 284.61C334.74 285.754 334.399 286.866 333.808 287.848C333.217 288.829 332.394 289.651 331.412 290.24C329.577 291.305 327.581 292.062 325.502 292.48C318.652 293.95 317.602 289.07 317.602 289.07L318.432 223.42C318.432 223.42 319.292 216.08 325.922 213.63C329.582 212.28 332.992 214.1 335.312 216C336.279 216.796 337.042 217.81 337.54 218.96C338.037 220.109 338.254 221.36 338.172 222.61Z" fill="#F698F9"/>
<path d="M320.84 275.72L255.74 271.63C255.74 271.63 252.63 271.73 254.31 273.35C255.03 274.04 263.12 276.06 263.12 276.06C263.12 276.06 261.27 278.71 263.8 280.13C263.605 280.352 263.456 280.611 263.364 280.892C263.272 281.174 263.238 281.47 263.264 281.765C263.29 282.06 263.376 282.346 263.516 282.607C263.657 282.867 263.849 283.096 264.08 283.28C264.08 283.28 262.08 286.28 265.67 286.94C269.26 287.6 323.6 292.82 323.6 292.82L320.84 275.72Z" fill="#F698F9"/>
<path d="M335.56 261L316.56 258.4C316.495 258.39 316.437 258.355 316.398 258.303C316.358 258.251 316.341 258.185 316.35 258.12C316.36 258.055 316.394 257.995 316.446 257.955C316.498 257.914 316.564 257.894 316.63 257.9L335.63 260.5C335.696 260.5 335.76 260.526 335.807 260.573C335.853 260.62 335.88 260.684 335.88 260.75C335.88 260.816 335.853 260.88 335.807 260.927C335.76 260.974 335.696 261 335.63 261H335.56Z" fill="black"/>
<path d="M270.55 287.06C270.55 287.06 253.55 288.06 252.55 287.06C252.4 286.887 252.301 286.676 252.263 286.451C252.225 286.225 252.25 285.994 252.335 285.781C252.419 285.569 252.56 285.384 252.743 285.246C252.925 285.108 253.142 285.023 253.37 285L270.6 282L270.55 287.06Z" fill="#F698F9"/>
<path d="M267.55 283.06C267.55 283.06 250.55 284.06 249.55 283.06C249.4 282.887 249.301 282.676 249.263 282.451C249.225 282.225 249.25 281.994 249.335 281.781C249.419 281.569 249.56 281.384 249.743 281.246C249.925 281.108 250.142 281.023 250.37 281L268.6 279L267.55 283.06Z" fill="#F698F9"/>
<path d="M269.321 279.88C269.321 279.88 252.321 279.11 251.471 278.01C251.328 277.825 251.24 277.604 251.217 277.371C251.194 277.139 251.237 276.904 251.342 276.695C251.446 276.486 251.608 276.311 251.808 276.19C252.008 276.068 252.238 276.006 252.471 276.01H270.791L269.321 279.88Z" fill="#F698F9"/>
<path d="M266.191 266.79C266.541 267.79 267.951 271.49 270.331 272.43L266.101 273.52C266.101 273.52 262.311 268.97 263.971 266.52C264.074 266.367 264.211 266.238 264.37 266.144C264.529 266.051 264.707 265.993 264.891 265.977C265.075 265.961 265.26 265.986 265.433 266.05C265.606 266.115 265.763 266.217 265.891 266.35C266.026 266.47 266.129 266.621 266.191 266.79Z" fill="#F698F9"/>
<path d="M320.1 279.77C320.033 279.77 319.97 279.744 319.923 279.697C319.876 279.65 319.85 279.586 319.85 279.52C319.887 278.75 319.702 277.985 319.315 277.318C318.928 276.651 318.357 276.11 317.67 275.76C317.625 275.741 317.587 275.708 317.56 275.667C317.533 275.627 317.519 275.579 317.52 275.53L317.85 237.53C317.852 237.465 317.88 237.404 317.926 237.36C317.973 237.315 318.035 237.29 318.1 237.29C318.133 237.287 318.167 237.291 318.199 237.303C318.23 237.314 318.259 237.333 318.283 237.356C318.307 237.38 318.325 237.409 318.337 237.441C318.348 237.473 318.353 237.506 318.35 237.54L318 275.38C318.731 275.789 319.335 276.392 319.746 277.123C320.157 277.853 320.359 278.682 320.33 279.52C320.33 279.583 320.306 279.644 320.264 279.69C320.221 279.736 320.162 279.765 320.1 279.77Z" fill="black"/>
<path d="M339.508 314.46C339.418 314.46 329.898 312.59 329.898 300.52C329.898 300.454 329.925 300.39 329.972 300.343C330.019 300.296 330.082 300.27 330.148 300.27C330.215 300.27 330.278 300.296 330.325 300.343C330.372 300.39 330.398 300.454 330.398 300.52C330.398 305.33 331.988 309.19 334.988 311.66C336.329 312.771 337.906 313.561 339.598 313.97C339.655 313.981 339.706 314.012 339.742 314.057C339.779 314.101 339.799 314.157 339.799 314.215C339.799 314.273 339.779 314.329 339.742 314.373C339.706 314.418 339.655 314.449 339.598 314.46H339.508Z" fill="black"/>
<path d="M281.602 315.56C281.537 315.56 281.475 315.535 281.428 315.49C281.382 315.446 281.354 315.385 281.352 315.32C281.352 315.253 281.378 315.188 281.424 315.14C281.471 315.091 281.534 315.063 281.602 315.06C282.557 315.066 283.504 314.87 284.379 314.486C285.254 314.102 286.039 313.537 286.682 312.83C290.372 308.83 289.862 300.62 289.852 300.53C289.85 300.497 289.855 300.464 289.867 300.434C289.878 300.403 289.895 300.374 289.918 300.35C289.94 300.326 289.967 300.307 289.997 300.293C290.026 300.279 290.059 300.271 290.092 300.27C290.156 300.267 290.219 300.29 290.268 300.333C290.316 300.375 290.346 300.435 290.352 300.5C290.352 300.84 290.882 308.97 287.052 313.16C286.366 313.922 285.527 314.53 284.589 314.943C283.651 315.357 282.636 315.567 281.612 315.56H281.602Z" fill="black"/>
<path d="M292.101 247.77C291.352 247.797 290.605 247.659 289.915 247.367C289.224 247.075 288.605 246.636 288.101 246.08C285.271 242.98 285.801 236.76 285.821 236.49C285.824 236.458 285.833 236.426 285.848 236.397C285.863 236.368 285.884 236.343 285.909 236.322C285.934 236.301 285.964 236.286 285.995 236.277C286.026 236.268 286.059 236.266 286.091 236.27C286.124 236.273 286.156 236.282 286.186 236.296C286.215 236.311 286.241 236.332 286.262 236.357C286.284 236.382 286.3 236.411 286.31 236.443C286.32 236.474 286.324 236.507 286.321 236.54C286.321 236.6 285.791 242.81 288.471 245.74C288.925 246.24 289.482 246.636 290.103 246.9C290.725 247.164 291.396 247.29 292.071 247.27C292.138 247.27 292.201 247.296 292.248 247.343C292.295 247.39 292.321 247.454 292.321 247.52C292.322 247.581 292.3 247.641 292.259 247.687C292.218 247.733 292.162 247.763 292.101 247.77Z" fill="black"/>
<path d="M338.24 293.61H281.75C281.684 293.61 281.62 293.584 281.573 293.537C281.526 293.49 281.5 293.426 281.5 293.36C281.5 293.294 281.526 293.23 281.573 293.183C281.62 293.136 281.684 293.11 281.75 293.11H338.24C338.306 293.11 338.37 293.136 338.417 293.183C338.464 293.23 338.49 293.294 338.49 293.36C338.49 293.426 338.464 293.49 338.417 293.537C338.37 293.584 338.306 293.61 338.24 293.61Z" fill="black"/>
<path d="M338.24 297.61H281.75C281.684 297.61 281.62 297.584 281.573 297.537C281.526 297.49 281.5 297.426 281.5 297.36C281.5 297.294 281.526 297.23 281.573 297.183C281.62 297.136 281.684 297.11 281.75 297.11H338.24C338.306 297.11 338.37 297.136 338.417 297.183C338.464 297.23 338.49 297.294 338.49 297.36C338.49 297.426 338.464 297.49 338.417 297.537C338.37 297.584 338.306 297.61 338.24 297.61Z" fill="black"/>
<path d="M291.17 289.66H111V299.74H291.17V289.66Z" fill="#F9D3C5"/>
<path d="M354.26 289.66H174.09V299.74H354.26V289.66Z" fill="#FBE0D5"/>
<path d="M111 435H110.89C110.627 434.97 110.388 434.837 110.223 434.631C110.058 434.425 109.981 434.162 110.01 433.9L124.71 299.63C124.723 299.498 124.763 299.371 124.826 299.255C124.89 299.138 124.975 299.036 125.079 298.953C125.182 298.87 125.301 298.809 125.428 298.772C125.555 298.736 125.688 298.725 125.82 298.74C126.082 298.77 126.321 298.903 126.486 299.109C126.651 299.315 126.728 299.578 126.7 299.84L112 434.12C111.97 434.364 111.852 434.588 111.667 434.751C111.483 434.913 111.245 435.002 111 435Z" fill="black"/>
<path d="M290.789 435H290.679C290.417 434.97 290.177 434.837 290.012 434.631C289.847 434.425 289.771 434.162 289.799 433.9L304.499 299.63C304.512 299.498 304.552 299.371 304.615 299.255C304.679 299.138 304.765 299.036 304.868 298.953C304.971 298.87 305.09 298.809 305.217 298.772C305.344 298.736 305.477 298.725 305.609 298.74C305.871 298.77 306.11 298.903 306.275 299.109C306.44 299.315 306.517 299.578 306.489 299.84L291.789 434.11C291.761 434.356 291.644 434.583 291.46 434.747C291.275 434.911 291.036 435.002 290.789 435Z" fill="black"/>
<path d="M346.909 435C346.66 435.001 346.42 434.91 346.235 434.743C346.05 434.577 345.933 434.348 345.909 434.1L331.209 299.83C331.195 299.699 331.207 299.566 331.245 299.439C331.282 299.313 331.344 299.195 331.427 299.092C331.51 298.99 331.613 298.904 331.729 298.841C331.845 298.778 331.972 298.739 332.104 298.725C332.235 298.711 332.368 298.723 332.494 298.761C332.621 298.798 332.739 298.861 332.841 298.944C332.944 299.027 333.029 299.129 333.092 299.245C333.155 299.361 333.195 299.489 333.209 299.62L347.899 433.91C347.924 434.174 347.843 434.437 347.674 434.641C347.505 434.846 347.262 434.975 346.999 435H346.909Z" fill="black"/>
<path d="M167.12 435C166.871 435.001 166.63 434.91 166.446 434.743C166.261 434.577 166.144 434.348 166.12 434.1L151.42 299.85C151.406 299.719 151.418 299.586 151.456 299.459C151.493 299.333 151.555 299.215 151.638 299.112C151.721 299.01 151.824 298.924 151.94 298.861C152.056 298.798 152.183 298.759 152.315 298.745C152.446 298.731 152.579 298.743 152.705 298.781C152.832 298.818 152.95 298.881 153.052 298.964C153.155 299.047 153.24 299.149 153.303 299.265C153.366 299.381 153.406 299.509 153.42 299.64L168.11 433.91C168.123 434.041 168.111 434.173 168.074 434.299C168.037 434.425 167.975 434.542 167.893 434.644C167.81 434.747 167.708 434.831 167.592 434.894C167.477 434.957 167.35 434.996 167.22 435.01L167.12 435Z" fill="black"/>
<path d="M211.919 251.67H199.379V289.77H211.919V251.67Z" fill="#F4C795"/>
<path d="M211.919 261.84H199.379V278.32H211.919V261.84Z" fill="#FFE7D0"/>
<path d="M199.378 251.67H182.898V289.77H199.378V251.67Z" fill="#FFD6A4"/>
<path d="M199.378 261.84H182.898V278.32H199.378V261.84Z" fill="#FBF0E1"/>
<path d="M211.869 251.67H199.379L206.329 244.73H206.349L211.869 251.67Z" fill="#F2B197"/>
<path d="M199.378 251.67H182.898L189.848 244.73H206.328L199.378 251.67Z" fill="#FFBDA9"/>
<path d="M193.108 240.78H202.998C203.886 240.78 204.738 241.133 205.367 241.761C205.995 242.389 206.348 243.242 206.348 244.13V244.73H189.758V244.13C189.758 243.242 190.111 242.389 190.739 241.761C191.367 241.133 192.219 240.78 193.108 240.78Z" fill="#FFCAA6"/>
<path d="M194.331 250.23C195.59 250.23 196.611 249.209 196.611 247.95C196.611 246.691 195.59 245.67 194.331 245.67C193.072 245.67 192.051 246.691 192.051 247.95C192.051 249.209 193.072 250.23 194.331 250.23Z" fill="#F2DBB5"/>
<path d="M193.85 249.56C195.11 249.56 196.13 248.539 196.13 247.28C196.13 246.021 195.11 245 193.85 245C192.591 245 191.57 246.021 191.57 247.28C191.57 248.539 192.591 249.56 193.85 249.56Z" fill="white"/>
<path d="M288.651 257.22C287.659 257.819 286.509 258.105 285.351 258.04C280.227 257.907 275.185 259.345 270.901 262.16C262.961 267.33 263.031 271.08 263.031 271.08L267.851 262.08C267.851 262.08 274.721 253.18 284.481 254.49C290.331 255.25 289.921 256.41 288.651 257.22Z" fill="#70A0E5"/>
<path d="M209.889 262.16H270.889C271.042 262.156 271.194 262.187 271.333 262.251C271.473 262.315 271.595 262.41 271.692 262.529C271.789 262.648 271.857 262.787 271.891 262.936C271.925 263.086 271.924 263.241 271.889 263.39C270.639 268.75 264.179 289.78 239.819 289.78C215.459 289.78 209.889 268.61 208.909 263.33C208.884 263.187 208.891 263.04 208.929 262.9C208.967 262.76 209.035 262.629 209.128 262.518C209.221 262.407 209.338 262.317 209.469 262.255C209.601 262.193 209.744 262.161 209.889 262.16Z" fill="#70CFE8"/>
<path d="M359.121 359.27C359.006 359.273 358.891 359.256 358.781 359.22C358.534 359.153 358.318 359.001 358.172 358.791C358.025 358.58 357.958 358.325 357.981 358.07C358.391 352.07 359.981 341.52 365.791 338.52C367.991 337.39 369.331 337.2 370.001 337.92C371.311 339.34 368.741 343.69 368.211 344.54L360.091 358.7C359.995 358.873 359.854 359.017 359.684 359.117C359.513 359.217 359.319 359.27 359.121 359.27ZM368.881 338.27C367.906 338.378 366.968 338.699 366.131 339.21C360.421 342.15 359.051 353.42 358.731 358.14C358.723 358.226 358.746 358.313 358.795 358.384C358.845 358.455 358.917 358.507 359.001 358.53C359.084 358.559 359.174 358.556 359.255 358.523C359.336 358.49 359.402 358.428 359.441 358.35L367.571 344.18C368.761 342.24 370.131 339.18 369.451 338.45C369.376 338.378 369.286 338.323 369.188 338.288C369.089 338.254 368.985 338.241 368.881 338.25V338.27Z" fill="#71D816"/>
<path d="M356.439 407.9C356.35 407.901 356.264 407.871 356.196 407.814C356.128 407.757 356.083 407.677 356.069 407.59C355.999 407.19 349.759 367.8 365.799 342.74C365.859 342.672 365.942 342.628 366.032 342.615C366.123 342.603 366.214 342.624 366.291 342.674C366.367 342.723 366.423 342.799 366.448 342.886C366.474 342.974 366.467 343.067 366.429 343.15C350.539 367.96 356.739 407.07 356.809 407.46C356.824 407.559 356.8 407.66 356.742 407.742C356.684 407.824 356.597 407.881 356.499 407.9H356.439Z" fill="#71D816"/>
<path d="M352.539 353.75H352.409C352.129 353.726 351.866 353.605 351.665 353.408C351.464 353.211 351.338 352.95 351.309 352.67C350.449 345.86 349.879 333.73 355.749 329.1C357.919 327.38 359.399 326.86 360.279 327.5C362.019 328.77 360.109 334.18 359.709 335.25L353.709 352.91C353.628 353.156 353.472 353.37 353.261 353.521C353.051 353.672 352.798 353.752 352.539 353.75ZM359.399 328C358.879 328 357.939 328.34 356.209 329.71C350.429 334.27 351.379 347.24 352.049 352.6C352.061 352.711 352.111 352.814 352.192 352.891C352.273 352.968 352.378 353.014 352.489 353.02C352.6 353.039 352.714 353.015 352.808 352.954C352.903 352.893 352.971 352.799 352.999 352.69L358.999 335C359.919 332.55 360.779 328.8 359.829 328.1C359.7 328.023 359.549 327.988 359.399 328Z" fill="#71D816"/>
<path d="M360.388 408.84C360.311 408.84 360.236 408.816 360.173 408.771C360.11 408.726 360.063 408.663 360.038 408.59C359.878 408.17 344.228 365.4 356.698 333.79C356.738 333.699 356.811 333.627 356.902 333.588C356.993 333.549 357.095 333.546 357.188 333.58C357.28 333.618 357.354 333.69 357.394 333.782C357.433 333.874 357.434 333.977 357.398 334.07C345.038 365.4 360.588 407.91 360.748 408.33C360.781 408.424 360.777 408.528 360.736 408.619C360.695 408.71 360.621 408.782 360.528 408.82L360.388 408.84Z" fill="#71D816"/>
<path d="M358.93 400.69C358.795 400.69 358.66 400.669 358.53 400.63C358.245 400.548 357.998 400.369 357.83 400.125C357.662 399.88 357.585 399.585 357.61 399.29C358.11 391.88 360.04 378.9 367.21 375.21C369.86 373.85 371.53 373.6 372.31 374.45C373.92 376.19 370.49 381.88 370.09 382.52L360.09 400.03C359.975 400.235 359.807 400.405 359.602 400.522C359.398 400.638 359.165 400.696 358.93 400.69ZM370.99 374.69C369.771 374.828 368.597 375.23 367.55 375.87C360.45 379.52 358.75 393.49 358.36 399.33C358.344 399.456 358.375 399.584 358.447 399.689C358.519 399.794 358.627 399.869 358.75 399.9C358.872 399.941 359.004 399.937 359.123 399.89C359.242 399.842 359.34 399.753 359.4 399.64L369.4 382.13C370.79 379.88 372.63 375.94 371.71 374.95C371.515 374.777 371.26 374.688 371 374.7L370.99 374.69Z" fill="#71D816"/>
<path d="M359.249 400.69C359.2 400.69 359.151 400.68 359.105 400.661C359.06 400.642 359.018 400.614 358.984 400.578C358.949 400.543 358.922 400.501 358.904 400.455C358.886 400.409 358.878 400.359 358.879 400.31C358.879 400.06 358.979 394 367.249 380.4C367.301 380.315 367.384 380.254 367.481 380.231C367.577 380.207 367.679 380.223 367.764 380.275C367.849 380.327 367.91 380.41 367.933 380.507C367.957 380.603 367.941 380.705 367.889 380.79C359.759 394.16 359.629 400.25 359.629 400.31C359.629 400.411 359.589 400.507 359.518 400.579C359.446 400.65 359.35 400.69 359.249 400.69Z" fill="#71D816"/>
<path d="M354.109 409.62C353.823 409.62 353.542 409.542 353.296 409.396C353.05 409.25 352.847 409.041 352.709 408.79L339.239 385.32C338.719 384.47 334.159 376.91 336.239 374.65C337.239 373.57 339.439 373.91 342.929 375.65C352.489 380.57 355.059 397.92 355.739 407.83C355.77 408.197 355.672 408.563 355.462 408.866C355.252 409.169 354.944 409.389 354.589 409.49C354.437 409.556 354.275 409.6 354.109 409.62ZM337.929 374.78C337.725 374.76 337.519 374.784 337.324 374.849C337.129 374.915 336.951 375.021 336.799 375.16C335.519 376.55 338.009 381.89 339.879 384.93L353.359 408.42C353.459 408.591 353.613 408.724 353.796 408.797C353.98 408.87 354.183 408.878 354.373 408.822C354.562 408.765 354.727 408.646 354.841 408.485C354.955 408.323 355.01 408.127 354.999 407.93C354.459 400.08 352.18 381.29 342.599 376.37C341.177 375.506 339.583 374.963 337.929 374.78Z" fill="#71D816"/>
<path d="M353.669 409.61C353.62 409.611 353.571 409.603 353.525 409.585C353.479 409.567 353.437 409.54 353.401 409.505C353.366 409.471 353.338 409.43 353.318 409.384C353.299 409.338 353.289 409.289 353.289 409.24C353.289 409.16 353.119 400.98 342.189 383C342.146 382.914 342.137 382.815 342.163 382.723C342.19 382.631 342.251 382.552 342.333 382.503C342.415 382.453 342.513 382.437 342.607 382.457C342.701 382.477 342.784 382.531 342.839 382.61C353.899 400.82 353.999 408.9 353.999 409.24C353.997 409.337 353.957 409.43 353.888 409.499C353.819 409.568 353.727 409.607 353.629 409.61H353.669Z" fill="#71D816"/>
<path d="M349.001 360.55C348.799 360.555 348.598 360.505 348.422 360.405C348.246 360.304 348.1 360.157 348.001 359.98L339.871 345.81C339.341 344.96 336.781 340.61 338.091 339.2C338.751 338.48 340.091 338.67 342.301 339.8C348.141 342.8 349.701 353.33 350.111 359.34C350.129 359.595 350.06 359.849 349.914 360.06C349.769 360.271 349.556 360.426 349.311 360.5C349.21 360.528 349.106 360.545 349.001 360.55ZM348.681 359.61C348.724 359.685 348.791 359.743 348.871 359.774C348.951 359.805 349.04 359.807 349.121 359.78C349.206 359.759 349.28 359.708 349.33 359.636C349.379 359.564 349.401 359.477 349.391 359.39C349.071 354.68 347.701 343.39 341.991 340.47C339.521 339.2 338.841 339.52 338.661 339.71C337.981 340.44 339.351 343.49 340.541 345.43L348.681 359.61Z" fill="#71D816"/>
<path d="M351.65 409.18H351.59C351.541 409.173 351.494 409.156 351.452 409.13C351.41 409.104 351.373 409.07 351.344 409.03C351.315 408.99 351.295 408.945 351.284 408.897C351.273 408.849 351.272 408.799 351.28 408.75C351.34 408.36 357.54 369.25 341.66 344.43C341.607 344.348 341.589 344.248 341.61 344.152C341.63 344.057 341.688 343.973 341.77 343.92C341.811 343.891 341.857 343.871 341.906 343.86C341.955 343.85 342.005 343.85 342.054 343.86C342.103 343.871 342.149 343.891 342.19 343.92C342.231 343.95 342.265 343.987 342.29 344.03C358.29 369.09 352.09 408.48 352.02 408.87C352.004 408.957 351.958 409.035 351.891 409.091C351.823 409.148 351.738 409.179 351.65 409.18Z" fill="#71D816"/>
<path d="M332.26 378.6C331.862 378.607 331.469 378.511 331.118 378.322C330.768 378.133 330.472 377.856 330.26 377.52C329.4 376.06 329.89 373.52 330.26 372.34C331.78 367.44 336.65 362.8 342.14 363.55C344.069 363.83 345.866 364.694 347.289 366.026C348.712 367.358 349.693 369.094 350.1 371C350.12 371.094 350.112 371.192 350.076 371.281C350.041 371.37 349.979 371.446 349.9 371.5C349.882 371.589 349.841 371.671 349.78 371.738C349.719 371.804 349.64 371.853 349.553 371.878C349.466 371.902 349.374 371.903 349.287 371.878C349.2 371.854 349.121 371.806 349.06 371.74L348 370.65C347.266 369.961 346.385 369.448 345.423 369.152C344.461 368.855 343.444 368.783 342.45 368.94C341.294 369.122 340.193 369.557 339.226 370.216C338.259 370.875 337.451 371.741 336.86 372.75C336.574 373.247 336.327 373.766 336.12 374.3C335.31 376.14 334.26 378.6 332.26 378.6ZM341 364.47C336.49 364.47 332.48 368.53 331.21 372.65C330.84 373.77 330.49 375.95 331.11 377.01C331.191 377.159 331.305 377.286 331.444 377.384C331.583 377.481 331.742 377.545 331.91 377.57C333.45 377.87 334.38 375.67 335.13 373.91C335.359 373.333 335.626 372.772 335.93 372.23C336.6 371.095 337.514 370.123 338.605 369.383C339.696 368.643 340.937 368.153 342.24 367.95C343.387 367.775 344.559 367.864 345.666 368.211C346.773 368.557 347.787 369.152 348.63 369.95L348.78 370.1C348.251 368.653 347.342 367.375 346.149 366.4C344.956 365.425 343.523 364.79 342 364.56C341.669 364.505 341.335 364.475 341 364.47Z" fill="#71D816"/>
<path d="M355.198 428.74C355.099 428.73 355.008 428.681 354.945 428.605C354.881 428.528 354.85 428.429 354.858 428.33C356.028 415.89 352.698 394.1 350.708 381.09C350.208 377.81 349.768 374.98 349.518 373.01C349.381 371.807 348.846 370.685 347.998 369.82C347.932 369.748 347.895 369.653 347.895 369.555C347.895 369.457 347.932 369.362 347.998 369.29C348.069 369.221 348.164 369.182 348.263 369.182C348.362 369.182 348.457 369.221 348.528 369.29C349.495 370.274 350.107 371.551 350.268 372.92C350.518 374.92 350.948 377.7 351.448 380.98C353.448 393.98 356.778 415.87 355.608 428.4C355.598 428.499 355.55 428.59 355.473 428.654C355.396 428.717 355.298 428.748 355.198 428.74Z" fill="#71D816"/>
<path d="M379.629 375.53C377.629 375.53 376.629 373.06 375.809 371.23C375.602 370.7 375.358 370.185 375.079 369.69C374.489 368.677 373.68 367.808 372.711 367.147C371.742 366.486 370.638 366.05 369.479 365.87C368.481 365.716 367.461 365.79 366.496 366.088C365.531 366.386 364.646 366.9 363.909 367.59L362.839 368.67C362.792 368.717 362.737 368.754 362.676 368.779C362.615 368.805 362.55 368.818 362.484 368.818C362.418 368.818 362.353 368.805 362.292 368.779C362.231 368.754 362.175 368.717 362.129 368.67C362.063 368.605 362.018 368.521 361.999 368.43C361.92 368.375 361.86 368.299 361.824 368.21C361.789 368.121 361.78 368.024 361.799 367.93C362.207 366.03 363.183 364.299 364.597 362.967C366.012 361.634 367.798 360.763 369.719 360.47C375.249 359.73 380.089 364.37 381.609 369.28C381.979 370.42 382.469 372.99 381.609 374.45C381.449 374.714 381.234 374.94 380.979 375.113C380.723 375.285 380.433 375.4 380.129 375.45C379.966 375.496 379.798 375.523 379.629 375.53ZM368.449 364.79C368.844 364.79 369.238 364.821 369.629 364.88C370.933 365.083 372.175 365.573 373.266 366.315C374.358 367.057 375.27 368.032 375.939 369.17C376.241 369.704 376.505 370.259 376.729 370.83C377.479 372.6 378.429 374.83 379.939 374.5C380.107 374.474 380.268 374.41 380.408 374.313C380.548 374.216 380.665 374.088 380.749 373.94C381.379 372.88 381.019 370.7 380.649 369.58C379.279 365.16 374.769 360.81 369.859 361.46C368.336 361.695 366.904 362.333 365.711 363.309C364.519 364.285 363.61 365.563 363.079 367.01L363.219 366.87C364.633 365.535 366.504 364.79 368.449 364.79Z" fill="#71D816"/>
<path d="M356.708 425.67C356.615 425.668 356.525 425.633 356.455 425.571C356.385 425.508 356.34 425.423 356.328 425.33C355.158 412.8 358.498 390.96 360.488 377.91C360.988 374.64 361.428 371.8 361.678 369.84C361.838 368.475 362.446 367.202 363.408 366.22C363.443 366.185 363.484 366.156 363.53 366.137C363.575 366.118 363.624 366.108 363.673 366.108C363.723 366.108 363.772 366.118 363.817 366.137C363.863 366.156 363.904 366.185 363.938 366.22C364.007 366.291 364.046 366.386 364.046 366.485C364.046 366.584 364.007 366.679 363.938 366.75C363.095 367.617 362.56 368.738 362.418 369.94C362.168 371.94 361.738 374.74 361.228 378.03C359.228 391.03 355.918 412.82 357.078 425.26C357.084 425.309 357.079 425.358 357.065 425.405C357.051 425.452 357.027 425.496 356.995 425.534C356.963 425.571 356.924 425.602 356.88 425.623C356.836 425.645 356.787 425.658 356.738 425.66L356.708 425.67Z" fill="#71D816"/>
<path d="M369.718 396.77H341.538C340.544 396.77 339.738 397.576 339.738 398.57V435.06C339.738 436.054 340.544 436.86 341.538 436.86H369.718C370.712 436.86 371.518 436.054 371.518 435.06V398.57C371.518 397.576 370.712 396.77 369.718 396.77Z" fill="#E5B561"/>
</g>
<defs>
<clipPath id="clip0">
<rect width="272.09" height="265.86" fill="white" transform="translate(110 171)"/>
</clipPath>
</defs>
</svg>
