<svg width="69" height="76" viewBox="0 0 69 76" fill="none" xmlns="http://www.w3.org/2000/svg">
<path d="M32.7425 43.0319C32.6085 43.003 32.471 42.9978 32.3353 43.018C30.9751 42.8601 29.9491 41.7123 29.9467 40.347C29.9467 39.6927 29.4149 39.1622 28.7588 39.1622C28.1028 39.1622 27.5709 39.6927 27.5709 40.347C27.5744 42.6269 29.1034 44.624 31.3075 45.2273V46.4121C31.3075 47.0664 31.8394 47.5969 32.4954 47.5969C33.1514 47.5969 33.6833 47.0664 33.6833 46.4121V45.2991C36.2273 44.768 37.9564 42.4048 37.689 39.8264C37.421 37.2479 35.243 35.2885 32.6439 35.2879C31.1544 35.2879 29.9467 34.0835 29.9467 32.5979C29.9467 31.1122 31.1544 29.9078 32.6439 29.9078C34.1334 29.9078 35.341 31.1122 35.341 32.5979C35.341 33.2522 35.8729 33.7827 36.5289 33.7827C37.1849 33.7827 37.7168 33.2522 37.7168 32.5979C37.7133 30.204 36.0318 28.1393 33.6833 27.6452V26.5669C33.6833 25.9126 33.1514 25.3821 32.4954 25.3821C31.8394 25.3821 31.3075 25.9126 31.3075 26.5669V27.7175C28.8563 28.3851 27.2786 30.7588 27.6162 33.2707C27.9538 35.7826 30.1028 37.6575 32.6439 37.6569C34.1137 37.6569 35.3126 38.8307 35.3393 40.2961C35.3665 41.7615 34.2111 42.9787 32.7425 43.0319Z" fill="#DF2C65"/>
<path d="M15.4182 36.5636C15.4182 46.0523 23.1302 53.7442 32.6439 53.7442C42.1575 53.7442 49.8696 46.0523 49.8696 36.5636C49.8696 27.0748 42.1575 19.3829 32.6439 19.3829C23.1349 19.3934 15.4292 27.0794 15.4182 36.5636ZM32.6439 21.7525C40.8455 21.7525 47.4938 28.3834 47.4938 36.5636C47.4938 44.7437 40.8455 51.3746 32.6439 51.3746C24.4423 51.3746 17.794 44.7437 17.794 36.5636C17.8033 28.3875 24.4463 21.7618 32.6439 21.7525Z" fill="#DF2C65"/>
<path d="M55.7255 56.6651L46.4201 61.0502C45.1354 58.6667 42.6708 57.1499 39.9586 57.0735L31.3684 56.8381C30.0082 56.7993 28.6736 56.4557 27.4642 55.8326L26.5901 55.3808C22.1146 53.054 16.7801 53.0598 12.3092 55.3958L12.3638 53.4208C12.3817 52.7665 11.8649 52.2215 11.2089 52.2036L1.78926 51.945C1.13325 51.9271 0.587444 52.4425 0.569463 53.0968L0.000455314 73.7138C-0.0175255 74.3681 0.49928 74.9131 1.15529 74.931L10.575 75.1896H10.6074C11.2513 75.1896 11.7779 74.6788 11.7953 74.0372L11.8226 73.0508L14.2697 71.744C15.2303 71.2285 16.3532 71.1059 17.4025 71.4021L32.0157 75.4927C32.0412 75.5002 32.0667 75.506 32.0928 75.5118C33.1491 75.7322 34.2256 75.8427 35.3045 75.8421C37.5898 75.8433 39.8484 75.3521 41.9255 74.4011C41.9765 74.3779 42.0258 74.3507 42.0728 74.3201L63.2607 60.651C63.7885 60.3103 63.959 59.619 63.6499 59.0728C62.0768 56.289 58.588 55.2286 55.7255 56.6651ZM2.40815 72.595L2.91162 54.3464L9.95606 54.5396L9.4526 72.7888L2.40815 72.595ZM40.8553 72.2849C38.2748 73.4465 35.3926 73.767 32.6189 73.2018L18.0451 69.1216C16.4048 68.6593 14.6491 68.8508 13.1485 69.6555L11.898 70.3237L12.2327 58.1906C16.1954 55.5619 21.2776 55.2917 25.4979 57.4848L26.372 57.9366C27.8998 58.7234 29.5848 59.1573 31.3034 59.2071L39.8942 59.4425C42.3071 59.5119 44.3564 61.2255 44.8459 63.5835L32.0499 63.2312C31.3939 63.2132 30.8481 63.7293 30.8295 64.383C30.8116 65.0373 31.3289 65.5822 31.9844 65.6002L46.1057 65.9878H46.1388C46.7821 65.9872 47.3081 65.4764 47.3255 64.8354C47.34 64.3205 47.3018 63.8051 47.2107 63.2983L56.7551 58.8004C56.7643 58.7963 56.7736 58.7917 56.7829 58.7871C58.1367 58.1038 59.7735 58.3324 60.8872 59.3604L40.8553 72.2849Z" fill="#DF2C65"/>
<path d="M33.8318 16.0519V4.79636C33.8318 4.14207 33.2999 3.61157 32.6439 3.61157C31.9879 3.61157 31.456 4.14207 31.456 4.79636V16.0519C31.456 16.7062 31.9879 17.2367 32.6439 17.2367C33.2999 17.2367 33.8318 16.7062 33.8318 16.0519Z" fill="#DF2C65"/>
<path d="M42.741 16.0519V10.7203C42.741 10.066 42.2091 9.53552 41.5531 9.53552C40.8971 9.53552 40.3652 10.066 40.3652 10.7203V16.0519C40.3652 16.7062 40.8971 17.2367 41.5531 17.2367C42.2091 17.2367 42.741 16.7062 42.741 16.0519Z" fill="#DF2C65"/>
<path d="M24.9225 16.0519V10.7203C24.9225 10.066 24.3906 9.53552 23.7346 9.53552C23.0786 9.53552 22.5467 10.066 22.5467 10.7203V16.0519C22.5467 16.7062 23.0786 17.2367 23.7346 17.2367C24.3906 17.2367 24.9225 16.7062 24.9225 16.0519Z" fill="#DF2C65"/>
<g opacity="0.1">
<path d="M37.5579 39.4203C37.4239 39.3914 37.2865 39.3862 37.1507 39.4064C35.7906 39.2485 34.7645 38.1007 34.7622 36.7354C34.7622 36.0812 34.2303 35.5507 33.5743 35.5507C32.9183 35.5507 32.3864 36.0812 32.3864 36.7354C32.3899 39.0154 33.9188 41.0124 36.1229 41.6158V42.8006C36.1229 43.4548 36.6548 43.9853 37.3108 43.9853C37.9668 43.9853 38.4987 43.4548 38.4987 42.8006V41.6875C41.0427 41.1564 42.7718 38.7932 42.5044 36.2148C42.2364 33.6364 40.0584 31.6769 37.4593 31.6764C35.9698 31.6764 34.7622 30.4719 34.7622 28.9863C34.7622 27.5007 35.9698 26.2962 37.4593 26.2962C38.9488 26.2962 40.1564 27.5007 40.1564 28.9863C40.1564 29.6406 40.6883 30.1711 41.3443 30.1711C42.0003 30.1711 42.5322 29.6406 42.5322 28.9863C42.5287 26.5924 40.8472 24.5277 38.4987 24.0337V22.9553C38.4987 22.301 37.9668 21.7705 37.3108 21.7705C36.6548 21.7705 36.1229 22.301 36.1229 22.9553V24.106C33.6717 24.7736 32.094 27.1472 32.4316 29.6591C32.7692 32.171 34.9182 34.0459 37.4593 34.0454C38.9291 34.0454 40.128 35.2192 40.1547 36.6845C40.182 38.1499 39.0265 39.3671 37.5579 39.4203Z" fill="#DF2C65"/>
<path d="M20.2336 32.952C20.2336 42.4407 27.9457 50.1326 37.4593 50.1326C46.9729 50.1326 54.685 42.4407 54.685 32.952C54.685 23.4632 46.9729 15.7714 37.4593 15.7714C27.9503 15.7818 20.2446 23.4679 20.2336 32.952ZM37.4593 18.1409C45.6609 18.1409 52.3092 24.7718 52.3092 32.952C52.3092 41.1321 45.6609 47.763 37.4593 47.763C29.2577 47.763 22.6094 41.1321 22.6094 32.952C22.6187 24.7759 29.2618 18.1502 37.4593 18.1409Z" fill="#DF2C65"/>
<path d="M38.6472 12.4403V1.18479C38.6472 0.530495 38.1153 0 37.4593 0C36.8033 0 36.2714 0.530495 36.2714 1.18479V12.4403C36.2714 13.0946 36.8033 13.6251 37.4593 13.6251C38.1153 13.6251 38.6472 13.0946 38.6472 12.4403Z" fill="#DF2C65"/>
<path d="M47.5564 12.4403V7.10874C47.5564 6.45445 47.0245 5.92395 46.3685 5.92395C45.7125 5.92395 45.1806 6.45445 45.1806 7.10874V12.4403C45.1806 13.0946 45.7125 13.6251 46.3685 13.6251C47.0245 13.6251 47.5564 13.0946 47.5564 12.4403Z" fill="#DF2C65"/>
<path d="M29.738 12.4403V7.10874C29.738 6.45445 29.2061 5.92395 28.5501 5.92395C27.8941 5.92395 27.3622 6.45445 27.3622 7.10874V12.4403C27.3622 13.0946 27.8941 13.6251 28.5501 13.6251C29.2061 13.6251 29.738 13.0946 29.738 12.4403Z" fill="#DF2C65"/>
<path fill-rule="evenodd" clip-rule="evenodd" d="M37.4593 18.1409C45.6609 18.1409 52.3092 24.7718 52.3092 32.952C52.3092 41.1321 45.6609 47.763 37.4593 47.763C29.2577 47.763 22.6094 41.1321 22.6094 32.952C22.6187 24.7759 29.2618 18.1502 37.4593 18.1409ZM37.1507 39.4064C37.2865 39.3862 37.4239 39.3914 37.5579 39.4203C39.0265 39.3671 40.182 38.1499 40.1547 36.6845C40.128 35.2192 38.9291 34.0454 37.4593 34.0454C34.9182 34.0459 32.7692 32.171 32.4316 29.6591C32.094 27.1472 33.6717 24.7736 36.1229 24.106V22.9553C36.1229 22.301 36.6548 21.7705 37.3108 21.7705C37.9668 21.7705 38.4987 22.301 38.4987 22.9553V24.0337C40.8472 24.5277 42.5287 26.5924 42.5322 28.9863C42.5322 29.6406 42.0003 30.1711 41.3443 30.1711C40.6883 30.1711 40.1564 29.6406 40.1564 28.9863C40.1564 27.5007 38.9488 26.2962 37.4593 26.2962C35.9698 26.2962 34.7622 27.5007 34.7622 28.9863C34.7622 30.4719 35.9698 31.6764 37.4593 31.6764C40.0584 31.6769 42.2364 33.6364 42.5044 36.2148C42.7718 38.7932 41.0427 41.1564 38.4987 41.6875V42.8006C38.4987 43.4548 37.9668 43.9853 37.3108 43.9853C36.6548 43.9853 36.1229 43.4548 36.1229 42.8006V41.6158C33.9188 41.0124 32.3899 39.0154 32.3864 36.7354C32.3864 36.0812 32.9183 35.5507 33.5743 35.5507C34.2303 35.5507 34.7622 36.0812 34.7622 36.7354C34.7645 38.1007 35.7906 39.2485 37.1507 39.4064Z" fill="#DF2C65"/>
<path d="M45.6708 68.6733C43.0902 69.835 40.2081 70.1554 37.4344 69.5902L22.8606 65.51C21.2202 65.0478 19.4645 65.2393 17.964 66.044L16.7134 66.7122L17.0481 54.579C21.0109 51.9503 26.0931 51.6801 30.3134 53.8733L31.1875 54.3251C32.7153 55.1119 34.4002 55.5457 36.1189 55.5955L44.7097 55.8309C47.1226 55.9004 49.1718 57.6139 49.6614 59.9719L36.8654 59.6196C36.2093 59.6017 35.6635 60.1177 35.645 60.7714C35.627 61.4257 36.1444 61.9707 36.7998 61.9886L50.9212 62.3762H50.9542C51.5975 62.3756 52.1236 61.8648 52.141 61.2238C52.1555 60.7089 52.1172 60.1935 52.0261 59.6867L61.5705 55.1888C61.5798 55.1847 61.5891 55.1801 61.5983 55.1755C62.9521 54.4923 64.589 54.7208 65.7026 55.7488L45.6708 68.6733Z" fill="#DF2C65"/>
<path fill-rule="evenodd" clip-rule="evenodd" d="M60.5409 53.0535L51.2356 57.4386C49.9508 55.0552 47.4862 53.5383 44.774 53.4619L36.1838 53.2265C34.8237 53.1877 33.489 52.8441 32.2796 52.221L31.4055 51.7692C26.93 49.4424 21.5955 49.4482 17.1247 51.7843L17.1792 49.8092C17.1972 49.1549 16.6804 48.61 16.0244 48.592L6.60469 48.3334C5.94868 48.3155 5.40287 48.831 5.38489 49.4853L4.81589 70.1022C4.7979 70.7565 5.31471 71.3015 5.97072 71.3194L15.3904 71.578H15.4229C16.0667 71.578 16.5934 71.0672 16.6108 70.4256L16.638 69.4393L19.0852 68.1324C20.0457 67.6169 21.1686 67.4943 22.2179 67.7905L36.8311 71.8811C36.8567 71.8887 36.8822 71.8945 36.9083 71.9002C37.9645 72.1207 39.041 72.2311 40.1199 72.2306C42.4052 72.2317 44.6638 71.7406 46.7409 70.7895C46.792 70.7664 46.8413 70.7392 46.8882 70.7085L68.0761 57.0395C68.6039 56.6987 68.7745 56.0074 68.4653 55.4613C66.8923 52.6775 63.4034 51.6171 60.5409 53.0535ZM7.72705 50.7348L7.22358 68.9834L14.268 69.1772L14.7715 50.9281L7.72705 50.7348ZM37.4344 69.5902C40.2081 70.1554 43.0902 69.835 45.6708 68.6733L65.7026 55.7488C64.589 54.7208 62.9521 54.4923 61.5983 55.1755C61.5891 55.1801 61.5798 55.1847 61.5705 55.1888L52.0261 59.6867C52.1172 60.1935 52.1555 60.7089 52.141 61.2238C52.1236 61.8648 51.5975 62.3756 50.9542 62.3762H50.9212L36.7998 61.9886C36.1444 61.9707 35.627 61.4257 35.645 60.7714C35.6635 60.1177 36.2093 59.6017 36.8654 59.6196L49.6614 59.9719C49.1718 57.6139 47.1226 55.9004 44.7097 55.8309L36.1189 55.5955C34.4002 55.5457 32.7153 55.1119 31.1875 54.3251L30.3134 53.8733C26.0931 51.6801 21.0109 51.9503 17.0481 54.579L16.7134 66.7122L17.964 66.044C19.4645 65.2393 21.2202 65.0478 22.8606 65.51L37.4344 69.5902Z" fill="#DF2C65"/>
<path d="M7.22358 68.9834L7.72705 50.7348L14.7715 50.9281L14.268 69.1772L7.22358 68.9834Z" fill="#DF2C65"/>
</g>
</svg>
