<svg width="63" height="61" viewBox="0 0 63 61" fill="none" xmlns="http://www.w3.org/2000/svg">
<g opacity="0.1">
<path d="M62.9244 40.6777C62.8713 40.3381 62.79 40.0033 62.6815 39.6771C61.6434 36.7758 58.6833 35.0399 55.657 35.5576C54.6559 35.7159 53.7166 35.0294 53.5587 34.0241L52.0359 24.2394C50.786 15.9607 44.8306 9.18104 36.8071 6.90298C36.0774 2.41796 31.8654 -0.62389 27.3991 0.10894C22.992 0.832096 19.973 4.96581 20.6103 9.4044C13.6944 13.7997 10.0438 21.9042 11.3231 30.0223L12.9549 40.4365C13.1044 41.4398 12.4245 42.3779 11.428 42.5437C8.38934 42.984 6.10233 45.5486 6.00034 48.63C5.96517 52.0493 8.69689 54.8499 12.1017 54.8852C12.1231 54.8855 12.1445 54.8856 12.1658 54.8856C12.4872 54.8853 12.808 54.8605 13.1256 54.8113L19.4513 53.8125C21.6519 57.7574 26.6202 59.164 30.5486 56.9542C32.6235 55.787 34.0875 53.7681 34.5567 51.4266L57.7903 47.755C61.1541 47.2245 63.4528 44.0559 62.9244 40.6777ZM28.1138 4.3914C28.328 4.3579 28.5444 4.34061 28.7612 4.33977C30.1389 4.34714 31.4222 5.04381 32.183 6.19724H32.0844C31.3179 6.17402 30.5506 6.19615 29.7867 6.26326C28.9822 6.34042 28.1827 6.46449 27.3924 6.63476C27.2217 6.66983 27.0533 6.71941 26.8847 6.76064C26.2373 6.91338 25.6022 7.09296 24.9795 7.30555C24.9179 7.32417 24.8542 7.33445 24.7925 7.35719C25.2261 5.80095 26.5241 4.64185 28.1138 4.3914ZM26.5518 53.8723C25.6809 53.8733 24.8326 53.5925 24.133 53.0715L29.8875 52.1655C29.113 53.2394 27.8721 53.8744 26.5518 53.8723ZM58.5856 42.7131C58.2709 43.232 57.7447 43.5854 57.1469 43.679L12.4926 50.7269C11.8963 50.8247 11.2877 50.6508 10.832 50.2523C10.367 49.8541 10.1027 49.2685 10.1107 48.6548C10.1997 47.5963 11.017 46.7463 12.0672 46.6198C15.3041 46.0987 17.5142 43.0502 17.0139 39.7968L15.3841 29.3826C14.3167 22.5121 17.6388 15.7042 23.6993 12.3414C23.735 12.3294 23.7699 12.3156 23.8041 12.3002C25.771 11.2299 27.9347 10.5739 30.1627 10.3726C30.8379 10.3129 31.5163 10.2999 32.1933 10.3334L32.5303 10.3499C33.2307 10.3925 33.9274 10.4807 34.6163 10.6142C34.639 10.6142 34.6594 10.6142 34.6821 10.6142C41.6361 12.1249 46.9289 17.8069 47.9666 24.8755L49.4998 34.6602C50.0094 37.9169 53.051 40.1426 56.2941 39.6321C57.3307 39.4288 58.367 39.9836 58.7768 40.9612C58.9771 41.5442 58.907 42.1871 58.5856 42.7131Z" fill="#DF2C65"/>
<path d="M28.1138 4.3914C28.328 4.3579 28.5444 4.34061 28.7612 4.33977C30.1389 4.34714 31.4222 5.04381 32.183 6.19724H32.0844C31.3179 6.17402 30.5506 6.19615 29.7867 6.26326C28.9822 6.34042 28.1827 6.46449 27.3924 6.63476C27.2217 6.66983 27.0533 6.71941 26.8847 6.76064C26.2373 6.91338 25.6022 7.09296 24.9795 7.30555C24.9179 7.32417 24.8542 7.33445 24.7925 7.35719C25.2261 5.80095 26.5241 4.64185 28.1138 4.3914Z" fill="#DF2C65"/>
<path d="M58.5856 42.7131C58.2709 43.232 57.7447 43.5854 57.1469 43.679L12.4926 50.7269C11.8963 50.8247 11.2877 50.6508 10.832 50.2523C10.367 49.8541 10.1027 49.2685 10.1107 48.6548C10.1997 47.5963 11.017 46.7463 12.0672 46.6198C15.3041 46.0987 17.5142 43.0502 17.0139 39.7968L15.3841 29.3826C14.3167 22.5121 17.6388 15.7042 23.6993 12.3414C23.735 12.3294 23.7699 12.3156 23.8041 12.3002C25.771 11.2299 27.9347 10.5739 30.1627 10.3726C30.8379 10.3129 31.5163 10.2999 32.1933 10.3334L32.5303 10.3499C33.2307 10.3925 33.9274 10.4807 34.6163 10.6142H34.6821C41.6361 12.1249 46.9289 17.8069 47.9666 24.8755L49.4998 34.6602C50.0094 37.9169 53.051 40.1426 56.2941 39.6321C57.3307 39.4288 58.367 39.9836 58.7768 40.9612C58.9771 41.5442 58.907 42.1871 58.5856 42.7131Z" fill="#DF2C65"/>
</g>
<path d="M49.7117 38.9033L49.716 38.9026C52.5726 38.4139 55.3683 40.0514 56.3507 42.7913C56.4524 43.098 56.5287 43.4126 56.5786 43.7318C57.0774 46.9205 54.9075 49.909 51.7358 50.4093L51.7357 50.4093L28.5021 54.0809L28.2614 54.119L28.2136 54.3579C27.7642 56.5997 26.3627 58.5321 24.377 59.6491L24.5486 59.9542L24.377 59.6491C20.6182 61.7636 15.8635 60.4183 13.757 56.6419L13.638 56.4286L13.3967 56.4667L7.07195 57.4655C6.77209 57.5119 6.46912 57.5353 6.16555 57.5356C6.14563 57.5356 6.12561 57.5355 6.10572 57.5352L6.10538 57.5352C2.89652 57.502 0.319253 54.8632 0.350277 51.6376C0.448541 48.7264 2.60967 46.3057 5.47819 45.8901L5.4782 45.8901L5.48545 45.8889C6.67156 45.6916 7.47849 44.5759 7.30111 43.3849L7.3007 43.3823L5.6689 32.9681L5.66885 32.9678C4.41113 24.9869 8.00023 17.02 14.7981 12.6998L14.9889 12.5785L14.9568 12.3546C14.3463 8.10342 17.238 4.14641 21.4558 3.45432C25.7298 2.75303 29.7628 5.66383 30.4617 9.95919L30.4974 10.1789L30.7115 10.2397C38.6023 12.4801 44.4603 19.148 45.6898 27.2916L45.69 27.2932L47.2128 37.0779L47.2129 37.0784C47.4006 38.2735 48.5182 39.092 49.7117 38.9033ZM22.0597 7.0456L22.0593 7.04567C20.3336 7.31755 18.9256 8.57564 18.4554 10.2632L18.2717 10.9223L18.9136 10.6856C18.9251 10.6813 18.9406 10.6769 18.9699 10.6696C18.9739 10.6686 18.9783 10.6676 18.9833 10.6664C19.0085 10.6602 19.0455 10.6512 19.0807 10.6406L19.0808 10.6408L19.0926 10.6368C19.7035 10.4282 20.3276 10.2517 20.9651 10.1013L20.9678 10.1006C21.0409 10.0828 21.1061 10.0656 21.168 10.0493C21.2689 10.0227 21.3608 9.99855 21.4628 9.97761L21.4661 9.97691C22.2427 9.8096 23.0282 9.68766 23.8187 9.6118C24.5685 9.54598 25.3216 9.52429 26.0738 9.54707L26.0738 9.54724H26.0844H26.183H26.8332L26.4752 9.00452C25.6502 7.75381 24.2582 6.99778 22.7631 6.98976L22.7598 6.98977C22.5254 6.99068 22.2913 7.00939 22.0597 7.0456ZM18.9276 9.95355C19.4583 8.60284 20.6649 7.61967 22.1138 7.3914C22.328 7.3579 22.5444 7.34061 22.7612 7.33977L18.9276 9.95355ZM17.9239 56.3522C18.6839 56.9181 19.6054 57.2233 20.5518 57.2223C21.9849 57.2244 23.3313 56.535 24.1713 55.3702L24.6625 54.6892L23.833 54.8198L18.0785 55.7258L17.2564 55.8552L17.9239 56.3522ZM3.76196 51.6255L3.76093 51.6378L3.76076 51.6502C3.75134 52.3668 4.05969 53.051 4.60302 53.517C5.13688 53.9831 5.84977 54.1867 6.54853 54.0725C6.54876 54.0724 6.54899 54.0724 6.54923 54.0723L51.2011 47.0247C51.9008 46.9152 52.5162 46.5018 52.8843 45.8956C53.26 45.2805 53.3419 44.5291 53.1078 43.8475L53.1041 43.8366L53.0996 43.8259C52.6268 42.6981 51.4317 42.0556 50.2336 42.2873C47.1851 42.7638 44.3252 40.671 43.8456 37.6061L43.8456 37.606L42.3129 27.8246C42.3128 27.8241 42.3128 27.8235 42.3127 27.823C41.2533 20.6117 35.8531 14.8139 28.7564 13.2721L28.7197 13.2642H28.6821H28.682H28.6818H28.6817H28.6816H28.6814H28.6813H28.6812H28.681H28.6809H28.6808H28.6806H28.6805H28.6804H28.6802H28.6801H28.68H28.6798H28.6797H28.6796H28.6794H28.6793H28.6792H28.679H28.6789H28.6788H28.6787H28.6785H28.6784H28.6783H28.6781H28.678H28.6779H28.6777H28.6776H28.6775H28.6773H28.6772H28.6771H28.6769H28.6768H28.6767H28.6766H28.6764H28.6763H28.6762H28.676H28.6759H28.6758H28.6756H28.6755H28.6754H28.6753H28.6751H28.675H28.6749H28.6747H28.6746H28.6745H28.6743H28.6742H28.6741H28.674H28.6738H28.6737H28.6736H28.6734H28.6733H28.6732H28.673H28.6729H28.6728H28.6727H28.6725H28.6724H28.6723H28.6721H28.672H28.6719H28.6717H28.6716H28.6715H28.6714H28.6712H28.6711H28.671H28.6708H28.6707H28.6706H28.6705H28.6703H28.6702H28.6701H28.6699H28.6698H28.6697H28.6696H28.6694H28.6693H28.6692H28.669H28.6689H28.6688H28.6687H28.6685H28.6684H28.6683H28.6681H28.668H28.6679H28.6678H28.6676H28.6675H28.6674H28.6672H28.6671H28.667H28.6669H28.6667H28.6666H28.6665H28.6663H28.6662H28.6661H28.666H28.6658H28.6657H28.6656H28.6654H28.6653H28.6652H28.6651H28.6649H28.6648H28.6647H28.6646H28.6644H28.6643H28.6642H28.664H28.6639H28.6638H28.6637H28.6635H28.6634H28.6633H28.6631H28.663H28.6629H28.6628H28.6626H28.6625H28.6624H28.6623H28.6621H28.662H28.6619H28.6617H28.6616H28.6615H28.6614H28.6612H28.6611H28.661H28.6609H28.6607H28.6606H28.6605H28.6603H28.6602H28.6601H28.66H28.6598H28.6597H28.6596H28.6595H28.6593H28.6592H28.6591H28.659H28.6588H28.6587H28.6586H28.6584H28.6583H28.6582H28.6581H28.6579H28.6578H28.6577H28.6576H28.6574H28.6573H28.6572H28.657H28.6569H28.6568H28.6567H28.6565H28.6564H28.6563H28.6562H28.656H28.6559H28.6558H28.6557H28.6555H28.6554H28.6553H28.6552H28.655H28.6549H28.6548H28.6546H28.6545H28.6544H28.6543H28.6541H28.654H28.6539H28.6538H28.6536H28.6535H28.6534H28.6533H28.6531H28.653H28.6529H28.6527H28.6526H28.6525H28.6524H28.6522H28.6521H28.652H28.6519H28.6517H28.6516H28.6515H28.6514H28.6512H28.6511H28.651H28.6509H28.6507H28.6506H28.6505H28.6503H28.6502H28.6501H28.65H28.6498H28.6498C27.9566 13.1313 27.2558 13.0434 26.5515 13.0006V13.0006L26.5475 13.0004L26.2106 12.9838C26.2105 12.9838 26.2105 12.9838 26.2104 12.9838C25.5175 12.9495 24.8231 12.9629 24.132 13.0239L24.1312 13.024C21.8603 13.2292 19.6548 13.8969 17.6492 14.986C17.6289 14.9948 17.6085 15.0027 17.5879 15.0096L17.5575 15.0198L17.5295 15.0354C11.3401 18.4696 7.94847 25.4215 9.03829 32.4363L9.03835 32.4367L10.668 42.85C10.668 42.8501 10.668 42.8503 10.668 42.8504C11.1387 45.9127 9.06008 48.7799 6.01809 49.2732C4.8056 49.4227 3.86457 50.405 3.76196 51.6255Z" fill="#DF2C65" stroke="white" stroke-width="0.7"/>
</svg>
