<svg width="58" height="65" viewBox="0 0 58 65" fill="none" xmlns="http://www.w3.org/2000/svg">
<g opacity="0.1">
<path d="M45.1906 13.8398C41.5096 13.2444 37.8364 14.0326 34.7249 16.0634C35.6531 14.0183 37.1055 12.1686 39.0697 10.538C41.4096 8.59546 43.6297 7.71022 43.6478 7.70307C44.5667 7.34683 45.0236 6.31089 44.6684 5.38933C44.3133 4.46789 43.2807 4.00945 42.3613 4.36582C42.0802 4.4748 37.6612 6.23695 34.1712 10.3508C34.0403 9.70323 33.8577 9.05143 33.6104 8.40526C31.5338 2.97996 25.829 0.27809 25.5872 0.165707C25.1495 -0.0376125 24.6483 -0.0544875 24.198 0.118715C23.7478 0.292152 23.3866 0.641019 23.1971 1.08574C23.0923 1.33172 20.6555 7.16788 22.7321 12.5932C22.9193 13.0821 23.1362 13.5485 23.3756 13.9932C21.5716 13.5931 19.6916 13.5351 17.8096 13.8397C9.55634 15.1753 3.89225 23.1643 5.18342 31.6491C6.10243 37.6886 7.44595 42.8759 9.17717 47.0665C11.1406 51.8199 13.6204 55.3146 16.5478 57.4541C18.8657 59.148 21.4477 60.0002 24.2498 60C25.0248 60 25.8172 59.9347 26.6249 59.8041C28.489 59.5025 30.122 58.8172 31.5001 57.7611C32.8782 58.8172 34.5112 59.5027 36.3752 59.8041C40.1023 60.4071 43.493 59.6166 46.4522 57.4541C49.3796 55.3147 51.8595 51.82 53.8228 47.0665C55.554 42.8757 56.8976 37.6885 57.8166 31.6491C59.1077 23.1643 53.4436 15.1753 45.1906 13.8398ZM25.8704 4.47679C27.3472 5.50148 29.3486 7.25448 30.2799 9.68741C31.2054 12.1051 30.885 14.7626 30.4723 16.5217C28.9957 15.4971 26.9942 13.7441 26.0629 11.311C25.1373 8.89346 25.4577 6.23612 25.8704 4.47679ZM54.29 31.1094C52.4767 43.026 49.0401 51.136 44.3512 54.5624C42.1588 56.1646 39.7356 56.7239 36.9432 56.2718C35.2318 55.995 33.88 55.2958 32.8102 54.1342C32.4725 53.7677 31.9975 53.5593 31.4998 53.5593C31.0022 53.5593 30.5272 53.7677 30.1895 54.1342C29.1197 55.2958 27.7678 55.9949 26.0565 56.2718C23.264 56.7233 20.8409 56.1646 18.6484 54.5624C13.9595 51.136 10.5229 43.026 8.70966 31.1094C7.71283 24.5584 12.0499 18.3958 18.3774 17.3721C18.9846 17.2738 19.5918 17.2252 20.1945 17.2252C22.6578 17.2252 25.0469 18.0369 27.0668 19.5848C29.6768 21.5848 33.3225 21.5848 35.9326 19.5848C38.4469 17.6581 41.5331 16.872 44.622 17.3721C50.9498 18.3959 55.2868 24.5585 54.29 31.1094Z" fill="#DF2C65"/>
<path d="M25.8704 4.47679C27.3472 5.50148 29.3486 7.25448 30.2799 9.68741C31.2054 12.1051 30.885 14.7626 30.4723 16.5217C28.9957 15.4971 26.9942 13.7441 26.0629 11.311C25.1373 8.89346 25.4577 6.23612 25.8704 4.47679Z" fill="#DF2C65"/>
<path d="M54.29 31.1094C52.4767 43.026 49.0401 51.136 44.3512 54.5624C42.1588 56.1646 39.7356 56.7239 36.9432 56.2718C35.2318 55.995 33.88 55.2958 32.8102 54.1342C32.4725 53.7677 31.9975 53.5593 31.4998 53.5593C31.0022 53.5593 30.5272 53.7677 30.1895 54.1342C29.1197 55.2958 27.7678 55.9949 26.0565 56.2718C23.264 56.7233 20.8409 56.1646 18.6484 54.5624C13.9595 51.136 10.5229 43.026 8.70966 31.1094C7.71283 24.5584 12.0499 18.3958 18.3774 17.3721C18.9846 17.2738 19.5918 17.2252 20.1945 17.2252C22.6578 17.2252 25.0469 18.0369 27.0668 19.5848C29.6768 21.5848 33.3225 21.5848 35.9326 19.5848C38.4469 17.6581 41.5331 16.872 44.622 17.3721C50.9498 18.3959 55.2868 24.5585 54.29 31.1094Z" fill="#DF2C65"/>
</g>
<path d="M29.3754 21.4707L29.5884 21.0015C30.527 18.9331 31.9945 17.0658 33.9739 15.4225C36.3307 13.466 38.5669 12.5738 38.5928 12.5635L38.5936 12.5632C39.4351 12.237 39.854 11.2879 39.5284 10.4433C39.203 9.59895 38.2573 9.1794 37.4155 9.50568C37.143 9.61133 32.7516 11.3623 29.2856 15.4478L29.0855 15.6837L29.0242 15.3805C28.8948 14.7403 28.7144 14.0966 28.4704 13.4589C27.4451 10.7804 25.5217 8.76889 23.8173 7.41044C22.1137 6.0527 20.6385 5.35495 20.524 5.30173C20.1232 5.11557 19.6643 5.10011 19.2519 5.25869L29.3754 21.4707ZM29.3754 21.4707L29.8069 21.1891M29.3754 21.4707L29.8069 21.1891M29.8069 21.1891C32.8872 19.1785 36.5227 18.3985 40.1666 18.9879C48.3349 20.3096 53.9476 28.2194 52.6683 36.6266C51.7505 42.6578 50.4095 47.8326 48.6842 52.0092L48.8228 52.0665L48.6842 52.0092C46.7272 56.7474 44.2614 60.2153 41.3637 62.333C38.438 64.471 35.088 65.2528 31.3991 64.656C29.5576 64.3582 27.9481 63.6818 26.5913 62.6421L26.5001 62.5722L26.4088 62.6421C25.052 63.6818 23.4427 64.3581 21.601 64.656C20.8007 64.7854 20.0164 64.85 19.2498 64.85C16.4803 64.8502 13.9292 64.0086 11.6363 62.333C8.73864 60.2152 6.27287 56.7472 4.31581 52.0092L4.17717 52.0665L4.31581 52.0092C2.59047 47.8328 1.2495 42.658 0.331716 36.6266C-0.947627 28.2195 4.66512 20.3096 12.8335 18.9878C14.6969 18.6862 16.5578 18.7437 18.3431 19.1397L18.663 19.2106L18.5077 18.9221C18.2711 18.4826 18.057 18.0221 17.8722 17.5396M29.8069 21.1891L19.2518 5.25872C18.8396 5.41756 18.5087 5.73709 18.3351 6.14455C18.2854 6.26106 17.6546 7.76968 17.2945 9.92197C16.9342 12.0754 16.847 14.8611 17.8722 17.5396M17.8722 17.5396L17.7321 17.5932L17.8722 17.5395C17.8722 17.5396 17.8722 17.5396 17.8722 17.5396ZM39.6459 22.224L39.6461 22.224C46.0596 23.2617 50.4468 29.5043 49.4383 36.1319C48.5304 42.0982 47.2154 47.1179 45.5371 51.0782C43.8595 55.0371 41.8143 57.9482 39.4397 59.6835C37.2135 61.3104 34.7494 61.8781 31.9192 61.4199C30.1782 61.1383 28.7947 60.4246 27.6999 59.2358C27.3905 58.9002 26.9555 58.7093 26.4998 58.7093C26.0442 58.7093 25.6091 58.9002 25.2998 59.2358C24.205 60.4246 22.8215 61.1382 21.0804 61.4199C18.2503 61.8775 15.7863 61.3104 13.5599 59.6835C11.1853 57.9482 9.14018 55.0371 7.46256 51.0782C5.78429 47.1179 4.46921 42.0982 3.56137 36.1319C2.55286 29.5042 6.94016 23.2616 13.3535 22.224M39.6459 22.224L13.3535 22.224M39.6459 22.224L39.6342 22.2221H39.634M39.6459 22.224L39.634 22.2221M13.3535 22.224C13.9685 22.1244 14.5838 22.0752 15.1945 22.0752C17.6914 22.0752 20.1124 22.8981 22.1581 24.4657C24.7142 26.4245 28.2851 26.4245 30.8413 24.4657C33.3847 22.5168 36.5078 21.7193 39.634 22.2221M13.3535 22.224L39.634 22.2221M20.9559 9.35355L20.7748 9.22783L20.7244 9.44253C20.3092 11.2124 19.9813 13.9053 20.9228 16.3647C21.87 18.8393 23.9007 20.6138 25.3867 21.6449L25.5679 21.7706L25.6183 21.5559C26.0335 19.7863 26.3614 17.0932 25.42 14.6338C24.4728 12.1592 22.4421 10.3848 20.9559 9.35355Z" fill="#DF2C65" stroke="white" stroke-width="0.3"/>
</svg>
