<svg width="69" height="68" viewBox="0 0 69 68" fill="none" xmlns="http://www.w3.org/2000/svg">
<path d="M57.933 34.1427L57.9495 34.375H58.1824H62.125C63.0224 34.375 63.75 35.1026 63.75 36C63.75 36.8974 63.0224 37.625 62.125 37.625H58.1824H57.9495L57.933 37.8573C57.0209 50.7161 46.7162 61.0208 33.8574 61.933L33.6251 61.9495V62.1824V66.125C33.6251 67.0224 32.8975 67.75 32.0001 67.75C31.1026 67.75 30.3751 67.0224 30.3751 66.125V62.1823V61.9494L30.1427 61.9329C17.2838 61.0208 6.97908 50.7161 6.06714 37.8573L6.05066 37.625H5.81776H1.875C0.977572 37.625 0.25 36.8974 0.25 36C0.25 35.1026 0.977572 34.375 1.875 34.375H5.81764H6.05053L6.06701 34.1427C6.97908 21.2838 17.2838 10.9791 30.1427 10.067L30.3751 10.0505V9.81763V5.875C30.3751 4.97757 31.1026 4.25 32.0001 4.25C32.8975 4.25 33.6251 4.97757 33.6251 5.875V9.81763V10.0505L33.8574 10.067C46.7162 10.9789 57.021 21.2838 57.933 34.1427ZM33.6251 58.4211V58.6927L33.8957 58.6703C44.9314 57.7554 53.7555 48.9314 54.6704 37.8957L54.6928 37.625H54.4212H48.8751C47.9777 37.625 47.2501 36.8974 47.2501 36C47.2501 35.1026 47.9777 34.375 48.8751 34.375H54.4214H54.6929L54.6705 34.1043C53.7557 23.0686 44.9315 14.2444 33.8957 13.3296L33.6251 13.3072V13.5787V19.1249C33.6251 20.0223 32.8975 20.7499 32.0001 20.7499C31.1026 20.7499 30.3751 20.0223 30.3751 19.1249V13.5787V13.3072L30.1044 13.3296C19.0685 14.2444 10.2445 23.0686 9.32962 34.1043L9.30719 34.375H9.57877H15.1248C16.0222 34.375 16.7498 35.1026 16.7498 36C16.7498 36.8974 16.0222 37.625 15.1248 37.625H9.57877H9.30718L9.32962 37.8957C10.2446 48.9313 19.0686 57.7553 30.1044 58.6701L30.3751 58.6926V58.421V52.875C30.3751 51.9776 31.1026 51.25 32.0001 51.25C32.8975 51.25 33.6251 51.9776 33.6251 52.875V58.4211Z" fill="#DF2C65" stroke="white" stroke-width="0.5"/>
<g opacity="0.1">
<path d="M67.125 30.125H63.1824C62.2616 17.142 51.858 6.73838 38.8751 5.81763V1.875C38.8751 0.8395 38.0356 0 37.0001 0C35.9646 0 35.1251 0.8395 35.1251 1.875V5.81763C22.142 6.7385 11.7385 17.142 10.8176 30.125H6.875C5.8395 30.125 5 30.9645 5 32C5 33.0355 5.8395 33.875 6.875 33.875H10.8178C11.7385 46.8579 22.142 57.2614 35.1251 58.1823V62.125C35.1251 63.1605 35.9646 64 37.0001 64C38.0356 64 38.8751 63.1605 38.8751 62.125V58.1824C51.858 57.2614 62.2615 46.8579 63.1824 33.875H67.125C68.1605 33.875 69 33.0355 69 32C69 30.9645 68.1605 30.125 67.125 30.125ZM38.8751 54.4211V48.875C38.8751 47.8395 38.0356 47 37.0001 47C35.9646 47 35.1251 47.8395 35.1251 48.875V54.421C24.211 53.5163 15.4836 44.7889 14.5788 33.875H20.1248C21.1603 33.875 21.9998 33.0355 21.9998 32C21.9998 30.9645 21.1603 30.125 20.1248 30.125H14.5788C15.4835 19.211 24.2109 10.4835 35.1251 9.57875V15.1249C35.1251 16.1604 35.9646 16.9999 37.0001 16.9999C38.0356 16.9999 38.8751 16.1604 38.8751 15.1249V9.57875C49.7891 10.4835 58.5166 19.211 59.4214 30.125H53.8751C52.8396 30.125 52.0001 30.9645 52.0001 32C52.0001 33.0355 52.8396 33.875 53.8751 33.875H59.4212C58.5165 44.789 49.789 53.5164 38.8751 54.4211Z" fill="#DF2C65"/>
<path d="M46.6957 26.8368L41.4412 25.5508L38.5943 20.9508C38.2526 20.3985 37.6493 20.0625 36.9999 20.0625C36.3506 20.0625 35.7473 20.3985 35.4056 20.9508L32.5588 25.5508L27.3042 26.8368C26.6734 26.9911 26.1674 27.461 25.9667 28.0786C25.766 28.6962 25.8992 29.3737 26.3188 29.8695L29.8139 33.9984L29.4132 39.3932C29.365 40.0409 29.6554 40.6674 30.1809 41.0491C30.7064 41.4308 31.3918 41.5134 31.9929 41.2676L36.9998 39.2194L42.0068 41.2676C42.2357 41.3612 42.4767 41.4072 42.7166 41.4072C43.1067 41.4072 43.4935 41.2855 43.8188 41.0491C44.3442 40.6674 44.6347 40.041 44.5866 39.3932L44.1858 33.9985L47.681 29.8696C48.1006 29.374 48.2337 28.6965 48.0331 28.0788C47.8326 27.461 47.3266 26.9911 46.6957 26.8368ZM40.8282 32.1609C40.5106 32.536 40.3531 33.021 40.3894 33.5112L40.6226 36.6494L37.7098 35.4579C37.4823 35.3649 37.2411 35.3182 36.9999 35.3182C36.7588 35.3182 36.5176 35.3649 36.2899 35.4579L33.3774 36.6494L33.6106 33.5111C33.6469 33.0209 33.4894 32.536 33.1718 32.1608L31.1386 29.7589L34.1953 29.0107C34.6728 28.8939 35.0853 28.5942 35.3439 28.1763L37.0001 25.5004L38.6562 28.1763C38.9148 28.5942 39.3273 28.894 39.8048 29.0107L42.8615 29.7589L40.8282 32.1609Z" fill="#DF2C65"/>
<path fill-rule="evenodd" clip-rule="evenodd" d="M38.8751 54.4211V48.875C38.8751 47.8395 38.0356 47 37.0001 47C35.9646 47 35.1251 47.8395 35.1251 48.875V54.421C24.211 53.5163 15.4836 44.7889 14.5788 33.875H20.1248C21.1603 33.875 21.9998 33.0355 21.9998 32C21.9998 30.9645 21.1603 30.125 20.1248 30.125H14.5788C15.4835 19.211 24.2109 10.4835 35.1251 9.57875V15.1249C35.1251 16.1604 35.9646 16.9999 37.0001 16.9999C38.0356 16.9999 38.8751 16.1604 38.8751 15.1249V9.57875C49.7891 10.4835 58.5166 19.211 59.4214 30.125H53.8751C52.8396 30.125 52.0001 30.9645 52.0001 32C52.0001 33.0355 52.8396 33.875 53.8751 33.875H59.4212C58.5165 44.789 49.789 53.5164 38.8751 54.4211ZM41.4412 25.5508L46.6957 26.8368C47.3266 26.9911 47.8326 27.461 48.0331 28.0788C48.2337 28.6965 48.1006 29.374 47.681 29.8696L44.1858 33.9985L44.5866 39.3932C44.6347 40.041 44.3442 40.6674 43.8188 41.0491C43.4935 41.2855 43.1067 41.4072 42.7166 41.4072C42.4767 41.4072 42.2357 41.3612 42.0068 41.2676L36.9998 39.2194L31.9929 41.2676C31.3918 41.5134 30.7064 41.4308 30.1809 41.0491C29.6554 40.6674 29.365 40.0409 29.4132 39.3932L29.8139 33.9984L26.3188 29.8695C25.8992 29.3737 25.766 28.6962 25.9667 28.0786C26.1674 27.461 26.6734 26.9911 27.3042 26.8368L32.5588 25.5508L35.4056 20.9508C35.7473 20.3985 36.3506 20.0625 36.9999 20.0625C37.6493 20.0625 38.2526 20.3985 38.5943 20.9508L41.4412 25.5508Z" fill="#DF2C65"/>
<path d="M40.8282 32.1609C40.5106 32.536 40.3531 33.021 40.3894 33.5112L40.6226 36.6494L37.7098 35.4579C37.4823 35.3649 37.2411 35.3182 36.9999 35.3182C36.7588 35.3182 36.5176 35.3649 36.2899 35.4579L33.3774 36.6494L33.6106 33.5111C33.6469 33.0209 33.4894 32.536 33.1718 32.1608L31.1386 29.7589L34.1953 29.0107C34.6728 28.8939 35.0853 28.5942 35.3439 28.1763L37.0001 25.5004L38.6562 28.1763C38.9148 28.5942 39.3273 28.894 39.8048 29.0107L42.8615 29.7589L40.8282 32.1609Z" fill="#DF2C65"/>
</g>
</svg>
