<svg width="66" height="64" viewBox="0 0 66 64" fill="none" xmlns="http://www.w3.org/2000/svg">
<path d="M55 35H29V9C29 8.44775 28.5522 8 28 8C12.536 8 0 20.536 0 36C0 51.464 12.536 64 28 64C43.464 64 56 51.464 56 36C56 35.4478 55.5522 35 55 35ZM28 62C13.6406 62.0034 1.99725 50.3656 1.99375 36.0062C1.9905 22.0311 13.0351 10.5531 27 10.019V36C27 36.5522 27.4478 37 28 37H53.981C53.4269 50.9525 41.9635 61.9831 28 62Z" fill="#DF2C65"/>
<path d="M32 4C31.4478 4 31 4.44775 31 5V32C31 32.5522 31.4478 33 32 33H59C59.5522 33 60 32.5522 60 32C59.9824 16.5434 47.4566 4.01763 32 4ZM33 31V6.019C46.5667 6.55888 57.4411 17.4333 57.981 31H33Z" fill="#DF2C65"/>
<g opacity="0.1">
<path d="M61 31H35V5C35 4.44775 34.5522 4 34 4C18.536 4 6 16.536 6 32C6 47.464 18.536 60 34 60C49.464 60 62 47.464 62 32C62 31.4478 61.5522 31 61 31ZM34 58C19.6406 58.0034 7.99725 46.3656 7.99375 32.0062C7.9905 18.0311 19.0351 6.55312 33 6.019V32C33 32.5522 33.4478 33 34 33H59.981C59.4269 46.9525 47.9635 57.9831 34 58Z" fill="#DF2C65"/>
<path d="M38 0C37.4478 0 37 0.44775 37 1V28C37 28.5522 37.4478 29 38 29H65C65.5522 29 66 28.5522 66 28C65.9824 12.5434 53.4566 0.017625 38 0ZM39 27V2.019C52.5667 2.55888 63.4411 13.4333 63.981 27H39Z" fill="#DF2C65"/>
<path d="M39 27V2.019C52.5667 2.55888 63.4411 13.4333 63.981 27H39Z" fill="#DF2C65"/>
<path d="M34 58C19.6406 58.0034 7.99725 46.3656 7.99375 32.0062C7.9905 18.0311 19.0351 6.55312 33 6.019V32C33 32.5522 33.4478 33 34 33H59.981C59.4269 46.9525 47.9635 57.9831 34 58Z" fill="#DF2C65"/>
</g>
</svg>
