<svg width="57" height="56" viewBox="0 0 57 56" fill="none" xmlns="http://www.w3.org/2000/svg">
<path d="M19.4153 26.05L19.4807 25.9846L19.4517 25.8967C18.9091 24.2584 18.6344 22.5344 18.6344 20.7578C18.6344 11.6004 26.0848 4.15 35.2422 4.15C44.3996 4.15 51.85 11.6004 51.85 20.7578C51.85 29.9152 44.3996 37.3656 35.2422 37.3656C33.4673 37.3656 31.7451 37.0915 30.1085 36.55L30.0202 36.5208L29.9548 36.5869L11.2951 55.4426L11.4017 55.5481L11.2951 55.4426C11.0372 55.7033 10.6857 55.85 10.3189 55.85H1.52344C0.764937 55.85 0.15 55.2351 0.15 54.4766V45.6811C0.15 45.3169 0.294676 44.9675 0.552294 44.7101L0.552332 44.71L2.6241 42.6383L2.62414 42.6382C2.88158 42.3806 3.23086 42.2359 3.59521 42.2359H7.82031H7.97031V42.0859V38.064C7.97031 37.6997 8.11499 37.3503 8.37252 37.0929L8.26648 36.9868L8.37254 37.0929L10.4443 35.0211L10.4444 35.021C10.7018 34.7634 11.0511 34.6187 11.4154 34.6187H15.4374H15.5874V34.4688V30.4468C15.5874 30.0826 15.7322 29.7332 15.9897 29.4757L19.4153 26.05ZM9.68317 53.1031H9.74576L9.78979 53.0586L28.6901 33.9596C28.6902 33.9596 28.6902 33.9596 28.6902 33.9596C29.0796 33.5662 29.6673 33.4452 30.1804 33.652C31.7702 34.2937 33.4736 34.6187 35.2422 34.6187C42.8852 34.6187 49.1031 28.4009 49.1031 20.7578C49.1031 13.1148 42.8852 6.89687 35.2422 6.89687C27.5991 6.89687 21.3813 13.1148 21.3813 20.7578C21.3813 22.5264 21.7063 24.2297 22.3477 25.8194L22.4869 25.7633L22.3478 25.8195C22.5539 26.3304 22.4348 26.915 22.0452 27.3046L18.3783 30.9717L18.3344 31.0157V31.0778V35.9922C18.3344 36.7507 17.7194 37.3656 16.9609 37.3656H12.0465H11.9844L11.9405 37.4096L10.7611 38.5889L10.7172 38.6328V38.695V43.6094C10.7172 44.3679 10.1023 44.9828 9.34375 44.9828H4.22622H4.16409L4.12015 45.0267L2.94081 46.2061L2.89687 46.25V46.3122V52.9531V53.1031H3.04688H9.68317ZM30.8219 19.2344C30.8219 15.9571 33.4884 13.2906 36.7656 13.2906C40.0429 13.2906 42.7094 15.9571 42.7094 19.2344C42.7094 22.5116 40.0429 25.1781 36.7656 25.1781C33.4884 25.1781 30.8219 22.5116 30.8219 19.2344ZM33.5687 19.2344C33.5687 20.9973 35.0027 22.4312 36.7656 22.4312C38.5285 22.4312 39.9625 20.9973 39.9625 19.2344C39.9625 17.4715 38.5285 16.0375 36.7656 16.0375C35.0027 16.0375 33.5687 17.4715 33.5687 19.2344Z" fill="#DF2C65" stroke="white" stroke-width="0.3"/>
<g opacity="0.1">
<path d="M41.7656 9.14062C38.4055 9.14062 35.6719 11.8743 35.6719 15.2344C35.6719 18.5945 38.4055 21.3281 41.7656 21.3281C45.1257 21.3281 47.8594 18.5945 47.8594 15.2344C47.8594 11.8743 45.1257 9.14062 41.7656 9.14062ZM41.7656 18.2812C40.0856 18.2812 38.7188 16.9144 38.7188 15.2344C38.7188 13.5543 40.0856 12.1875 41.7656 12.1875C43.4457 12.1875 44.8125 13.5543 44.8125 15.2344C44.8125 16.9144 43.4457 18.2812 41.7656 18.2812ZM40.2422 0C31.0019 0 23.4844 7.51755 23.4844 16.7578C23.4844 18.55 23.7615 20.29 24.3093 21.9439L20.8837 25.3696C20.598 25.6553 20.4374 26.0428 20.4374 26.4468V30.4688H16.4154C16.0113 30.4688 15.6238 30.6292 15.3383 30.915L13.2665 32.9868C12.9808 33.2724 12.8203 33.6599 12.8203 34.064V38.0859H8.59521C8.19109 38.0859 7.80363 38.2464 7.51804 38.5322L5.44627 40.604C5.16047 40.8896 5 41.2771 5 41.6811V50.4766C5 51.3179 5.68209 52 6.52344 52H15.3189C15.7257 52 16.1156 51.8373 16.4017 51.5481L35.0614 32.6925C36.7136 33.2391 38.4517 33.5156 40.2422 33.5156C49.4824 33.5156 57 25.9981 57 16.7578C57 7.51755 49.4824 0 40.2422 0ZM40.2422 30.4688C38.4922 30.4688 36.808 30.1472 35.2366 29.5129C34.6674 29.2835 34.0156 29.4177 33.5835 29.8541L14.6832 48.9531H8.04688V42.3122L9.22622 41.1328H14.3438C15.1851 41.1328 15.8672 40.4507 15.8672 39.6094V34.695L17.0465 33.5156H21.9609C22.8023 33.5156 23.4844 32.8335 23.4844 31.9922V27.0778L27.1513 23.4107C27.5834 22.9785 27.7156 22.33 27.4869 21.7633C26.8528 20.1919 26.5312 18.5078 26.5312 16.7578C26.5312 9.1976 32.682 3.04688 40.2422 3.04688C47.8024 3.04688 53.9531 9.1976 53.9531 16.7578C53.9531 24.318 47.8024 30.4688 40.2422 30.4688Z" fill="#DF2C65"/>
<path fill-rule="evenodd" clip-rule="evenodd" d="M40.2422 30.4688C38.4922 30.4688 36.808 30.1472 35.2366 29.5129C34.6674 29.2835 34.0156 29.4177 33.5835 29.8541L14.6832 48.9531H8.04688V42.3122L9.22622 41.1328H14.3438C15.1851 41.1328 15.8672 40.4507 15.8672 39.6094V34.695L17.0465 33.5156H21.9609C22.8023 33.5156 23.4844 32.8335 23.4844 31.9922V27.0778L27.1513 23.4107C27.5834 22.9785 27.7156 22.33 27.4869 21.7633C26.8528 20.1919 26.5312 18.5078 26.5312 16.7578C26.5312 9.1976 32.682 3.04688 40.2422 3.04688C47.8024 3.04688 53.9531 9.1976 53.9531 16.7578C53.9531 24.318 47.8024 30.4688 40.2422 30.4688ZM35.6719 15.2344C35.6719 11.8743 38.4055 9.14062 41.7656 9.14062C45.1257 9.14062 47.8594 11.8743 47.8594 15.2344C47.8594 18.5945 45.1257 21.3281 41.7656 21.3281C38.4055 21.3281 35.6719 18.5945 35.6719 15.2344Z" fill="#DF2C65"/>
</g>
</svg>
