<svg width="58" height="64" viewBox="0 0 58 64" fill="none" xmlns="http://www.w3.org/2000/svg">
<path d="M44.3277 37.8878C41.2399 32.9068 40.8916 26.763 43.3933 21.453L50.9399 5.43202C50.9625 5.38503 50.9733 5.33499 50.9871 5.28601C50.9949 5.25906 51.0077 5.23304 51.0135 5.20503C51.0322 5.11609 51.0391 5.02503 51.0332 4.93503C51.0322 4.91406 51.0243 4.89402 51.0224 4.87398C51.0146 4.80296 50.9998 4.73195 50.9763 4.66398C50.9724 4.65402 50.9733 4.643 50.9694 4.63293C50.9605 4.61089 50.9449 4.5939 50.935 4.57293C50.9183 4.53789 50.9075 4.50097 50.8869 4.46687C50.8752 4.44789 50.8575 4.43289 50.8447 4.41484C50.8241 4.3859 50.8025 4.35988 50.7789 4.33281C50.7406 4.28887 50.6984 4.25078 50.6533 4.2148C50.6268 4.19383 50.6003 4.17285 50.5719 4.1548C50.5208 4.12176 50.4658 4.0968 50.4089 4.07477C50.3814 4.06375 50.3549 4.0498 50.3264 4.04078C50.2391 4.01605 50.1488 4 50.0556 4H2.94444C2.85117 4 2.76088 4.01605 2.67358 4.04195C2.64517 4.04992 2.6186 4.06398 2.59111 4.075C2.53418 4.09703 2.48023 4.12199 2.42813 4.15504C2.39972 4.17308 2.37315 4.19406 2.3467 4.21504C2.3015 4.25207 2.26032 4.29004 2.2211 4.3341C2.19856 4.36012 2.1759 4.38613 2.15531 4.41508C2.14254 4.43312 2.12587 4.44812 2.1131 4.46711C2.09251 4.50109 2.0817 4.53812 2.06502 4.57316C2.05525 4.59414 2.03949 4.61113 2.03063 4.63316C2.02672 4.64312 2.02764 4.65414 2.02373 4.66421C2.00015 4.73218 1.98543 4.8032 1.97657 4.87527C1.97358 4.89624 1.9668 4.91628 1.96576 4.93632C1.9599 5.02632 1.9668 5.11738 1.98543 5.20632C1.9913 5.23433 2.00406 5.25929 2.01188 5.2873C2.02661 5.33628 2.03742 5.38632 2.05904 5.43331L9.60567 21.4543C12.1074 26.7642 11.7581 32.9082 8.67035 37.8891C4.2821 44.968 1.96289 53.137 1.96289 61.512V63C1.96289 63.552 2.40156 64 2.94433 64H50.0554C50.5982 64 51.0369 63.552 51.0369 63V61.512C51.037 53.1367 48.7169 44.9678 44.3277 37.8878ZM47.5655 6.00003L44.9774 8.46107C42.6307 10.691 39.4635 11.7381 36.2727 11.3351C33.0877 10.929 30.265 9.11907 28.5288 6.36811L28.2982 6.00014H47.5655V6.00003ZM24.7019 6.00003L24.4713 6.36799C22.7351 9.11895 19.9124 10.929 16.7274 11.335C13.5416 11.741 10.3685 10.693 8.02269 8.46095L5.43446 6.00003H24.7019ZM10.332 38.9548C13.7829 33.3879 14.1726 26.5208 11.3753 20.5879L6.08327 9.35298L6.68193 9.92297C9.06394 12.188 12.1645 13.4199 15.3769 13.4199C15.9049 13.4199 16.4378 13.3869 16.9699 13.3189C20.7338 12.84 24.069 10.6999 26.1202 7.44893L26.5 6.84893L26.8789 7.44893C28.9302 10.6999 32.2652 12.8399 36.0292 13.3189C36.5611 13.3869 37.0931 13.4199 37.6222 13.4199C40.8346 13.4199 43.9361 12.188 46.3171 9.92297L46.9158 9.35298L41.6236 20.5879C38.8264 26.5219 39.218 33.3888 42.6679 38.9558C43.5571 40.3898 44.3374 41.8797 45.046 43.3997L35.7632 47.6557C29.8762 50.3557 23.1226 50.3557 17.2357 47.6557L7.95288 43.3997C8.66253 41.8798 9.44281 40.3898 10.332 38.9548ZM3.92589 61.9996V61.5117C3.92589 56.0347 4.98888 50.6588 6.9911 45.6367L21.36 61.9996H3.92589ZM29.0058 61.9996H23.9953L10.6873 46.8457L16.432 49.4797C22.8312 52.4137 30.1727 52.4147 36.57 49.4797L42.3147 46.8457L29.0058 61.9996ZM49.0741 61.9996H31.64L46.0099 45.6367C48.0111 50.6586 49.0741 56.0347 49.0741 61.5117V61.9996Z" fill="#DF2C65"/>
<path d="M27.4816 32.9999H25.5186V34.9999H27.4816V32.9999Z" fill="#DF2C65"/>
<path d="M8.54579 28.2928L5.60135 25.2928C5.21753 24.9019 4.59724 24.9019 4.21355 25.2928C3.82973 25.6839 3.82973 26.3159 4.21355 26.7068L5.48253 27.9999H0.981443C0.438676 27.9999 0 28.4479 0 28.9998C0 29.5518 0.438676 29.9998 0.981443 29.9998H5.48253L4.21355 31.2928C3.82973 31.6839 3.82973 32.3159 4.21355 32.7068C4.40494 32.9018 4.65625 32.9998 4.90745 32.9998C5.15864 32.9998 5.40996 32.9018 5.60135 32.7068L8.54579 29.7068C8.92949 29.3159 8.92949 28.6839 8.54579 28.2928Z" fill="#DF2C65"/>
<path d="M52.0186 27.9999H47.5175L48.7866 26.7068C49.1704 26.3158 49.1704 25.6838 48.7866 25.2928C48.4028 24.9019 47.7825 24.9019 47.3988 25.2928L44.4543 28.2928C44.0705 28.6839 44.0705 29.3159 44.4543 29.7068L47.3988 32.7068C47.5902 32.9018 47.8415 32.9998 48.0927 32.9998C48.344 32.9998 48.5952 32.9018 48.7866 32.7068C49.1704 32.3157 49.1704 31.6837 48.7866 31.2928L47.5175 29.9998H52.0186C52.5613 29.9998 53 29.5518 53 28.9998C53 28.4479 52.5613 27.9999 52.0186 27.9999Z" fill="#DF2C65"/>
<g opacity="0.1">
<path d="M49.3277 33.8878C46.2399 28.9068 45.8916 22.763 48.3933 17.453L55.9399 1.43202C55.9625 1.38503 55.9733 1.33499 55.9871 1.28601C55.9949 1.25906 56.0077 1.23304 56.0135 1.20503C56.0322 1.11609 56.0391 1.02503 56.0332 0.935034C56.0322 0.914057 56.0243 0.894018 56.0224 0.873979C56.0146 0.802964 55.9998 0.731949 55.9763 0.66398C55.9724 0.65402 55.9733 0.643004 55.9694 0.632926C55.9605 0.610895 55.9449 0.593903 55.935 0.572926C55.9183 0.537887 55.9075 0.500974 55.8869 0.466872C55.8752 0.447888 55.8575 0.432888 55.8447 0.414841C55.8241 0.385896 55.8025 0.359881 55.7789 0.332811C55.7406 0.288866 55.6984 0.25078 55.6533 0.214803C55.6268 0.193827 55.6003 0.172851 55.5719 0.154804C55.5208 0.121757 55.4658 0.0967963 55.4089 0.0747652C55.3814 0.0637496 55.3549 0.0498044 55.3264 0.040781C55.2391 0.0160546 55.1488 0 55.0556 0H7.94444C7.85117 0 7.76088 0.0160546 7.67358 0.0419529C7.64517 0.0499216 7.6186 0.063984 7.59111 0.0749996C7.53418 0.0970307 7.48023 0.121991 7.42813 0.155038C7.39972 0.173085 7.37315 0.194061 7.3467 0.215038C7.3015 0.252069 7.26032 0.290037 7.2211 0.3341C7.19856 0.360115 7.1759 0.386131 7.15531 0.415076C7.14254 0.433122 7.12587 0.448122 7.1131 0.467107C7.09251 0.501091 7.0817 0.538122 7.06502 0.573161C7.05525 0.594137 7.03949 0.611129 7.03063 0.63316C7.02672 0.643121 7.02764 0.654137 7.02373 0.664215C7.00015 0.732183 6.98543 0.803198 6.97657 0.875268C6.97358 0.896245 6.9668 0.916284 6.96576 0.936323C6.9599 1.02632 6.9668 1.11738 6.98543 1.20632C6.9913 1.23433 7.00406 1.25929 7.01188 1.2873C7.02661 1.33628 7.03742 1.38632 7.05904 1.43331L14.6057 17.4543C17.1074 22.7642 16.7581 28.9082 13.6704 33.8891C9.2821 40.968 6.96289 49.137 6.96289 57.512V59C6.96289 59.552 7.40156 60 7.94433 60H55.0554C55.5982 60 56.0369 59.552 56.0369 59V57.512C56.037 49.1367 53.7169 40.9678 49.3277 33.8878ZM52.5655 2.00003L49.9774 4.46107C47.6307 6.69102 44.4635 7.73808 41.2727 7.33507C38.0877 6.92902 35.265 5.11907 33.5288 2.36811L33.2982 2.00014L52.5655 2.00003ZM29.7019 2.00003L29.4713 2.36799C27.7351 5.11895 24.9124 6.92902 21.7274 7.33496C18.5416 7.74101 15.3685 6.69301 13.0227 4.46095L10.4345 2.00003H29.7019ZM15.332 34.9548C18.7829 29.3879 19.1726 22.5208 16.3753 16.5879L11.0833 5.35298L11.6819 5.92297C14.0639 8.18796 17.1645 9.41994 20.3769 9.41994C20.9049 9.41994 21.4378 9.3869 21.9699 9.31893C25.7338 8.83999 29.069 6.69992 31.1202 3.44893L31.5 2.84893L31.8789 3.44893C33.9302 6.69992 37.2653 8.83987 41.0292 9.31893C41.5611 9.3869 42.0931 9.41994 42.6222 9.41994C45.8346 9.41994 48.9361 8.18796 51.3171 5.92297L51.9158 5.35298L46.6236 16.5879C43.8264 22.5219 44.218 29.3888 47.6679 34.9558C48.5571 36.3898 49.3374 37.8797 50.046 39.3997L40.7632 43.6557C34.8762 46.3557 28.1226 46.3557 22.2357 43.6557L12.9529 39.3997C13.6625 37.8798 14.4428 36.3898 15.332 34.9548ZM8.92589 57.9996V57.5117C8.92589 52.0347 9.98888 46.6588 11.9911 41.6367L26.36 57.9996H8.92589ZM34.0058 57.9996H28.9953L15.6873 42.8457L21.432 45.4797C27.8312 48.4137 35.1727 48.4147 41.57 45.4797L47.3147 42.8457L34.0058 57.9996ZM54.0741 57.9996H36.64L51.0099 41.6367C53.0111 46.6586 54.0741 52.0347 54.0741 57.5117V57.9996Z" fill="#DF2C65"/>
<path d="M32.4816 28.9999H30.5186V30.9999H32.4816V28.9999Z" fill="#DF2C65"/>
<path d="M13.5458 24.2928L10.6013 21.2928C10.2175 20.9019 9.59724 20.9019 9.21355 21.2928C8.82973 21.6839 8.82973 22.3159 9.21355 22.7068L10.4825 23.9999H5.98144C5.43868 23.9999 5 24.4479 5 24.9998C5 25.5518 5.43868 25.9998 5.98144 25.9998H10.4825L9.21355 27.2928C8.82973 27.6839 8.82973 28.3158 9.21355 28.7068C9.40494 28.9018 9.65625 28.9998 9.90745 28.9998C10.1586 28.9998 10.41 28.9018 10.6013 28.7068L13.5458 25.7068C13.9295 25.3159 13.9295 24.6839 13.5458 24.2928Z" fill="#DF2C65"/>
<path d="M57.0186 23.9999H52.5175L53.7866 22.7068C54.1704 22.3158 54.1704 21.6838 53.7866 21.2928C53.4028 20.9019 52.7825 20.9019 52.3988 21.2928L49.4543 24.2928C49.0705 24.6839 49.0705 25.3159 49.4543 25.7068L52.3988 28.7068C52.5902 28.9018 52.8415 28.9998 53.0927 28.9998C53.344 28.9998 53.5952 28.9018 53.7866 28.7068C54.1704 28.3157 54.1704 27.6837 53.7866 27.2928L52.5175 25.9998H57.0186C57.5613 25.9998 58 25.5518 58 24.9998C58 24.4479 57.5613 23.9999 57.0186 23.9999Z" fill="#DF2C65"/>
<path d="M29.7019 2.00003L29.4713 2.36799C27.7351 5.11895 24.9124 6.92902 21.7274 7.33496C18.5416 7.74101 15.3685 6.69301 13.0227 4.46095L10.4345 2.00003H29.7019Z" fill="#DF2C65"/>
<path d="M52.5655 2.00003L49.9774 4.46107C47.6307 6.69102 44.4635 7.73808 41.2727 7.33507C38.0877 6.92902 35.265 5.11907 33.5288 2.36811L33.2982 2.00014L52.5655 2.00003Z" fill="#DF2C65"/>
<path fill-rule="evenodd" clip-rule="evenodd" d="M15.332 34.9548C18.7829 29.3879 19.1726 22.5208 16.3753 16.5879L11.0833 5.35298L11.6819 5.92297C14.0639 8.18796 17.1645 9.41994 20.3769 9.41994C20.9049 9.41994 21.4378 9.3869 21.9699 9.31893C25.7338 8.83999 29.069 6.69992 31.1202 3.44893L31.5 2.84893L31.8789 3.44893C33.9302 6.69992 37.2653 8.83987 41.0292 9.31893C41.5611 9.3869 42.0931 9.41994 42.6222 9.41994C45.8346 9.41994 48.9361 8.18796 51.3171 5.92297L51.9158 5.35298L46.6236 16.5879C43.8264 22.5219 44.218 29.3888 47.6679 34.9558C48.5571 36.3898 49.3374 37.8797 50.046 39.3997L40.7632 43.6557C34.8762 46.3557 28.1226 46.3557 22.2357 43.6557L12.9529 39.3997C13.6625 37.8798 14.4428 36.3898 15.332 34.9548ZM32.4816 28.9999H30.5186V30.9999H32.4816V28.9999Z" fill="#DF2C65"/>
<path d="M34.0058 57.9996H28.9953L15.6873 42.8457L21.432 45.4797C27.8312 48.4137 35.1727 48.4147 41.57 45.4797L47.3147 42.8457L34.0058 57.9996Z" fill="#DF2C65"/>
<path d="M8.92589 57.9996V57.5117C8.92589 52.0347 9.98888 46.6588 11.9911 41.6367L26.36 57.9996H8.92589Z" fill="#DF2C65"/>
<path d="M54.0741 57.9996H36.64L51.0099 41.6367C53.0111 46.6586 54.0741 52.0347 54.0741 57.5117V57.9996Z" fill="#DF2C65"/>
</g>
</svg>
