<svg width="62" height="63" viewBox="0 0 62 63" fill="none" xmlns="http://www.w3.org/2000/svg">
<path d="M28.8386 15.3154L34.9037 11.2084L36.2255 13.1611L32.9727 15.364L32.8377 15.4554H32.9996C39.2373 16.6651 44.4086 21.0097 46.6758 26.9457C50.2933 36.4169 45.5617 47.0254 36.1062 50.666L35.2642 48.4609C40.6166 46.401 44.4609 41.6358 45.3404 35.9661C46.6967 27.2234 40.7088 19.0366 31.9661 17.6804L31.8526 17.6628L31.917 17.7579L34.5845 21.6953L32.6318 23.0171L28.524 16.9535L28.5238 16.9532L28.5237 16.9532L28.5235 16.9529C28.1584 16.4137 28.2993 15.6806 28.8386 15.3154ZM30.1687 51.6837L24.1366 55.8346L22.7981 53.8925L26.0659 51.642L26.1644 51.5742L26.047 51.5517C19.8078 50.3568 14.6274 46.0262 12.3454 40.0978C8.70331 30.6359 13.4074 20.0152 22.8535 16.3503L23.7002 18.5518C18.3768 20.6163 14.5532 25.3591 13.6667 31.002C12.2936 39.7428 18.2661 47.9416 27.0069 49.3147L27.1218 49.3328L27.0558 49.237L24.3739 45.3448L26.3159 44.0065L30.4716 50.0446C30.4716 50.0446 30.4716 50.0447 30.4716 50.0447C30.8403 50.581 30.7046 51.3146 30.1687 51.6837ZM0.05 33.5C0.05 17.2352 13.2352 4.05002 29.5 4.05C45.757 4.069 58.931 17.2431 58.95 33.5C58.95 49.7648 45.7648 62.95 29.5 62.95C13.2352 62.95 0.05 49.7648 0.05 33.5ZM2.40829 33.5C2.40829 48.4623 14.5377 60.5917 29.5 60.5917C44.4553 60.5747 56.5747 48.4553 56.5917 33.5001C56.5917 18.5377 44.4623 6.40829 29.5 6.40829C14.5377 6.40829 2.40829 18.5377 2.40829 33.5Z" fill="#DF2C65" stroke="white" stroke-width="0.1"/>
<g opacity="0.1">
<path d="M32.5 0C16.2076 0 3 13.2076 3 29.5C3 45.7924 16.2076 59 32.5 59C48.7924 59 62 45.7924 62 29.5C61.981 13.2154 48.7846 0.0190137 32.5 0ZM32.5 56.5417C17.5653 56.5417 5.45829 44.4347 5.45829 29.5C5.45829 14.5653 17.5653 2.45829 32.5 2.45829C47.4347 2.45829 59.5417 14.5653 59.5417 29.5C59.5248 44.4277 47.4277 56.5248 32.5 56.5417Z" fill="#DF2C65"/>
<path d="M49.7225 22.9278C47.4486 16.9743 42.2612 12.6171 36.0044 11.4054H36.0007L39.2949 9.1745L37.9171 7.139L31.8106 11.274C31.2484 11.6547 31.1015 12.4189 31.4821 12.9809L35.6185 19.0865L37.654 17.7086L34.9584 13.7298C43.6738 15.0818 49.6431 23.243 48.291 31.9584C47.4117 37.6269 43.5596 42.3884 38.1997 44.4321L39.0773 46.7307C48.5897 43.0972 53.3558 32.4404 49.7225 22.9278Z" fill="#DF2C65"/>
<path d="M33.5128 46.0163L29.3287 39.9369L27.3043 41.332L30.0146 45.2653C21.3012 43.8965 15.3472 35.7232 16.7161 27.0098C17.6024 21.368 21.4338 16.6289 26.7648 14.5805L25.8822 12.2856C16.3792 15.9435 11.6407 26.6126 15.2987 36.1157C17.5869 42.0603 22.7815 46.4027 29.0376 47.6008L25.7286 49.8797L27.1237 51.9041L33.1971 47.7249C33.7557 47.3401 33.8971 46.5754 33.5128 46.0163Z" fill="#DF2C65"/>
<path fill-rule="evenodd" clip-rule="evenodd" d="M32.5 56.5417C17.5653 56.5417 5.45829 44.4347 5.45829 29.5C5.45829 14.5653 17.5653 2.45829 32.5 2.45829C47.4347 2.45829 59.5417 14.5653 59.5417 29.5C59.5248 44.4277 47.4277 56.5248 32.5 56.5417ZM36.0044 11.4054C42.2612 12.6171 47.4486 16.9743 49.7225 22.9278C53.3558 32.4404 48.5897 43.0972 39.0773 46.7307L38.1997 44.4321C43.5596 42.3884 47.4117 37.6269 48.291 31.9584C49.6431 23.243 43.6738 15.0818 34.9584 13.7298L37.654 17.7086L35.6185 19.0865L31.4821 12.9809C31.1015 12.4189 31.2484 11.6547 31.8106 11.274L37.9171 7.139L39.2949 9.1745L36.0007 11.4054H36.0044ZM29.3287 39.9369L33.5128 46.0163C33.8971 46.5754 33.7557 47.3401 33.1971 47.7249L27.1237 51.9041L25.7286 49.8797L29.0376 47.6008C22.7815 46.4027 17.5869 42.0603 15.2987 36.1157C11.6407 26.6126 16.3792 15.9435 25.8822 12.2856L26.7648 14.5805C21.4338 16.6289 17.6024 21.368 16.7161 27.0098C15.3472 35.7232 21.3012 43.8965 30.0146 45.2653L27.3043 41.332L29.3287 39.9369Z" fill="#DF2C65"/>
</g>
</svg>
