<svg width="67" height="65" viewBox="0 0 67 65" fill="none" xmlns="http://www.w3.org/2000/svg">
<path d="M31.8738 32.4671V32.9171H32.3238H41.6189C42.6552 32.9171 43.4927 33.7564 43.4927 34.7909C43.4927 35.8254 42.6552 36.6648 41.6189 36.6648H32.3238H31.8738V37.1148V46.4098C31.8738 47.4443 31.0363 48.2837 30 48.2837C28.9637 48.2837 28.1262 47.4443 28.1262 46.4098V37.1148V36.6648H27.6762H18.3811C17.3448 36.6648 16.5073 35.8254 16.5073 34.7909C16.5073 33.7564 17.3448 32.9171 18.3811 32.9171H27.6762H28.1262V32.4671V23.172C28.1262 22.1375 28.9637 21.2982 30 21.2982C31.0363 21.2982 31.8738 22.1375 31.8738 23.172V32.4671ZM0.45 35C0.45 18.7055 13.7055 5.45 30 5.45C46.2945 5.45 59.55 18.7078 59.55 35C59.55 51.2922 46.2945 64.55 30 64.55C13.7055 64.55 0.45 51.2945 0.45 35ZM4.19754 35C4.19754 49.2284 15.774 60.8025 30 60.8025C44.2284 60.8025 55.8025 49.2284 55.8025 35C55.8025 20.7716 44.226 9.19754 30 9.19754C15.774 9.19754 4.19754 20.7716 4.19754 35Z" fill="#DF2C65" stroke="white" stroke-width="0.9"/>
<g opacity="0.1">
<path d="M37 0C20.457 0 7 13.457 7 30C7 46.543 20.457 60 37 60C53.543 60 67 46.5407 67 30C67 13.4593 53.543 0 37 0ZM37 55.3525C23.0225 55.3525 11.6475 43.9799 11.6475 30C11.6475 16.0201 23.0225 4.64754 37 4.64754C50.9775 4.64754 62.3525 16.0201 62.3525 30C62.3525 43.9799 50.9799 55.3525 37 55.3525Z" fill="#DF2C65"/>
<path d="M48.6189 27.4671H39.3238V18.172C39.3238 16.8893 38.2851 15.8482 37 15.8482C35.7149 15.8482 34.6762 16.8893 34.6762 18.172V27.4671H25.3811C24.096 27.4671 23.0573 28.5082 23.0573 29.7909C23.0573 31.0737 24.096 32.1148 25.3811 32.1148H34.6762V41.4098C34.6762 42.6926 35.7149 43.7337 37 43.7337C38.2851 43.7337 39.3238 42.6926 39.3238 41.4098V32.1148H48.6189C49.904 32.1148 50.9427 31.0737 50.9427 29.7909C50.9427 28.5082 49.904 27.4671 48.6189 27.4671Z" fill="#DF2C65"/>
<path fill-rule="evenodd" clip-rule="evenodd" d="M37 55.3525C23.0225 55.3525 11.6475 43.9799 11.6475 30C11.6475 16.0201 23.0225 4.64754 37 4.64754C50.9775 4.64754 62.3525 16.0201 62.3525 30C62.3525 43.9799 50.9799 55.3525 37 55.3525ZM39.3238 27.4671H48.6189C49.904 27.4671 50.9427 28.5082 50.9427 29.7909C50.9427 31.0737 49.904 32.1148 48.6189 32.1148H39.3238V41.4098C39.3238 42.6926 38.2851 43.7337 37 43.7337C35.7149 43.7337 34.6762 42.6926 34.6762 41.4098V32.1148H25.3811C24.096 32.1148 23.0573 31.0737 23.0573 29.7909C23.0573 28.5082 24.096 27.4671 25.3811 27.4671H34.6762V18.172C34.6762 16.8893 35.7149 15.8482 37 15.8482C38.2851 15.8482 39.3238 16.8893 39.3238 18.172V27.4671Z" fill="#DF2C65"/>
</g>
</svg>
