<svg width="730" height="704" viewBox="0 0 730 704" fill="none" xmlns="http://www.w3.org/2000/svg">
<g opacity="0.2">
<path d="M15.027 -56.8917C-7.6461 -128.909 -14.6257 -173.604 67.3925 -243C344.572 -228.91 918.238 -195.306 995.461 -173.604C1091.99 -146.476 1062.97 146.881 1047.83 184.103C1032.68 221.324 951.297 307.754 916.597 335.513C809.186 293.305 740.829 275.039 661.824 335.513C601.96 381.336 592.424 426.99 579.806 510.265C544.602 475.547 536.789 399.862 539.313 384.721C541.332 372.608 71.178 197.351 111.04 148.774C150.902 100.196 143.217 71.1761 136.277 53.5115C113.469 -4.54092 33.7572 2.60143 15.027 -56.8917Z" fill="#F6E3FF"/>
<path d="M431.337 225.792C385.439 203.635 344.509 172.533 300.077 147.576C273.136 132.447 244.298 119.401 213.565 116.07C172.331 111.603 128.544 126.505 101.603 157.985C74.6607 189.453 67.1417 237.412 86.6404 273.953C113.582 324.473 190.617 386.173 137.883 448.44C105.381 486.81 32.2007 484.88 33.515 548.598C34.0205 572.988 45.9371 595.699 59.9514 615.685C79.1468 643.04 103.195 667.506 132.386 683.807C178.056 709.307 227.744 702.393 277.912 702.368C339.542 702.33 401.16 702.292 462.79 702.254C479.104 702.242 495.823 702.166 511.113 696.475C522.297 692.312 532.343 685.183 539.963 676.022C553.396 659.872 558.653 638.637 562.988 618.095C577.646 548.522 586.05 477.814 594.416 407.219C597.764 379.019 630.266 257.411 594.542 244.781C584.799 241.336 570.519 248.793 560.839 250.383C546.307 252.768 531.471 252.907 516.838 251.468C487.078 248.516 458.139 238.737 431.337 225.792Z" fill="#F6E3FF"/>
</g>
<path d="M83.4142 15.6767C64.6833 -43.7907 58.9173 -80.6968 126.675 -138C355.661 -126.366 829.582 -98.6171 893.378 -80.6968C973.123 -58.2965 949.148 183.94 936.639 214.675C924.13 245.41 856.893 316.779 828.227 339.7C739.491 304.847 683.02 289.764 617.752 339.7C568.296 377.538 560.418 415.236 549.994 484C520.911 455.331 514.457 392.836 516.542 380.333C518.209 370.331 129.802 225.615 162.733 185.503C195.665 145.39 189.315 121.427 183.582 106.841C164.74 58.9048 98.8877 64.8025 83.4142 15.6767Z" fill="#F6E3FF"/>
<path d="M427.098 249.442C389.192 231.142 355.388 205.454 318.693 184.841C296.442 172.346 272.626 161.571 247.244 158.819C213.189 155.13 177.026 167.438 154.776 193.438C132.525 219.429 126.315 259.04 142.419 289.219C164.67 330.946 228.291 381.905 184.739 433.333C157.896 465.024 97.4579 463.43 98.5433 516.057C98.9608 536.201 108.802 554.959 120.377 571.466C136.23 594.059 156.091 614.266 180.199 627.73C217.917 648.791 258.954 643.08 300.387 643.059C351.286 643.028 402.175 642.997 453.074 642.965C466.548 642.955 480.355 642.892 492.984 638.193C502.22 634.754 510.517 628.866 516.81 621.3C527.905 607.961 532.246 590.422 535.826 573.456C547.932 515.994 554.873 457.594 561.782 399.288C564.547 375.996 591.39 275.557 561.886 265.126C553.839 262.281 542.046 268.44 534.052 269.753C522.05 271.722 509.797 271.837 497.711 270.649C473.133 268.21 449.234 260.134 427.098 249.442Z" fill="#F6E3FF"/>
</svg>
