<svg width="1140" height="947" viewBox="0 0 1140 947" fill="none" xmlns="http://www.w3.org/2000/svg">
<g opacity="0.2">
<path d="M15.027 186.108C-7.6461 114.091 -14.6257 69.3963 67.3925 0C344.572 14.0896 892 40.3206 995.461 69.3963C1124 105.52 1162 296.512 1124 400.985C1090.35 493.503 1038 583 916.597 578.513C766 549 740.829 518.039 661.824 578.513C601.96 624.336 592.424 669.99 579.806 753.265C544.602 718.547 536.789 642.862 539.313 627.721C541.332 615.608 71.178 440.351 111.04 391.774C150.902 343.196 143.217 314.176 136.277 296.512C113.469 238.459 33.7572 245.601 15.027 186.108Z" fill="#F6E3FF"/>
<path d="M431.337 468.792C385.439 446.635 344.509 415.533 300.077 390.576C273.136 375.447 244.298 362.401 213.565 359.07C172.331 354.603 128.544 369.505 101.603 400.985C74.6607 432.453 67.1417 480.412 86.6404 516.953C113.582 567.473 190.617 629.173 137.883 691.44C105.381 729.81 32.2007 727.88 33.515 791.598C34.0205 815.988 45.9371 838.699 59.9514 858.685C79.1468 886.04 103.195 910.506 132.386 926.807C178.056 952.307 227.744 945.393 277.912 945.368C339.542 945.33 401.16 945.292 462.79 945.254C479.104 945.242 495.823 945.166 511.113 939.475C522.297 935.312 532.343 928.183 539.963 919.022C553.396 902.872 558.653 881.637 562.988 861.095C577.646 791.522 586.05 720.814 594.416 650.219C597.764 622.019 630.266 500.411 594.542 487.781C584.799 484.336 570.519 491.793 560.839 493.383C546.307 495.768 531.471 495.907 516.838 494.468C487.078 491.516 458.139 481.737 431.337 468.792Z" fill="#F6E3FF"/>
</g>
<path d="M81.9996 261C77.6676 244.368 83.4138 243 83.4138 243C83.4138 243 1070.23 242.996 1135 242.999C1148 243 1135 281.001 1101 450C1063.18 638.001 893.378 608.29 828.226 582.7C748 551.19 683.019 532.765 617.751 582.7C568.295 620.539 560.418 658.236 549.994 727C520.91 698.332 514.456 635.836 516.541 623.334C518.209 613.332 129.802 468.615 162.733 428.503C195.664 388.391 189.315 364.428 183.581 349.841C164.739 301.905 97.4731 310.126 81.9996 261Z" fill="#F6E3FF"/>
<path d="M427.098 492.442C389.192 474.142 355.388 448.454 318.693 427.841C296.442 415.346 272.626 404.571 247.244 401.819C213.189 398.13 177.026 410.438 154.776 436.438C132.525 462.429 126.315 502.04 142.419 532.219C164.67 573.946 228.291 624.905 184.739 676.333C157.896 708.024 97.4579 706.43 98.5433 759.057C98.9608 779.201 108.802 797.959 120.377 814.466C136.23 837.059 156.091 857.266 180.199 870.73C217.917 891.791 258.954 886.08 300.387 886.059C351.286 886.028 402.175 885.997 453.074 885.965C466.548 885.955 480.355 885.892 492.984 881.193C502.22 877.754 510.517 871.866 516.81 864.3C527.905 850.961 532.246 833.422 535.826 816.456C547.932 758.994 554.873 700.594 561.782 642.288C564.547 618.996 591.39 518.557 561.886 508.126C553.839 505.281 542.046 511.44 534.052 512.753C522.05 514.722 509.797 514.837 497.711 513.649C473.133 511.21 449.234 503.134 427.098 492.442Z" fill="#F6E3FF"/>
</svg>
