<svg width="559" height="598" viewBox="0 0 559 598" fill="none" xmlns="http://www.w3.org/2000/svg">
<path d="M387.658 143.542C343.981 122.457 305.03 92.8572 262.748 69.1057C237.11 54.7083 209.667 42.2922 180.421 39.1222C141.181 34.8714 99.5124 49.0526 73.8738 79.0122C48.2352 108.96 41.08 154.601 59.6355 189.376C85.2741 237.456 158.582 296.174 108.399 355.433C77.4695 391.948 7.82914 390.111 9.0798 450.751C9.56083 473.962 20.901 495.576 34.2374 514.596C52.5043 540.629 75.3891 563.913 103.168 579.427C146.629 603.695 193.914 597.114 241.655 597.09C300.304 597.054 358.941 597.018 417.59 596.982C433.115 596.97 449.025 596.898 463.576 591.483C474.219 587.52 483.779 580.736 491.03 572.018C503.814 556.648 508.816 536.439 512.941 516.89C526.891 450.679 534.888 383.387 542.849 316.203C546.036 289.365 576.965 173.634 542.969 161.614C533.697 158.336 520.108 165.433 510.897 166.946C497.067 169.215 482.949 169.347 469.024 167.978C440.703 165.168 413.165 155.862 387.658 143.542Z" fill="#F6E3FF"/>
<path d="M113.894 297.699C105.741 285.715 100.317 270.993 88.3039 262.084C79.1524 255.311 66.5135 254.795 56.436 259.802C51.2289 262.384 46.8636 266.358 43.8692 271.342C40.6944 276.625 39.4678 283.83 34.1044 287.528C29.9796 292.559 22.6801 293.196 17.1483 295.922C11.9412 298.491 7.61199 302.514 4.60558 307.485C-1.21482 317.115 -1.7319 329.724 4.2809 339.39C12.1938 352.082 26.4321 358.675 37.7362 367.765C53.2492 380.253 38.5419 397.412 52.6239 413.142C66.7059 428.872 88.2798 419.062 106.318 424.021C124.357 428.981 123.599 445.119 134.206 457.415C155.347 479.041 184.497 450.523 184.497 450.523C184.497 450.523 215.355 423.841 195.488 401.038C184.076 389.475 167.913 388.91 164.438 370.562C160.963 352.202 172.507 331.537 157.956 316.239C143.417 300.917 125.09 314.15 113.894 297.699Z" fill="url(#paint0_linear)"/>
<path d="M226.491 476.759L226.418 476.711C208.633 465.712 191.953 452.647 175.875 438.898L170.608 434.251C170.968 433.579 171.341 432.894 171.69 432.222C173.999 427.707 176.284 423.72 179.663 420.946C183.018 418.125 187.395 416.576 192.001 414.69C194.298 413.742 196.667 412.745 198.964 411.532C199.637 411.184 200.311 410.824 200.984 410.44C200.443 408.783 199.722 407.137 198.76 405.492C195.861 406.693 192.831 407.726 189.728 408.867C187.383 409.755 184.966 410.692 182.597 412.001C180.24 413.285 177.907 414.882 175.911 416.876C173.915 418.857 172.279 421.187 171.161 423.672C170.006 426.122 169.393 428.655 168.708 431.057C168.599 431.465 168.455 431.85 168.347 432.246L163.969 428.379L152.353 417.5C152.341 417.488 152.329 417.476 152.317 417.464C153.712 415.951 154.782 414.138 155.552 412.313C156.646 409.767 157.343 407.185 157.909 404.796C158.51 402.406 158.907 400.149 159.664 398.396C160.41 396.607 161.36 395.478 162.55 394.685C163.693 393.845 165.136 393.388 167.18 393.004C169.189 392.608 171.654 392.404 174.348 391.863C175.694 391.599 177.113 391.239 178.532 390.687C178.989 390.507 179.422 390.29 179.855 390.086C176.608 388.129 173.53 386.1 170.956 383.458C169.357 383.482 167.637 383.518 165.737 383.758C164.306 383.95 162.779 384.275 161.228 384.863C159.676 385.451 158.113 386.328 156.814 387.493C156.477 387.769 156.141 388.045 155.828 388.333L154.974 389.342L154.157 390.363C153.892 390.711 153.724 391.095 153.507 391.455C152.629 392.92 152.124 394.457 151.727 395.91C150.224 401.782 151.246 406.597 150.898 411.052C150.777 412.493 150.441 413.886 149.815 415.111C146.809 412.253 143.851 409.335 140.904 406.417C137.489 403.007 134.026 399.645 130.671 396.174C132.571 394.601 134.314 392.716 135.613 390.591C137.2 388.081 138.295 385.391 139.293 382.798C141.253 377.61 142.961 372.639 145.847 369.145C147.254 367.379 149.046 366.023 151.222 364.762C153.399 363.537 155.852 362.492 158.365 361.34C160.193 360.499 162.069 359.61 163.873 358.506C163.945 357.233 164.042 355.948 164.162 354.663C161.853 355.648 159.328 356.296 156.79 357.005C154.169 357.725 151.439 358.482 148.709 359.67C145.991 360.811 143.189 362.636 141.085 365.086C138.98 367.512 137.561 370.297 136.551 373.023C135.529 375.749 134.795 378.439 134.05 381.02C132.631 385.727 131.152 390.038 128.229 393.641L118.585 383.65L111.538 376.073C113.51 373.347 115.109 370.381 116.492 367.343C120.292 358.998 121.904 350.352 125.403 343.364C127.171 339.882 129.408 337.06 132.27 334.862C135.132 332.653 138.583 330.972 142.347 329.519C146.111 328.054 150.176 326.805 154.337 325.4C156.441 324.692 158.498 323.971 160.686 323.071C161.24 322.83 161.793 322.554 162.334 322.302C161.24 320.189 159.821 318.159 157.957 316.202C157.824 316.07 157.692 315.95 157.56 315.818C155.756 316.31 153.904 316.754 151.968 317.211C147.783 318.183 143.454 319.204 139.064 320.741C134.711 322.302 130.238 324.451 126.389 327.79C124.453 329.411 122.746 331.392 121.315 333.445C119.884 335.523 118.753 337.732 117.827 339.942C115.987 344.384 114.941 348.839 114.195 353.174C113.811 355.336 113.486 357.485 113.161 359.598C112.837 361.676 112.44 363.741 111.935 365.758C111.249 368.424 110.359 371.066 109.121 373.503L107.702 371.978C104.046 368.112 100.558 364.089 96.9867 360.151C94.2449 357.137 91.5632 354.063 88.8815 350.989C91.2866 349.308 93.367 347.122 94.9664 344.661C98.8026 338.777 100.282 332.1 102.663 326.445C103.889 323.611 105.248 321.041 107.233 318.976C109.205 316.887 111.43 314.953 114.027 313.284C117.731 310.775 121.868 308.613 126.017 306.176C123.732 305.599 121.543 304.747 119.487 303.378C116.516 304.747 113.534 306.236 110.612 308.049C107.677 309.862 104.876 312.203 102.567 315.013C100.149 317.811 98.6102 321.233 97.4918 324.463C96.3614 327.73 95.6038 330.96 94.8582 334.094C94.1006 337.228 93.4151 340.302 92.1525 343.1C91.0822 345.513 89.5429 347.723 87.4865 349.392C87.1257 348.983 86.765 348.575 86.4042 348.167C79.7781 340.554 73.2361 332.881 66.7784 325.124C67.0069 324.908 67.2594 324.704 67.4879 324.475C70.1215 321.75 72.226 318.484 73.6811 315.145C75.1963 311.807 76.1704 308.409 77.1926 305.179C78.2027 301.949 79.2369 298.851 80.4636 296.053C81.7142 293.351 83.2415 290.745 84.9972 288.26C88.5327 283.289 93.0424 278.81 98.2735 275.183C98.7184 274.871 99.1874 274.571 99.6444 274.259C98.3577 272.398 96.9867 270.596 95.5196 268.891C95.3272 268.975 95.1348 269.035 94.9424 269.131C91.5752 270.62 88.3283 272.458 85.4181 274.775C82.4959 277.069 79.754 279.662 77.4692 282.676C75.1963 285.69 73.2722 289.028 71.9254 292.655C70.6386 296.209 69.881 299.727 69.1715 303.09C68.474 306.464 67.7885 309.694 67.043 312.804C66.2493 315.878 65.3473 318.832 63.76 321.45C59.8035 316.658 55.8952 311.831 52.0229 306.98C54.2838 304.374 56.0756 301.348 57.3383 298.238C58.7092 294.936 59.6592 291.574 60.6213 288.308C61.5954 285.054 62.5574 281.884 63.796 278.954C65.0828 276.108 66.6581 273.37 68.5101 270.8C71.9855 265.997 76.3868 261.759 81.4136 258.36C79.261 257.556 77.0122 256.991 74.7273 256.703C73.4766 257.52 72.2621 258.384 71.1076 259.321C68.2936 261.59 65.672 264.136 63.4713 267.078C61.2827 270.008 59.4187 273.226 58.1079 276.696C56.8332 280.131 56.0154 283.565 55.2578 286.915C54.5002 290.265 53.7907 293.531 52.9008 296.677C52.1312 299.331 51.1932 301.901 49.8463 304.242C48.4634 302.489 47.0443 300.748 45.6734 298.983L45.6614 298.971C45.4209 298.659 44.976 298.599 44.6513 298.827C44.3266 299.067 44.2544 299.523 44.4829 299.847C45.926 301.841 47.4051 303.81 48.8602 305.803C47.1165 308.301 44.7955 310.486 41.9575 311.855C39.0112 313.296 35.7042 314.029 32.349 314.389C28.9819 314.725 25.5546 314.761 22.0311 315.061C18.5316 315.362 14.8398 316.022 11.4245 317.727C8.02123 319.42 5.13508 321.966 2.88629 324.896C1.93626 326.097 1.11851 327.381 0.360901 328.69C0.721669 331.008 1.33498 333.289 2.24893 335.475C4.97875 329.975 8.91112 325.16 13.8176 321.99C18.9405 318.592 25.8191 317.343 32.6016 316.274C36.0048 315.698 39.4682 315.037 42.7753 313.68C45.6975 312.456 48.4153 310.642 50.7121 308.361C54.5002 313.488 58.3364 318.58 62.2086 323.623C60.7896 325.364 59.0459 326.889 56.9895 327.946C54.1274 329.411 50.8565 330.143 47.5133 330.443C44.1702 330.768 40.7189 330.611 37.1232 330.78C33.5516 330.96 29.6793 331.428 26.0596 333.169C22.4399 334.862 19.4095 337.528 17.1006 340.578C15.1043 343.16 13.565 346.018 12.4226 348.995C14.1783 350.617 16.0303 352.142 17.9544 353.594C18.0265 353.438 18.0987 353.282 18.1829 353.126C19.5899 350.352 21.2735 347.759 23.1976 345.465C25.1577 343.196 27.2983 341.202 29.6433 339.545C31.9883 337.888 34.8143 336.543 37.953 335.535C41.0917 334.514 44.4709 333.842 47.8982 333.229C51.3134 332.605 54.8129 331.944 58.2041 330.612C60.501 329.699 62.7017 328.438 64.722 326.877C70.8912 334.85 77.1565 342.751 83.506 350.581C83.7345 350.869 83.975 351.145 84.2035 351.433C82.1712 352.37 79.9344 352.97 77.6616 353.258C71.288 354.087 64.7461 352.718 57.7712 353.967C49.4134 355.54 42.5708 361.496 38.9391 368.808C40.0695 369.853 41.0075 370.922 41.7892 372.027C45.7456 365.566 51.8907 360.739 58.9136 358.71C64.698 356.897 71.4203 356.308 77.9502 355.119C80.4756 354.627 83.013 353.967 85.4181 352.91C88.1479 356.272 90.8777 359.646 93.6797 362.961C97.1311 367.043 100.486 371.198 104.01 375.209L106.258 377.802C103.865 380.66 100.655 382.762 96.9988 383.542C92.9943 384.443 88.7733 383.89 84.5162 383.266C80.2471 382.641 75.7495 381.801 70.8551 382.245C65.9246 382.714 61.1745 384.599 57.206 387.493C53.2135 390.35 49.9064 394.169 47.7539 398.564C47.3089 399.476 46.9121 400.413 46.5753 401.362C47.2007 404.244 48.295 407.125 50.183 409.983C50.9647 407.065 52.1552 404.328 53.7306 401.89C55.799 398.708 58.5408 395.994 61.6675 393.905C64.8182 391.839 68.3056 390.338 71.9614 389.486C75.6773 388.657 79.9104 388.357 84.2997 388.105C88.6891 387.829 93.2708 387.577 97.7083 386.28C101.665 385.151 105.26 382.894 108.134 379.988L114.484 387.337L123.828 397.723C120.834 399.837 117.298 401.35 113.666 402.262C111.045 402.935 108.339 403.271 105.633 403.535C102.951 403.811 100.125 403.883 97.107 404.868C95.6158 405.348 94.1126 406.153 92.8379 407.185C91.5512 408.206 90.4929 409.431 89.615 410.716C87.8593 413.297 86.801 416.071 86.0073 418.785C85.6346 420.034 85.3459 421.295 85.0573 422.531C86.5004 422.495 87.9555 422.459 89.4106 422.447C89.7113 421.739 90.0119 421.03 90.3005 420.322C91.3467 417.908 92.4771 415.615 93.8721 413.718C95.3032 411.832 96.8665 410.404 98.9469 409.383C101.027 408.314 103.661 407.582 106.307 406.681L114.207 404.063C118.008 402.803 121.844 401.482 125.487 399.548C128.939 403.451 132.583 407.209 136.142 411.028C138.74 413.802 141.349 416.552 143.995 419.289C143.526 419.409 143.045 419.53 142.552 419.602C137.838 420.406 132.919 419.073 127.508 419.59C124.826 419.866 121.832 420.646 119.102 422.76C117.214 424.189 115.867 426.134 114.989 428.127C117.118 429.712 118.837 431.561 120.316 433.603C120.413 433.387 120.497 433.146 120.593 432.942C121.459 431.153 122.505 429.856 123.78 429.016C125.055 428.211 126.882 427.479 128.999 426.758C133.256 425.293 138.271 423.732 143.189 422.363C144.139 422.087 145.101 421.751 146.063 421.403C146.472 421.811 146.857 422.231 147.266 422.628L158.594 434.035L164.655 439.775C163.633 440.94 162.418 441.936 161.047 442.681C156.778 445.022 151.727 445.707 146.905 447.652C144.488 448.625 142.107 449.933 139.978 451.735C138.896 452.599 137.922 453.644 137.02 454.724C136.19 455.781 135.505 456.934 134.976 458.135C136.154 459.263 137.357 460.26 138.571 461.101C138.68 460.897 138.788 460.668 138.908 460.464C139.473 459.552 140.075 458.711 140.796 457.967C141.554 457.198 142.359 456.454 143.249 455.793C145.017 454.46 146.989 453.26 149.058 452.047C153.194 449.573 157.704 447.088 162.033 444.314C163.452 443.377 164.739 442.236 165.93 441L170.283 445.118C186.097 459.648 202.596 473.577 220.706 485.693C220.754 485.729 220.815 485.765 220.863 485.801C223.364 487.35 226.635 486.581 228.186 484.084C229.762 481.586 228.992 478.308 226.491 476.759Z" fill="url(#paint1_linear)"/>
<path d="M455.434 484.961C449.277 471.908 444.322 457.211 447.858 443.222C452.584 424.525 470.021 413.874 484.788 403.524C501.817 391.588 514.432 377.731 518.087 356.177C522.14 332.317 493.495 313.465 493.868 289.257C493.952 283.77 495.563 278.426 497.427 273.263C505.436 251.048 522.248 241.502 522.2 217.45C522.164 198.766 499.207 186.746 481.109 191.513C463.022 196.28 450.119 212.155 440.811 228.353C431.503 244.552 432.994 247.386 420.03 260.871C406.694 274.74 388.62 282.797 372.132 292.739C355.657 302.682 339.531 316.155 334.829 334.803C330.836 350.641 335.803 367.14 338.978 383.17C342.153 399.189 343.006 417.501 332.604 430.097C326.014 438.082 316.057 442.297 307.23 447.701C285.307 461.125 268.424 486.69 273.955 511.762C276.829 524.767 285.235 535.886 294.736 545.216C329.526 579.366 382.499 592.479 429.639 581.324C481.409 569.052 474.266 524.875 455.434 484.961Z" fill="url(#paint2_linear)"/>
<path opacity="0.5" d="M362.019 478.032C361.081 477.36 359.746 476.495 358.183 475.474C349.332 469.735 332.496 458.783 319.785 440.448C320.915 439.775 322.022 439.079 323.104 438.346C335.406 456.058 351.725 466.661 360.299 472.22C361.502 473.001 362.548 473.673 363.414 474.274C376.005 440.484 392.612 402.034 413.2 359.034C416.844 351.421 420.499 343.917 424.131 336.568C417.373 332.473 391.265 315.134 382.33 286.855C383.484 286.207 384.627 285.558 385.781 284.91C393.959 312.06 419.032 328.919 425.851 333.085C430.709 323.275 435.519 313.765 440.197 304.651C440.209 304.639 440.209 304.615 440.209 304.603C440.221 304.579 440.233 304.555 440.245 304.531C469.42 247.638 493.483 206.199 493.795 205.658C494.337 204.734 495.515 204.421 496.441 204.962C497.367 205.502 497.68 206.679 497.139 207.604C496.525 208.648 473.244 248.85 444.659 304.555C452.006 307.845 479.725 319.517 506.242 321.018C507.072 322.362 507.901 323.707 508.719 325.064C499.544 324.788 489.334 323.227 478.126 320.357C461.579 316.13 447.689 310.174 442.879 308.013C429.17 334.851 414.33 365.086 400.248 396.187C409.063 399.525 446.27 412.373 481.096 406.057C478.751 407.678 476.382 409.323 474.025 411.016C469.744 411.485 465.307 411.737 460.725 411.737C455.049 411.737 449.156 411.377 443.071 410.644C421.894 408.11 404.253 401.854 398.661 399.705C380.358 440.375 363.462 482.331 352.146 519.915C357.894 522.857 380.49 533.724 408.341 537.711C431.214 540.989 451.598 539.008 469.347 531.839C469.432 533.148 469.468 534.457 469.48 535.742C456.961 540.593 443.228 543.054 428.472 543.054C421.786 543.054 414.883 542.55 407.8 541.541C380.406 537.627 357.918 527.156 351.039 523.686C345.712 541.842 341.732 558.917 339.603 574.251C338.364 573.747 337.126 573.242 335.899 572.702C339.519 547.149 348.225 515.545 362.019 478.032Z" fill="url(#paint3_linear)"/>
<path d="M148.047 519.52L153.387 482.103C153.387 482.103 256.65 470.612 284.454 468.835C307.591 486.342 312.582 519.52 312.582 519.52C316.189 533.437 312.582 549.227 312.582 549.227H144.945C144.415 540.726 148.047 519.52 148.047 519.52Z" fill="url(#paint4_linear)"/>
<path d="M153.387 443.522C153.387 443.522 157.788 468.186 153.387 482.103C153.387 482.103 231.962 496.032 284.454 468.835C279.632 462.038 275.94 437.962 275.94 437.962C275.94 437.962 161.276 450.174 153.387 443.522Z" fill="url(#paint5_linear)"/>
<path opacity="0.5" d="M275.94 437.962C275.94 437.962 279.452 460.897 284.105 468.318C227.982 482.848 155.215 460.669 155.215 460.669C157.223 457.475 162.214 451.531 167.541 445.479C200.107 446.044 275.94 437.962 275.94 437.962Z" fill="url(#paint6_linear)"/>
<path d="M10.0417 197.026C10.0417 175.087 19.1811 157.316 30.4611 157.316H44.1703C55.4504 157.316 64.5898 175.099 64.5898 197.026C64.5898 218.964 55.4504 236.735 44.1703 236.735H30.4611C25.1458 236.735 20.3115 232.785 16.6798 226.313C14.8399 223.035 13.3126 219.108 12.1942 214.725C10.8113 209.406 10.0417 203.39 10.0417 197.026Z" fill="url(#paint7_linear)"/>
<path opacity="0.5" d="M10.0411 197.025C10.0411 196.113 10.0651 195.212 10.0892 194.324C10.2696 194.636 11.869 197.025 16.6432 197.025C21.742 197.025 23.8946 192.835 23.8946 192.835C24.9769 197.854 40.3336 225.016 46.9116 236.375C46.0097 236.615 45.0958 236.747 44.1578 236.747H30.4486C25.1333 236.747 20.2989 232.797 16.6672 226.325C14.8273 223.046 13.3001 219.12 12.1817 214.737C10.8108 209.406 10.0411 203.39 10.0411 197.025Z" fill="url(#paint8_linear)"/>
<path d="M44.1703 236.735C32.893 236.735 23.7509 218.957 23.7509 197.026C23.7509 175.094 32.893 157.316 44.1703 157.316C55.4477 157.316 64.5898 175.094 64.5898 197.026C64.5898 218.957 55.4477 236.735 44.1703 236.735Z" fill="url(#paint9_linear)"/>
<path opacity="0.5" d="M62.5093 214.509C59.1782 227.669 52.2274 236.735 44.1702 236.735C32.8902 236.735 23.7507 218.952 23.7507 197.025C23.7507 195.609 23.7868 194.216 23.859 192.835C28.8616 201.528 42.4145 220.633 62.5093 214.509Z" fill="url(#paint10_linear)"/>
<path d="M46.7074 189.569H92.3206C94.4371 189.569 96.1567 192.907 96.1567 197.026C96.1567 201.144 94.4371 204.482 92.3206 204.482H46.7074C44.5909 204.482 42.8712 201.144 42.8712 197.026C42.8833 192.907 44.5909 189.569 46.7074 189.569Z" fill="url(#paint11_linear)"/>
<path d="M112.752 157.316H126.461C137.741 157.316 146.881 175.1 146.881 197.026C146.881 218.964 137.741 236.736 126.461 236.736H112.752C101.472 236.736 92.3327 218.952 92.3327 197.026C92.3327 175.088 101.472 157.316 112.752 157.316Z" fill="url(#paint12_linear)"/>
<path opacity="0.5" d="M92.3805 194.372C92.6571 194.816 94.3046 197.025 98.9104 197.025C104.009 197.025 106.162 192.835 106.162 192.835C107.244 197.854 122.613 225.028 129.191 236.387C128.301 236.615 127.399 236.747 126.473 236.747H112.764C101.484 236.747 92.3444 218.964 92.3444 197.037C92.3324 196.137 92.3444 195.248 92.3805 194.372Z" fill="url(#paint13_linear)"/>
<path d="M106.042 197.026C106.042 218.964 115.181 236.736 126.461 236.736C137.741 236.736 146.881 218.952 146.881 197.026C146.881 175.088 137.741 157.316 126.461 157.316C115.181 157.316 106.042 175.088 106.042 197.026Z" fill="url(#paint14_linear)"/>
<path d="M125.296 188.752H129.601C131.946 188.752 133.858 192.463 133.858 197.026C133.858 201.601 131.958 205.299 129.601 205.299H125.296C122.951 205.299 121.039 201.589 121.039 197.026C121.039 192.451 122.951 188.752 125.296 188.752Z" fill="url(#paint15_linear)"/>
<path d="M125.355 197.026C125.355 201.601 127.255 205.299 129.612 205.299C131.957 205.299 133.869 201.589 133.869 197.026C133.869 192.451 131.969 188.752 129.612 188.752C127.255 188.752 125.355 192.451 125.355 197.026Z" fill="url(#paint16_linear)"/>
<path opacity="0.5" d="M144.8 214.509C141.469 227.669 134.518 236.735 126.461 236.735C115.181 236.735 106.042 218.952 106.042 197.025C106.042 195.609 106.078 194.216 106.162 192.835C111.153 201.528 124.705 220.633 144.8 214.509Z" fill="url(#paint17_linear)"/>
<path d="M51.7829 195.597C51.0373 188.128 55.7754 184.405 58.2647 184.645C60.754 184.898 64.987 186.11 67.4883 184.633C69.9776 183.156 70.9758 180.251 73.7176 182.076C76.4594 183.901 77.7101 186.639 79.9469 184.898C82.1836 183.156 84.1799 183.409 86.6692 184.405C89.1585 185.402 88.1604 189.304 88.1604 189.304C88.1604 189.304 82.9052 193.195 84.3122 198.707C85.7192 204.218 89.1705 204.242 89.3028 205.815C89.4351 207.388 86.2964 215.518 81.859 215.902C81.6305 216.07 81.3659 216.226 81.0893 216.382C85.0337 261.051 105.802 305.72 105.802 305.72C106.343 305.852 106.86 305.949 107.365 306.045C110.744 303.055 114.34 299.284 117.791 295.274C121.796 290.603 125.728 285.559 129.541 280.312C137.165 269.805 144.452 258.638 151.355 247.146C155.071 240.986 165.774 220.969 174.913 203.738C182.922 188.644 201.875 183.204 216.69 191.766C232.239 200.748 236.532 221.233 225.89 235.691C223.316 239.185 221.2 242.043 220.117 243.448C211.447 254.843 202.56 266.095 193.288 277.166C183.98 288.213 174.456 299.164 164.03 309.767C158.823 315.074 153.375 320.286 147.507 325.377C136.6 334.815 128.218 344.35 114.316 349.765C111.658 350.798 108.856 351.698 106.018 351.422C94.3055 350.281 85.5989 335.104 80.957 324.789C80.6323 324.068 80.3317 323.384 80.0431 322.711C75.0164 310.956 72.4068 297.927 69.7612 285.739C66.1896 269.265 60.0685 222.026 60.5496 217.763C60.5616 217.751 52.5405 203.053 51.7829 195.597Z" fill="url(#paint18_linear)"/>
<path opacity="0.5" d="M80.0425 322.711C78.888 319.997 77.8658 317.2 76.9278 314.378C92.97 338.537 120.437 328.379 123.479 316.227C125.499 308.158 124.802 295.513 124.67 286.772C126.305 284.658 127.928 282.509 129.528 280.311C134.795 273.059 139.882 265.482 144.812 257.713C148.252 255.131 151.354 253.078 153.375 251.973C159.796 248.503 168.695 280.624 175.213 287.576C176.608 289.065 177.462 291.635 177.919 294.901C173.421 299.92 168.816 304.879 164.005 309.767C158.798 315.074 153.351 320.286 147.482 325.377C136.575 334.815 128.193 344.349 114.291 349.765C111.634 350.797 108.832 351.698 105.994 351.422C94.2808 350.281 85.5742 335.103 80.9324 324.788C80.6317 324.068 80.3311 323.372 80.0425 322.711Z" fill="url(#paint19_linear)"/>
<path d="M264.889 43.9733C263.469 16.8836 294.231 -4.53833 319.016 0.829172C335.828 4.46755 353.866 16.4033 362.284 31.5932C377.929 59.8357 358.46 87.1295 362.945 116.248C366.072 136.602 383.389 143.29 400.345 150.543C433.187 164.604 451.947 212.059 412.671 230.983C387.538 243.099 357.606 239.029 333.627 226.084C305.547 210.93 291.177 187.347 300.713 155.634C307.147 134.212 320.254 112.814 321.553 89.6992C322.335 75.71 315.973 61.3727 307.856 50.3015C306.148 47.9719 304.14 45.6184 301.362 44.8019C297.574 43.6851 293.582 45.7745 290.527 48.2721C287.473 50.7698 284.695 53.8318 280.979 55.1766C274.798 57.4221 267.113 53.4355 265.394 47.0954C265.105 46.0867 264.949 45.042 264.889 43.9733Z" fill="url(#paint20_linear)"/>
<path opacity="0.5" d="M281.171 21.9991C289 26.2019 294.435 32.0257 303.575 32.2778C311.74 32.494 317.825 33.4906 322.707 40.8514C332.472 55.561 345.64 92.8814 331.198 132.747C317.308 171.076 377.256 186.843 397.735 149.45C398.601 149.823 399.467 150.195 400.333 150.567C433.175 164.628 451.935 212.083 412.659 231.008C387.526 243.123 357.594 239.053 333.615 226.108C305.535 210.954 291.164 187.371 300.701 155.658C307.134 134.236 320.242 112.838 321.541 89.7233C322.323 75.7342 315.961 61.3968 307.844 50.3256C306.136 47.9961 304.128 45.6426 301.35 44.826C297.562 43.7093 293.569 45.7987 290.515 48.2963C287.46 50.7939 284.682 53.8559 280.967 55.2008C274.785 57.4463 267.101 53.4597 265.381 47.1195C265.105 46.0989 264.948 45.0542 264.888 43.9975C264.383 34.2831 268.015 25.3013 274.028 18.0245C276.649 19.1413 280.065 21.4107 281.171 21.9991Z" fill="url(#paint21_linear)"/>
<path d="M290.515 48.2841C290.515 48.2841 291.176 40.1668 281.436 33.2503C271.707 26.3337 260.679 30.0442 258.238 35.7479C255.797 41.4516 258.19 47.8278 272.705 56.3653C287.232 64.9029 292.018 54.6722 290.515 48.2841Z" fill="url(#paint22_linear)"/>
<path opacity="0.5" d="M258.238 35.7479C258.238 35.7359 258.25 35.7359 258.25 35.7239C267.57 34.7033 274.749 41.4277 281.123 43.7091C284.887 45.054 287.388 43.457 288.904 41.6918C290.731 45.4383 290.515 48.2841 290.515 48.2841C292.018 54.6603 287.232 64.891 272.705 56.3654C258.19 47.8278 255.797 41.4517 258.238 35.7479Z" fill="url(#paint23_linear)"/>
<path d="M264.924 184.705C264.924 184.705 230.026 175.747 197.569 187.971C187.816 191.646 181.01 202.825 176.103 211.326C170.62 220.825 164.366 229.686 158.654 238.968C145.787 259.874 138.872 286.423 150.188 309.599C152.365 314.053 155.143 318.22 156.922 322.855C158.738 327.55 159.472 332.57 160.049 337.565C163.104 364.294 158.859 389.859 153.712 416.144C153.17 418.918 146.304 458.196 144.055 458.196C144.055 458.196 211.603 478.02 291.321 445.611C281.448 418.137 283.901 316.131 295.181 285.415C306.473 254.687 328.504 205.587 264.924 184.705Z" fill="url(#paint24_linear)"/>
<path d="M225.096 140.132C225.096 140.132 231.001 167.918 214.117 187.659C193.012 212.335 172.195 231.932 195.573 241.598C218.951 251.253 259.285 213.284 264.925 184.705C255.34 169.815 251.636 148.213 253.031 136.133C245.564 133.72 225.096 140.132 225.096 140.132Z" fill="url(#paint25_linear)"/>
<path opacity="0.5" d="M252.947 137.262C252.129 146.773 254.21 161.362 259.525 174.199C244.18 178.317 231.313 172.938 223.989 168.495C227.008 157.231 226.094 146.761 225.468 142.354C232.371 140.517 245.467 138.739 252.947 137.262Z" fill="url(#paint26_linear)"/>
<path d="M283.276 69.5141C283.276 69.5141 277.937 42.6166 244.974 40.9355C212.024 39.2544 188.863 60.2681 188.863 82.1224C188.863 103.977 186.506 115.624 179.555 125.699C175.611 131.427 188.863 138.427 191.532 142.63C194.202 146.833 190.174 164.412 213.299 166.321C236.436 168.255 294.556 141.981 283.276 69.5141Z" fill="url(#paint27_linear)"/>
<path d="M181.611 79.2883C181.611 79.2883 189.235 102.56 210.304 99.4255C231.373 96.2914 240.982 122.817 235.402 136.133C235.402 136.133 248.401 130.31 250.193 113.307C251.985 96.3034 275.748 109.728 264.985 125.386C254.222 141.057 249.339 152.692 256.94 154.037C264.54 155.382 282.819 148.213 289.986 115.096C297.153 81.9781 293.594 40.3469 248.353 34.9794C203.125 29.6119 183.403 62.2852 181.611 79.2883Z" fill="url(#paint28_linear)"/>
<path opacity="0.5" d="M226.948 83.8151C245.948 74.6411 257.349 78.7598 263.049 86.9732C267.979 94.0938 283.107 101.899 292.848 91.3681C292.716 99.3653 291.646 107.447 289.986 115.084C282.819 148.201 264.54 155.37 256.94 154.025C249.339 152.68 254.234 141.044 264.985 125.374C275.748 109.704 251.985 96.2793 250.193 113.294C248.401 130.297 235.402 136.121 235.402 136.121C240.982 122.805 231.373 96.2913 210.304 99.4253C189.235 102.559 181.611 79.2882 181.611 79.2882C181.611 79.2882 207.947 92.9891 226.948 83.8151Z" fill="url(#paint29_linear)"/>
<path opacity="0.5" d="M241.919 409.9C229.725 401.434 231 399.633 245.142 393.365C259.284 387.085 263.481 386.569 273.427 341.575C283.384 296.582 267.534 251.276 267.534 251.276C274.809 245.092 291.116 248.911 305.583 254.266C302.865 265.458 298.548 276.253 295.181 285.415C283.889 316.131 281.436 418.137 291.321 445.611C239.911 466.505 193.576 465.688 167.132 462.47C225.348 461.99 254.113 418.366 241.919 409.9Z" fill="url(#paint30_linear)"/>
<path d="M227.621 447.785C228.042 445.516 231.073 438.647 236.003 431.07C239.19 426.171 244.698 423.769 248.197 422.689C240.693 417.573 237.338 405.998 241.92 409.9C247.043 414.271 258.816 421.248 258.816 421.248C258.828 421.272 258.84 421.284 258.852 421.308C266.464 422.208 272.32 427.528 277.071 430.59C283.252 434.564 288.627 427.384 288.627 427.384C292.403 423.289 296.239 419.002 299.979 414.739C303.731 410.465 307.447 406.154 311.103 401.819C318.403 393.113 325.522 384.288 332.304 375.354C339.087 366.456 345.532 357.294 351.004 348.252C353.698 343.761 356.175 339.186 357.774 335.212C357.979 334.707 358.171 334.203 358.34 333.711C355.898 329.916 352.724 325.797 349.284 321.763C345.28 317.092 340.89 312.433 336.297 307.87C327.085 298.72 317.152 289.81 306.846 281.236C301.314 276.625 283.168 262.972 267.534 251.301C253.825 241.082 251.372 221.533 262.123 208.241C273.415 194.288 294.339 193.219 307.002 205.947C310.069 209.021 312.558 211.555 313.785 212.84C323.718 223.154 333.495 233.649 343.007 244.504C352.507 255.383 361.875 266.479 370.75 278.39C375.188 284.346 379.517 290.518 383.642 297.099C387.742 303.727 391.699 310.668 395.054 319.013L394.116 317.224C395.691 319.962 396.605 322.783 397.062 325.245C397.531 327.731 397.591 329.88 397.507 331.753C397.315 335.512 396.593 338.25 395.86 340.651C394.32 345.37 392.516 348.768 390.701 351.95C387.045 358.195 383.209 363.274 379.3 368.185C371.484 377.899 363.282 386.521 355.045 395.023C346.783 403.476 338.341 411.593 329.803 419.567C321.277 427.588 312.702 435.333 303.852 443.138C303.852 443.138 291.489 456.154 277.071 455.83C262.652 455.506 259.152 445.624 253.669 446.716C248.185 447.809 244.132 453.921 242.773 459.373C241.571 464.212 235.101 452.828 234.572 451.952C232.371 448.301 237.663 441.133 238.589 437.746C233.165 443.378 227.188 450.054 227.621 447.785Z" fill="url(#paint31_linear)"/>
<path opacity="0.5" d="M323.946 386.089C323.934 386.089 323.934 386.101 323.922 386.101C326.76 382.534 329.574 378.944 332.316 375.342C339.098 366.444 345.544 357.282 351.016 348.24C353.71 343.749 356.187 339.174 357.786 335.199C357.991 334.695 358.183 334.191 358.352 333.698C355.91 329.904 352.736 325.785 349.296 321.751C345.292 317.08 340.902 312.42 336.309 307.858C327.097 298.708 317.164 289.798 306.858 281.224C305.222 279.867 302.481 277.706 299.041 275.052C299.041 275.052 341.443 301.734 349.801 309.575C358.159 317.404 376.462 319.589 372.109 325.245C367.744 330.889 342.478 372.964 323.946 386.089Z" fill="url(#paint32_linear)"/>
<path opacity="0.5" d="M174.047 332.485C169.801 334.323 164.51 333.794 159.315 332.065C159.039 330.396 158.702 328.739 158.281 327.106C162.754 328.018 167.649 328.235 172.507 326.938C179.939 324.968 184.749 317.788 193.107 320.321C193.853 320.55 194.586 320.838 195.284 321.21C198.374 322.867 200.575 325.653 203.762 327.178C208.271 329.339 213.527 329.904 218.457 330.228C226.214 330.576 236.267 329.76 236.267 329.76C236.267 329.76 210.785 335.163 198.759 332.365C186.734 329.579 186.77 326.974 174.047 332.485Z" fill="url(#paint33_linear)"/>
<path d="M121.123 111.806L125.62 110.353C128.446 109.44 130.659 107.231 131.561 104.421L133.016 99.9298C133.28 99.1132 134.435 99.1132 134.699 99.9298L136.155 104.421C137.068 107.243 139.281 109.452 142.095 110.353L146.593 111.806C147.41 112.07 147.41 113.222 146.593 113.487L142.095 114.94C139.269 115.852 137.056 118.062 136.155 120.871L134.699 125.362C134.435 126.179 133.28 126.179 133.016 125.362L131.561 120.871C130.647 118.05 128.434 115.84 125.62 114.94L121.123 113.487C120.305 113.222 120.305 112.07 121.123 111.806Z" fill="url(#paint34_linear)"/>
<path d="M408.667 54.6244L413.165 53.1714C415.991 52.2588 418.203 50.0494 419.105 47.2396L420.56 42.7486C420.825 41.9321 421.979 41.9321 422.244 42.7486L423.699 47.2396C424.613 50.0614 426.826 52.2708 429.64 53.1714L434.137 54.6244C434.955 54.8886 434.955 56.0413 434.137 56.3055L429.64 57.7584C426.814 58.671 424.601 60.8805 423.699 63.6903L422.244 68.1812C421.979 68.9978 420.825 68.9978 420.56 68.1812L419.105 63.6903C418.191 60.8685 415.978 58.659 413.165 57.7584L408.667 56.3055C407.849 56.0413 407.849 54.8765 408.667 54.6244Z" fill="url(#paint35_linear)"/>
<path d="M149.407 58.9231C154.95 58.9231 159.46 54.4201 159.46 48.8845C159.46 43.3489 154.95 38.8459 149.407 38.8459C143.863 38.8459 139.353 43.3489 139.353 48.8845C139.353 54.4201 143.863 58.9231 149.407 58.9231ZM149.407 41.4156C153.531 41.4156 156.874 44.7658 156.874 48.8725C156.874 52.9912 153.519 56.3294 149.407 56.3294C145.282 56.3294 141.939 52.9792 141.939 48.8725C141.927 44.7658 145.282 41.4156 149.407 41.4156Z" fill="url(#paint36_linear)"/>
<path d="M397.567 126.551C392.433 126.551 388.271 122.396 388.271 117.269C388.271 112.143 392.433 107.987 397.567 107.987C402.701 107.987 406.863 112.143 406.863 117.269C406.863 122.396 402.701 126.551 397.567 126.551Z" fill="url(#paint37_linear)"/>
<path d="M76.94 131.151C71.8061 131.151 67.6442 126.995 67.6442 121.868C67.6442 116.742 71.8061 112.586 76.94 112.586C82.074 112.586 86.2358 116.742 86.2358 121.868C86.2358 126.995 82.074 131.151 76.94 131.151Z" fill="url(#paint38_linear)"/>
<path d="M226.298 575.632L226.274 575.62C217.387 573.171 208.645 570.265 200.058 566.963C200.864 564.597 201.045 562.135 201.008 559.782C200.924 556.996 200.479 554.318 199.794 551.749C199.096 549.179 198.219 546.693 197.124 544.316C196.643 543.103 195.886 541.998 194.683 541.146C193.456 540.305 191.953 539.609 189.488 539.465C188.682 539.417 187.961 539.825 187.576 540.461L187.528 540.533C186.253 542.599 185.892 544.148 185.784 545.553C185.688 546.946 186.037 548.122 186.602 549.179C187.624 551.364 188.742 553.49 189.873 555.603C191.015 557.717 192.242 559.782 193.48 561.847C194.142 562.94 194.815 564.009 195.489 565.113C189.74 562.784 184.076 560.262 178.497 557.548C179.735 554.234 180.3 550.728 180.493 547.27C180.649 543.283 180.276 539.333 179.567 535.478C178.821 531.648 177.799 527.889 176.428 524.275C175.827 522.438 174.997 520.684 173.458 519.243C171.882 517.827 169.97 516.566 166.675 516.049C165.882 515.929 165.112 516.302 164.727 516.962L164.679 517.046C162.995 519.844 162.599 521.945 162.466 523.939C162.382 525.896 162.923 527.565 163.645 529.174C164.896 532.452 166.278 535.694 167.589 538.948L171.606 548.723L174.336 555.555C174.324 555.555 174.312 555.543 174.3 555.543C172.207 554.523 170.151 553.454 168.118 552.325L161.973 549.035C158.642 547.126 155.323 545.228 152.04 543.247C153.375 539.729 153.952 536.054 154.181 532.428C154.385 528.273 154.036 524.191 153.375 520.192C152.702 516.206 151.667 512.327 150.332 508.557C149.671 506.671 149.154 504.726 147.41 503.285C145.727 501.832 143.442 500.607 139.281 500.331C138.499 500.283 137.778 500.619 137.321 501.184L137.261 501.268C134.675 504.474 133.881 506.779 133.629 508.869C133.509 509.913 133.617 510.85 133.869 511.727C134.158 512.591 134.543 513.432 134.856 514.284C136.166 517.694 137.609 521.057 139.113 524.395C140.58 527.745 142.167 531.059 143.839 534.409C144.741 536.211 145.643 538.024 146.593 539.873C139.822 535.646 133.196 531.179 126.738 526.484C125.271 525.452 123.84 524.359 122.397 523.278C124.165 519.688 125.043 515.785 125.584 511.967C126.209 507.536 126.185 503.153 125.872 498.842C125.548 494.519 124.886 490.281 123.888 486.126C123.443 484.037 122.986 481.947 121.435 480.158C119.908 478.381 117.887 476.736 114.027 475.727C113.246 475.523 112.452 475.787 111.947 476.351L111.899 476.4C109.289 479.329 108.411 481.659 107.978 483.856C107.774 484.949 107.786 485.982 107.93 486.966C108.087 487.951 108.423 488.9 108.652 489.872C109.638 493.727 110.768 497.545 111.899 501.352C113.029 505.158 114.28 508.953 115.506 512.747C116.264 515.077 117.034 517.394 117.815 519.796C111.37 514.933 105.068 509.877 98.911 504.642C100.45 501.148 101.352 497.461 101.881 493.763C102.447 489.536 102.471 485.285 102.134 481.095C101.809 476.904 101.088 472.773 100.017 468.727C99.7528 467.718 99.4882 466.697 99.1635 465.701C98.8027 464.716 98.2616 463.767 97.516 462.915C95.9767 461.21 93.8723 459.637 89.8557 458.988C89.1823 458.88 88.5329 459.156 88.136 459.649L87.8594 459.997C85.4784 462.963 84.6245 465.16 84.36 467.226C83.9992 469.303 84.7688 471.008 85.2859 472.821C86.3322 476.436 87.4626 480.038 88.581 483.652C89.6994 487.267 90.8658 490.893 92.0924 494.579C92.7298 496.537 93.3792 498.506 94.0647 500.523C90.5051 497.425 86.9816 494.315 83.5062 491.121C78.6599 486.666 73.9458 482.067 69.3039 477.396C70.7831 474.61 71.721 471.789 72.3945 468.931C73.128 465.737 73.5008 462.518 73.561 459.312C73.6091 456.106 73.4407 452.9 72.8996 449.73C72.7432 448.133 72.2983 446.572 71.0236 445.191C70.3982 444.507 69.5925 443.858 68.5583 443.282C67.464 442.718 66.3456 442.165 64.5658 441.805H64.5538C63.7601 441.649 62.9784 441.865 62.4012 442.333C59.6714 444.543 58.6612 446.248 57.9277 447.881C57.2662 449.502 57.4106 450.931 57.7593 452.336C58.2644 455.182 58.9499 458.016 59.6834 460.873C60.441 463.731 61.3309 466.601 62.4253 469.495C62.6297 470.023 62.8462 470.564 63.0626 471.104C58.2403 466.157 53.5383 461.078 49.0047 455.878C48.6199 452.528 47.5977 449.358 46.2748 446.392C44.7596 443.066 42.8115 440.004 40.6228 437.17C38.4342 434.324 35.9809 431.742 33.3112 429.401C32.6498 428.812 31.9764 428.212 31.2669 427.672C30.5333 427.155 29.6795 426.771 28.7054 426.591C26.7212 426.243 24.3401 426.303 20.9249 428.176C20.3717 428.476 20.0109 429.017 19.9267 429.593L19.8426 430.121C19.2773 433.748 19.5539 435.861 20.2394 437.518C20.8647 439.247 22.2116 440.028 23.4262 441.036C25.8433 443.03 28.3447 444.951 30.858 446.872C33.3714 448.794 35.9569 450.667 38.6386 452.54C41.3203 454.425 44.0501 456.322 47.2369 458.244L47.273 458.268C47.4534 458.376 47.6458 458.412 47.8382 458.436C51.3978 462.843 55.0776 467.141 58.8537 471.356C58.06 470.864 57.2662 470.36 56.4605 469.891C55.0175 469.099 53.5985 468.282 52.1193 467.55C50.6642 466.781 49.185 466.061 47.5616 465.629C45.9501 465.172 44.2425 464.872 42.3665 464.86C40.5025 464.824 38.5183 465.016 36.1733 465.797L36.1372 465.809C35.3195 466.073 34.8746 466.937 35.1031 467.754C36.4139 472.413 38.8671 475.139 41.6089 477.336C43.0039 478.393 44.5191 479.209 46.1065 479.894C47.6698 480.638 49.2812 481.275 50.9047 481.875C54.1636 483.064 57.5669 483.964 61.1145 484.469C64.3494 484.913 67.6804 485.057 71.2039 484.469C74.3547 487.687 77.5174 490.893 80.7523 494.015C82.3637 495.564 84.0233 497.053 85.6708 498.566C85.2018 498.362 84.7087 498.134 84.2397 497.93C81.1852 496.597 78.2269 495.3 75.2807 494.135C72.3344 492.946 69.4121 491.758 66.4418 490.641C64.9747 490.028 63.4474 489.62 61.5113 490.064C59.5752 490.461 57.4587 491.241 54.4282 493.583L54.3921 493.619C53.7668 494.111 53.4421 494.856 53.4662 495.6C53.5984 499.371 54.6086 501.616 55.8593 503.393C57.158 505.098 58.7935 506.095 60.6094 506.623C64.1569 507.896 67.8729 508.725 71.6609 509.181C75.461 509.601 79.3333 509.541 83.1815 508.893C86.5967 508.244 89.988 507.272 93.1387 505.29C99.2116 510.646 105.453 515.833 111.839 520.817C109.975 520.396 108.159 520 106.367 519.544C102.687 518.631 99.1154 517.815 95.6159 516.83C92.1165 515.845 88.6531 514.933 85.2619 513.828C84.4081 513.576 83.5543 513.324 82.7245 513.035C81.8707 512.783 81.089 512.375 80.151 512.387C78.251 512.423 76.1705 513.3 72.635 516.434L72.4065 516.638C71.8774 517.106 71.6128 517.767 71.6008 518.415C71.5888 523.29 73.1762 525.572 74.968 526.928C75.8819 527.589 76.9522 527.829 77.9744 528.141C79.0086 528.453 80.0428 528.742 81.077 529.006C85.2499 529.978 89.4949 530.603 93.776 530.663C98.0451 530.771 102.338 530.303 106.487 529.354C110.275 528.502 113.955 527.061 117.346 525.067C119.583 526.772 121.808 528.465 124.081 530.111C128.386 533.197 132.787 536.163 137.237 539.044C130.743 538.588 124.646 538.3 118.657 537.856C114.773 537.555 110.961 537.279 107.173 536.883C103.312 536.367 99.9211 535.754 94.4014 542.07L94.3533 542.13C93.8241 542.731 93.6919 543.547 93.9324 544.244C96.6021 552.169 101.436 552.973 105.91 552.997C110.432 553.322 114.977 553.07 119.427 552.361C123.876 551.689 128.241 550.464 132.39 548.723C136.07 547.162 139.594 545.216 142.756 542.563C144.404 543.583 146.039 544.616 147.699 545.601C152.401 548.447 157.199 551.148 162.045 553.73C159.869 553.994 157.776 554.27 155.66 554.474C152.088 554.883 148.613 555.291 145.125 555.615L134.759 556.576C133.028 556.684 131.32 556.732 129.624 557.669C127.917 558.593 126.233 559.89 124.345 562.712L124.249 562.844C123.816 563.492 123.828 564.309 124.213 564.933C126.041 567.911 128.073 569.16 130.081 569.941C131.092 570.325 132.102 570.481 133.1 570.517C134.098 570.517 135.084 570.373 136.07 570.289C140.027 569.893 143.935 569.028 147.735 567.827C151.535 566.65 155.227 565.017 158.654 562.94C161.697 561.151 164.487 558.881 166.904 556.264C168.768 557.212 170.632 558.173 172.52 559.061C177.174 561.331 181.924 563.372 186.71 565.33C185.387 565.462 184.1 565.618 182.826 565.762C179.904 566.122 177.102 566.566 174.3 567.023C171.51 567.491 168.768 568.055 166.014 568.608C164.643 568.92 163.356 569.604 162.082 570.649C160.819 571.766 159.58 573.159 158.354 575.584L158.281 575.716C157.921 576.413 158.041 577.229 158.51 577.806C160.29 579.967 162.045 580.964 163.765 581.624C165.473 582.213 167.156 582.345 168.744 582.068C171.906 581.42 175.021 580.495 178.003 579.211C180.986 577.938 183.848 576.293 186.482 574.275C188.851 572.498 190.967 570.289 192.699 567.731C194.659 568.488 196.607 569.244 198.579 569.965C207.466 573.111 216.558 575.632 225.733 577.71C226.334 577.842 226.936 577.469 227.068 576.869C227.212 576.377 226.864 575.8 226.298 575.632Z" fill="url(#paint39_linear)"/>
<defs>
<linearGradient id="paint0_linear" x1="202.169" y1="360.984" x2="0.00507322" y2="360.984" gradientUnits="userSpaceOnUse">
<stop offset="0.0127" stop-color="#FFD54C"/>
<stop offset="0.3774" stop-color="#FFCD4C"/>
<stop offset="0.957" stop-color="#FFB64C"/>
<stop offset="1" stop-color="#FFB44C"/>
</linearGradient>
<linearGradient id="paint1_linear" x1="229.015" y1="371.654" x2="0.377498" y2="371.654" gradientUnits="userSpaceOnUse">
<stop offset="0.0127" stop-color="#FFD54C"/>
<stop offset="0.3774" stop-color="#FFCD4C"/>
<stop offset="0.957" stop-color="#FFB64C"/>
<stop offset="1" stop-color="#FFB44C"/>
</linearGradient>
<linearGradient id="paint2_linear" x1="332.607" y1="578.577" x2="532.763" y2="179.357" gradientUnits="userSpaceOnUse">
<stop offset="0.0739" stop-color="#F16680"/>
<stop offset="0.991" stop-color="#FFBBD2"/>
</linearGradient>
<linearGradient id="paint3_linear" x1="567.248" y1="316.7" x2="286.257" y2="494.109" gradientUnits="userSpaceOnUse">
<stop offset="0.0739" stop-color="#F16680"/>
<stop offset="0.991" stop-color="#FFBBD2"/>
</linearGradient>
<linearGradient id="paint4_linear" x1="216.731" y1="472.076" x2="233.835" y2="560.58" gradientUnits="userSpaceOnUse">
<stop offset="0.0127" stop-color="#FFD54C"/>
<stop offset="0.3774" stop-color="#FFCD4C"/>
<stop offset="0.957" stop-color="#FFB64C"/>
<stop offset="1" stop-color="#FFB44C"/>
</linearGradient>
<linearGradient id="paint5_linear" x1="206.695" y1="417.146" x2="217.087" y2="466.87" gradientUnits="userSpaceOnUse">
<stop offset="0.0284" stop-color="#FFCBB7"/>
<stop offset="1" stop-color="#E4A887"/>
</linearGradient>
<linearGradient id="paint6_linear" x1="284.11" y1="455.608" x2="155.22" y2="455.608" gradientUnits="userSpaceOnUse">
<stop offset="0.0284" stop-color="#FFCBB7"/>
<stop offset="1" stop-color="#E4A887"/>
</linearGradient>
<linearGradient id="paint7_linear" x1="64.5942" y1="197.027" x2="10.0389" y2="197.027" gradientUnits="userSpaceOnUse">
<stop offset="0.0203" stop-color="#FFB44C"/>
<stop offset="1" stop-color="#FF6D4C"/>
</linearGradient>
<linearGradient id="paint8_linear" x1="46.922" y1="214.787" x2="10.0383" y2="214.787" gradientUnits="userSpaceOnUse">
<stop offset="0.0203" stop-color="#FFB44C"/>
<stop offset="1" stop-color="#FF6D4C"/>
</linearGradient>
<linearGradient id="paint9_linear" x1="64.5942" y1="197.027" x2="23.7541" y2="197.027" gradientUnits="userSpaceOnUse">
<stop offset="0.0685" stop-color="#FFE876"/>
<stop offset="1" stop-color="#FBB040"/>
</linearGradient>
<linearGradient id="paint10_linear" x1="62.5099" y1="214.787" x2="23.754" y2="214.787" gradientUnits="userSpaceOnUse">
<stop offset="0.0685" stop-color="#FFE876"/>
<stop offset="1" stop-color="#FBB040"/>
</linearGradient>
<linearGradient id="paint11_linear" x1="96.1643" y1="197.027" x2="42.8774" y2="197.027" gradientUnits="userSpaceOnUse">
<stop offset="0.0203" stop-color="#EF4136"/>
<stop offset="1" stop-color="#FF6D4C"/>
</linearGradient>
<linearGradient id="paint12_linear" x1="146.884" y1="197.027" x2="92.3291" y2="197.027" gradientUnits="userSpaceOnUse">
<stop offset="0.0203" stop-color="#FFB44C"/>
<stop offset="1" stop-color="#FF6D4C"/>
</linearGradient>
<linearGradient id="paint13_linear" x1="129.183" y1="214.787" x2="92.3288" y2="214.787" gradientUnits="userSpaceOnUse">
<stop offset="0.0203" stop-color="#FFB44C"/>
<stop offset="1" stop-color="#FF6D4C"/>
</linearGradient>
<linearGradient id="paint14_linear" x1="146.884" y1="197.027" x2="106.044" y2="197.027" gradientUnits="userSpaceOnUse">
<stop offset="0.0685" stop-color="#FFE876"/>
<stop offset="1" stop-color="#FBB040"/>
</linearGradient>
<linearGradient id="paint15_linear" x1="133.862" y1="197.027" x2="121.043" y2="197.027" gradientUnits="userSpaceOnUse">
<stop offset="0.0203" stop-color="#EF4136"/>
<stop offset="1" stop-color="#FF6D4C"/>
</linearGradient>
<linearGradient id="paint16_linear" x1="133.86" y1="197.027" x2="125.351" y2="197.027" gradientUnits="userSpaceOnUse">
<stop offset="0.0203" stop-color="#FFB44C"/>
<stop offset="1" stop-color="#FF6D4C"/>
</linearGradient>
<linearGradient id="paint17_linear" x1="144.8" y1="214.787" x2="106.044" y2="214.787" gradientUnits="userSpaceOnUse">
<stop offset="0.0685" stop-color="#FFE876"/>
<stop offset="1" stop-color="#FBB040"/>
</linearGradient>
<linearGradient id="paint18_linear" x1="72.6429" y1="230.796" x2="181.551" y2="281.526" gradientUnits="userSpaceOnUse">
<stop offset="0.0284" stop-color="#FFCBB7"/>
<stop offset="1" stop-color="#E4A887"/>
</linearGradient>
<linearGradient id="paint19_linear" x1="123.473" y1="261.404" x2="128.252" y2="313.691" gradientUnits="userSpaceOnUse">
<stop offset="0.0284" stop-color="#FFCBB7"/>
<stop offset="1" stop-color="#E4A887"/>
</linearGradient>
<linearGradient id="paint20_linear" x1="427.077" y1="70.5302" x2="317.748" y2="139.557" gradientUnits="userSpaceOnUse">
<stop stop-color="#8F3692"/>
<stop offset="1" stop-color="#542891"/>
</linearGradient>
<linearGradient id="paint21_linear" x1="341.378" y1="28.446" x2="352.903" y2="154.523" gradientUnits="userSpaceOnUse">
<stop stop-color="#8F3692"/>
<stop offset="1" stop-color="#542891"/>
</linearGradient>
<linearGradient id="paint22_linear" x1="290.777" y1="44.5558" x2="257.406" y2="44.5558" gradientUnits="userSpaceOnUse">
<stop offset="0.0127" stop-color="#FFD54C"/>
<stop offset="0.3774" stop-color="#FFCD4C"/>
<stop offset="0.957" stop-color="#FFB64C"/>
<stop offset="1" stop-color="#FFB44C"/>
</linearGradient>
<linearGradient id="paint23_linear" x1="273.284" y1="36.2329" x2="274.593" y2="50.5531" gradientUnits="userSpaceOnUse">
<stop offset="0.0127" stop-color="#FFD54C"/>
<stop offset="0.3774" stop-color="#FFCD4C"/>
<stop offset="0.957" stop-color="#FFB64C"/>
<stop offset="1" stop-color="#FFB44C"/>
</linearGradient>
<linearGradient id="paint24_linear" x1="151.353" y1="230.037" x2="276.019" y2="411.837" gradientUnits="userSpaceOnUse">
<stop offset="0.0235" stop-color="#F16680"/>
<stop offset="1" stop-color="#D33775"/>
</linearGradient>
<linearGradient id="paint25_linear" x1="210.612" y1="150.577" x2="230.45" y2="227.561" gradientUnits="userSpaceOnUse">
<stop stop-color="#E4A887"/>
<stop offset="0.9716" stop-color="#FFCBB7"/>
</linearGradient>
<linearGradient id="paint26_linear" x1="238.996" y1="141.291" x2="240.907" y2="162.191" gradientUnits="userSpaceOnUse">
<stop offset="0.0284" stop-color="#FFCBB7"/>
<stop offset="0.3555" stop-color="#FDC9B4"/>
<stop offset="0.6026" stop-color="#F8C2AA"/>
<stop offset="0.8227" stop-color="#EFB69A"/>
<stop offset="1" stop-color="#E4A887"/>
</linearGradient>
<linearGradient id="paint27_linear" x1="235.79" y1="46.2344" x2="227.525" y2="176.174" gradientUnits="userSpaceOnUse">
<stop offset="0.0284" stop-color="#FFCBB7"/>
<stop offset="0.3555" stop-color="#FDC9B4"/>
<stop offset="0.6026" stop-color="#F8C2AA"/>
<stop offset="0.8227" stop-color="#EFB69A"/>
<stop offset="1" stop-color="#E4A887"/>
</linearGradient>
<linearGradient id="paint28_linear" x1="206.165" y1="40.6501" x2="281.57" y2="120.886" gradientUnits="userSpaceOnUse">
<stop stop-color="#8F3692"/>
<stop offset="1" stop-color="#542891"/>
</linearGradient>
<linearGradient id="paint29_linear" x1="236.753" y1="80.162" x2="240.858" y2="125.066" gradientUnits="userSpaceOnUse">
<stop stop-color="#8F3692"/>
<stop offset="1" stop-color="#542891"/>
</linearGradient>
<linearGradient id="paint30_linear" x1="305.594" y1="356.143" x2="167.143" y2="356.143" gradientUnits="userSpaceOnUse">
<stop offset="0.0235" stop-color="#F16680"/>
<stop offset="1" stop-color="#D33775"/>
</linearGradient>
<linearGradient id="paint31_linear" x1="403.861" y1="391.705" x2="214.938" y2="304.672" gradientUnits="userSpaceOnUse">
<stop offset="0.0284" stop-color="#FFCBB7"/>
<stop offset="1" stop-color="#E4A887"/>
</linearGradient>
<linearGradient id="paint32_linear" x1="372.761" y1="330.571" x2="299.04" y2="330.571" gradientUnits="userSpaceOnUse">
<stop offset="0.0284" stop-color="#FFCBB7"/>
<stop offset="1" stop-color="#E4A887"/>
</linearGradient>
<linearGradient id="paint33_linear" x1="236.262" y1="326.714" x2="158.282" y2="326.714" gradientUnits="userSpaceOnUse">
<stop offset="0.0235" stop-color="#F16680"/>
<stop offset="1" stop-color="#D33775"/>
</linearGradient>
<linearGradient id="paint34_linear" x1="143.529" y1="106.562" x2="124.208" y2="118.761" gradientUnits="userSpaceOnUse">
<stop offset="0.0739" stop-color="#F16680"/>
<stop offset="0.991" stop-color="#FFBBD2"/>
</linearGradient>
<linearGradient id="paint35_linear" x1="431.072" y1="49.3731" x2="411.751" y2="61.5719" gradientUnits="userSpaceOnUse">
<stop offset="0.0127" stop-color="#FFD54C"/>
<stop offset="0.3774" stop-color="#FFCD4C"/>
<stop offset="0.957" stop-color="#FFB64C"/>
<stop offset="1" stop-color="#FFB44C"/>
</linearGradient>
<linearGradient id="paint36_linear" x1="157.903" y1="43.5285" x2="140.913" y2="54.2554" gradientUnits="userSpaceOnUse">
<stop stop-color="#8F3692"/>
<stop offset="1" stop-color="#542891"/>
</linearGradient>
<linearGradient id="paint37_linear" x1="406.863" y1="117.273" x2="388.27" y2="117.273" gradientUnits="userSpaceOnUse">
<stop offset="0.00280449" stop-color="#DFA5FF"/>
<stop offset="1" stop-color="#B27DFF"/>
</linearGradient>
<linearGradient id="paint38_linear" x1="86.2309" y1="121.866" x2="67.6387" y2="121.866" gradientUnits="userSpaceOnUse">
<stop offset="0.0127" stop-color="#FFD54C"/>
<stop offset="0.3774" stop-color="#FFCD4C"/>
<stop offset="0.957" stop-color="#FFB64C"/>
<stop offset="1" stop-color="#FFB44C"/>
</linearGradient>
<linearGradient id="paint39_linear" x1="36.1072" y1="428.416" x2="162.406" y2="564.009" gradientUnits="userSpaceOnUse">
<stop offset="0.00280449" stop-color="#DFA5FF"/>
<stop offset="1" stop-color="#B27DFF"/>
</linearGradient>
</defs>
</svg>
