<svg width="601" height="255" viewBox="0 0 601 255" fill="none" xmlns="http://www.w3.org/2000/svg">
<path fill-rule="evenodd" clip-rule="evenodd" d="M764.762 -6.08524C771.701 45.2691 745.56 98.8038 718.916 151.944C692.816 203.998 666.079 256.642 612.572 297.451C555.288 341.14 483.751 384.249 412.097 385.947C342.094 387.606 313.522 329.457 257.037 305.877C197.422 280.99 105.708 290.61 73.2732 244.505C39.4987 196.495 49.326 125.842 89.9289 68.3381C128.42 13.8249 208.958 -13.0223 277.879 -45.2663C333.684 -71.3743 390.654 -84.3296 450.198 -100.211C527.56 -120.845 611.285 -171.869 677.858 -151.948C744.384 -132.042 756.977 -63.7122 764.762 -6.08524Z" fill="#FAEFFF"/>
</svg>
