<svg width="1260" height="537" viewBox="0 0 1260 537" fill="none" xmlns="http://www.w3.org/2000/svg">
<path d="M364.486 166.5C306.405 148.185 298.039 59.0377 229.334 26.6851C189.575 7.96302 158.748 3.39562 119.856 0.642181C67.6764 -3.04993 12.2662 9.26752 -21.8275 35.2896C-55.9213 61.3012 -65.4362 100.944 -40.7614 131.149C-6.6676 172.909 116.955 144.5 92.4885 276.5C75.51 368.101 -109.652 305.502 -107.989 358.172C-107.35 378.332 -92.2698 397.106 -74.5353 413.626C-50.2443 436.238 -19.8125 456.461 17.1277 469.936C74.9207 491.015 137.799 485.299 201.285 485.278C279.275 485.247 317.941 492.665 403.498 514C469.136 530.368 495.476 536.5 568.485 536.5C617.985 536.5 1296 503 1278 460.5C1262.04 422.819 1297 434 1278 399.5C1220.5 330 591.216 299.661 601.803 241.307C606.041 217.997 532.193 255.44 486.986 245C474.656 242.153 549.735 179.686 537.485 181C519.095 182.971 523.504 182.189 504.986 181C467.326 178.559 398.403 177.201 364.486 166.5Z" fill="#F6E3FF"/>
</svg>
