<svg width="760" height="537" viewBox="0 0 760 537" fill="none" xmlns="http://www.w3.org/2000/svg">
<path d="M472.489 166.5C414.408 148.185 406.04 59.0377 337.334 26.6851C297.575 7.96302 266.748 3.39562 227.857 0.642181C175.677 -3.04993 120.266 9.26752 86.1727 35.2896C52.079 61.3012 42.5641 100.944 67.2389 131.149C101.333 172.909 224.955 144.5 200.489 276.5C183.51 368.101 -1.65222 305.502 0.0108643 358.172C0.650513 378.332 15.7305 397.106 33.465 413.626C57.7559 436.238 88.1876 456.461 125.128 469.936C182.921 491.015 245.799 485.299 309.285 485.278C387.275 485.247 445.431 421.165 530.989 442.5C596.627 458.868 603.479 536.5 676.489 536.5C725.989 536.5 773.989 502 755.989 459.5C740.03 421.819 745.004 367.48 750.489 350.5C769.039 292.991 699.22 299.661 709.806 241.307C714.044 217.997 640.197 255.44 594.989 245C582.659 242.153 657.738 179.686 645.489 181C627.099 182.971 631.507 182.189 612.989 181C575.329 178.559 506.407 177.201 472.489 166.5Z" fill="#F6E3FF"/>
<path fill-rule="evenodd" clip-rule="evenodd" d="M680.429 203.061C681.971 202.21 683.595 201.134 684.109 199.45C684.622 197.766 683.94 195.935 683.068 194.408C682.3 193.064 680.776 192.499 679.578 191.519C678.243 190.429 677.364 188.56 675.652 188.349C673.899 188.134 672.381 189.449 670.931 190.458C669.421 191.508 667.806 192.562 667.137 194.274C666.441 196.053 666.397 198.156 667.255 199.861C668.07 201.48 669.893 202.226 671.532 203.002C672.917 203.659 674.382 203.956 675.916 203.966C677.488 203.976 679.051 203.82 680.429 203.061Z" fill="#F6E3FF"/>
</svg>
