<svg width="213" height="117" viewBox="0 0 213 117" fill="none" xmlns="http://www.w3.org/2000/svg">
<path d="M104.271 116.269C107.639 116.762 111.047 116.926 114.446 116.758C122.643 116.347 130.705 113.979 137.594 109.528C140.648 107.554 143.562 105.129 145.143 101.871C147.289 97.4475 146.539 91.8472 143.474 87.9941C142.357 86.6043 140.982 85.4395 139.424 84.5622C139.193 84.4326 138.957 84.308 138.718 84.1883C136.122 82.8918 133.206 82.3616 130.315 82.6606C125.401 83.1939 120.866 86.1747 118.246 90.3394C115.912 94.0529 115.099 98.4344 114.619 102.826C114.529 103.653 114.451 104.483 114.376 105.308C114.793 107.698 115.45 110.041 116.336 112.302C116.381 112.412 116.418 112.525 116.446 112.641C115.944 113.722 115.467 114.814 115.013 115.916C114.587 116.145 114.11 116.265 113.625 116.264H104.291L104.271 116.269Z" fill="#F2F2F2"/>
<path d="M115.207 116.481C115.269 116.509 115.335 116.524 115.403 116.525C115.471 116.527 115.538 116.515 115.601 116.49C115.664 116.466 115.722 116.429 115.77 116.382C115.819 116.335 115.858 116.279 115.884 116.217C115.924 116.122 115.962 116.028 116.002 115.933C116.364 115.061 116.743 114.197 117.139 113.341C122.216 102.299 129.788 92.5673 139.268 84.9036C139.322 84.8657 139.365 84.814 139.393 84.754C139.42 84.6939 139.431 84.6276 139.424 84.5621C139.41 84.487 139.379 84.416 139.334 84.3543C139.289 84.2926 139.23 84.2419 139.162 84.2059C139.094 84.17 139.019 84.1497 138.942 84.1466C138.865 84.1436 138.789 84.1578 138.718 84.1883C138.681 84.2053 138.645 84.2271 138.613 84.2531C134.557 87.5334 130.836 91.2024 127.505 95.2068C124.172 99.2075 121.238 103.519 118.743 108.082C118.063 109.328 117.417 110.592 116.805 111.873C116.685 112.127 116.564 112.384 116.446 112.641C115.945 113.722 115.467 114.814 115.013 115.915C115.006 115.933 114.998 115.953 114.991 115.97C114.968 116.017 114.955 116.069 114.953 116.121C114.952 116.174 114.962 116.226 114.982 116.274C115.003 116.323 115.033 116.366 115.072 116.402C115.111 116.437 115.157 116.465 115.207 116.481Z" fill="white"/>
<path d="M129.778 83.6101C124.372 83.6101 119.99 79.2583 119.99 73.8901C119.99 68.5219 124.372 64.17 129.778 64.17C135.184 64.17 139.566 68.5219 139.566 73.8901C139.566 79.2583 135.184 83.6101 129.778 83.6101Z" fill="#DF2C65"/>
<path d="M128.905 77.5981C128.685 77.5985 128.47 77.5278 128.294 77.3966L128.283 77.3885L125.983 75.6396C125.876 75.5585 125.787 75.4575 125.719 75.3421C125.652 75.2267 125.609 75.0993 125.591 74.9671C125.573 74.835 125.582 74.7007 125.617 74.5719C125.651 74.4431 125.711 74.3223 125.793 74.2165C125.874 74.1107 125.976 74.0219 126.092 73.9551C126.209 73.8884 126.337 73.8451 126.47 73.8276C126.603 73.8101 126.738 73.8189 126.868 73.8533C126.998 73.8878 127.119 73.9473 127.226 74.0284L128.716 75.163L132.237 70.603C132.319 70.4973 132.42 70.4085 132.537 70.3418C132.653 70.2752 132.781 70.2319 132.914 70.2144C133.047 70.197 133.182 70.2057 133.312 70.2402C133.442 70.2746 133.563 70.3341 133.67 70.4152C133.885 70.5792 134.026 70.8215 134.061 71.0882C134.097 71.355 134.024 71.6248 133.859 71.8385L129.718 77.2021C129.622 77.3257 129.499 77.4257 129.358 77.4944C129.217 77.5631 129.062 77.5986 128.905 77.5981Z" fill="white"/>
<path d="M153.612 33.75C149.6 33.75 146.348 30.5207 146.348 26.5372C146.348 22.5537 149.6 19.3245 153.612 19.3245C157.623 19.3245 160.875 22.5537 160.875 26.5372C160.875 30.5207 157.623 33.75 153.612 33.75Z" fill="url(#paint0_linear)"/>
<path d="M159.277 22.6484C158.103 21.4828 157.865 19.8293 158.746 18.9551C159.626 18.081 161.291 18.3172 162.465 19.4827C163.638 20.6483 163.876 22.3018 162.996 23.176C162.116 24.0501 160.451 23.8139 159.277 22.6484Z" fill="url(#paint1_linear)"/>
<path d="M146.04 20.3578C145.551 19.2209 146.392 17.7744 147.918 17.1268C149.445 16.4793 151.079 16.876 151.568 18.0129C152.057 19.1498 151.216 20.5963 149.689 21.2438C148.163 21.8913 146.529 21.4946 146.04 20.3578Z" fill="url(#paint2_linear)"/>
<path d="M133.385 68.1795C133.201 67.8331 133.097 67.4509 133.078 67.0599C133.059 66.669 133.127 66.2787 133.277 65.9165C133.426 65.5544 133.654 65.2293 133.944 64.964C134.234 64.6988 134.579 64.4998 134.954 64.3813L145.449 42.3345L150.25 45.6774L138.424 66.2975C138.583 66.9374 138.5 67.6129 138.191 68.196C137.881 68.779 137.367 69.2292 136.746 69.4612C136.125 69.6932 135.44 69.6908 134.82 69.4546C134.201 69.2184 133.69 68.7647 133.385 68.1795V68.1795Z" fill="#A0616A"/>
<path d="M143.043 46.0125L148.617 48.4876C148.776 48.5581 148.948 48.5937 149.122 48.5922C149.295 48.5906 149.467 48.5519 149.624 48.4787C149.781 48.4054 149.921 48.2994 150.033 48.1678C150.145 48.0362 150.228 47.882 150.275 47.7159L151.918 41.8956C152.277 41.0878 152.298 40.1719 151.977 39.3487C151.656 38.5256 151.02 37.8623 150.207 37.5044C149.395 37.1464 148.473 37.123 147.643 37.4393C146.813 37.7555 146.143 38.3856 145.78 39.1914L142.517 44.2713C142.424 44.4168 142.363 44.5805 142.339 44.7514C142.316 44.9223 142.329 45.0963 142.379 45.2615C142.429 45.4268 142.514 45.5794 142.629 45.709C142.743 45.8386 142.885 45.9421 143.043 46.0125Z" fill="#CCCCCC"/>
<path d="M168.784 70.3653C168.4 70.2767 168.04 70.1056 167.73 69.8641C167.42 69.6226 167.167 69.3164 166.989 68.9673C166.811 68.6181 166.712 68.2344 166.699 67.8432C166.686 67.452 166.76 67.0627 166.915 66.7029L156.976 44.4037L162.662 42.9816L170.644 65.3482C171.236 65.6472 171.696 66.1512 171.938 66.7648C172.18 67.3784 172.187 68.0588 171.958 68.6772C171.729 69.2956 171.279 69.8091 170.694 70.1202C170.109 70.4313 169.429 70.5185 168.784 70.3653H168.784Z" fill="#A0616A"/>
<path d="M171.492 110.785L168.601 111.83L163.164 101.253L167.432 99.7102L171.492 110.785Z" fill="#A0616A"/>
<path d="M164.004 116.512L173.091 113.227L171.812 109.74L166.236 111.756C165.305 112.093 164.547 112.783 164.128 113.675C163.71 114.567 163.665 115.587 164.004 116.512Z" fill="#2F2E41"/>
<path d="M164.655 104.698C164.833 104.698 165.008 104.659 165.168 104.584L168.491 103.021C168.763 102.894 168.978 102.67 169.093 102.394C169.207 102.118 169.214 101.809 169.111 101.528L159.733 75.7403C159.655 75.5268 159.518 75.3394 159.338 75.2001C159.157 75.0608 158.941 74.9752 158.713 74.9533C158.485 74.9313 158.256 74.9739 158.052 75.0761C157.848 75.1783 157.677 75.3359 157.559 75.5306L152.599 83.7396C152.489 83.9225 152.43 84.1313 152.427 84.3445C152.425 84.5577 152.48 84.7676 152.586 84.9529L163.601 104.094C163.708 104.278 163.861 104.431 164.047 104.537C164.232 104.643 164.442 104.698 164.655 104.698Z" fill="#FFB94C"/>
<path d="M153.383 34.3805C149.978 34.3805 147.218 31.6398 147.218 28.2591C147.218 24.8783 149.978 22.1377 153.383 22.1377C156.787 22.1377 159.547 24.8783 159.547 28.2591C159.547 31.6398 156.787 34.3805 153.383 34.3805Z" fill="#A0616A"/>
<path d="M144.66 56.0906L155.574 53.1099L161.379 41.5808C161.658 41.0269 161.79 40.4115 161.762 39.7929C161.734 39.1742 161.547 38.573 161.219 38.0463C160.891 37.5195 160.433 37.0847 159.889 36.7832C159.344 36.4816 158.731 36.3233 158.107 36.3234H149.424C148.522 36.3228 147.652 36.6531 146.981 37.2508C144.652 39.3231 139.758 45.2972 144.613 55.9864L144.66 56.0906Z" fill="#DF4A7A"/>
<path d="M158.321 48.3917L163.85 45.8212C164.008 45.7481 164.147 45.6421 164.26 45.5106C164.372 45.379 164.455 45.225 164.502 45.0589C164.549 44.8928 164.559 44.7186 164.532 44.5482C164.505 44.3777 164.442 44.2151 164.346 44.0712L160.985 39.0311C160.604 38.2339 159.92 37.6194 159.083 37.3223C158.246 37.0253 157.324 37.0699 156.52 37.4464C155.717 37.8229 155.096 38.5006 154.794 39.3309C154.493 40.1612 154.535 41.0763 154.912 41.8756L156.65 47.6486C156.7 47.8139 156.785 47.9665 156.899 48.0962C157.014 48.2259 157.155 48.3295 157.314 48.4C157.472 48.4705 157.644 48.5063 157.818 48.5049C157.992 48.5034 158.163 48.4648 158.321 48.3917Z" fill="#DF4A7A"/>
<path d="M151.632 113.675H148.555L147.091 101.889L151.633 101.889L151.632 113.675Z" fill="#A0616A"/>
<path d="M142.621 116.512L152.292 116.512L152.292 112.802L146.358 112.801C145.367 112.801 144.416 113.192 143.716 113.888C143.015 114.584 142.621 115.528 142.621 116.512Z" fill="#2F2E41"/>
<path d="M150.472 109.184C150.749 109.184 151.017 109.09 151.232 108.917C151.447 108.743 151.595 108.502 151.651 108.233C152.536 104.095 157.129 82.8982 160.714 71.98C164.362 60.8717 158.15 55.8119 156.867 54.9105C156.731 54.8147 156.622 54.6846 156.553 54.5335L155.621 52.4983C155.525 52.2882 155.369 52.1101 155.174 51.9852C154.978 51.8603 154.75 51.7938 154.518 51.7938H154.51C147.526 51.8352 145.178 54.0216 144.492 54.9598C144.391 55.0995 144.322 55.2594 144.289 55.4284C144.257 55.5973 144.261 55.7713 144.303 55.9383L148.722 74.0437C148.75 74.1559 148.756 74.2723 148.741 74.3868L144.344 107.26C144.323 107.418 144.334 107.579 144.376 107.733C144.418 107.887 144.49 108.031 144.589 108.156C144.687 108.282 144.81 108.387 144.95 108.465C145.09 108.543 145.244 108.593 145.404 108.611L150.33 109.176C150.377 109.181 150.425 109.184 150.472 109.184Z" fill="#FFCC4C"/>
<path d="M159.859 24.4087C158.451 25.3728 156.779 25.8859 155.068 25.8792C155.678 26.2993 156.373 26.5832 157.104 26.7111C154.83 27.1956 152.479 27.2087 150.199 26.7496C149.692 26.6689 149.203 26.5021 148.753 26.2566C148.529 26.1323 148.334 25.9625 148.18 25.7584C148.026 25.5542 147.918 25.3202 147.861 25.0716C147.71 24.2121 148.384 23.4312 149.085 22.905C150.158 22.1115 151.395 21.5649 152.707 21.3045C154.019 21.0442 155.373 21.0767 156.671 21.3997C157.518 21.6172 158.367 21.9847 158.917 22.6605C159.468 23.3362 159.631 24.378 159.106 25.0739L159.859 24.4087Z" fill="url(#paint3_linear)"/>
<path d="M67.3662 51.0925C65.5642 51.0925 64.1034 49.6419 64.1034 47.8524C64.1034 46.063 65.5642 44.6124 67.3662 44.6124C69.1681 44.6124 70.6289 46.063 70.6289 47.8524C70.6289 49.6419 69.1681 51.0925 67.3662 51.0925Z" fill="#DF2C65"/>
<path d="M67.073 49.0884C66.9996 49.0886 66.9281 49.065 66.8694 49.0213L66.8657 49.0185L66.099 48.4356C66.0634 48.4086 66.0334 48.3749 66.0109 48.3364C65.9884 48.2979 65.9738 48.2554 65.9678 48.2113C65.9619 48.1672 65.9648 48.1224 65.9763 48.0794C65.9879 48.0364 66.0078 47.9961 66.0351 47.9608C66.0623 47.9255 66.0963 47.8958 66.1351 47.8736C66.1739 47.8513 66.2168 47.8369 66.2612 47.8311C66.3056 47.8253 66.3508 47.8283 66.394 47.8399C66.4373 47.8514 66.4778 47.8714 66.5133 47.8985L67.01 48.2767L68.1836 46.7567C68.2109 46.7215 68.2448 46.6919 68.2835 46.6696C68.3223 46.6474 68.365 46.633 68.4094 46.6272C68.4537 46.6214 68.4988 46.6243 68.542 46.6358C68.5852 46.6472 68.6257 46.6671 68.6612 46.6941L68.6539 46.7039L68.6614 46.6943C68.733 46.7489 68.7799 46.8295 68.7917 46.9184C68.8035 47.0074 68.7793 47.0973 68.7245 47.1685L67.344 48.9564C67.3121 48.9976 67.271 49.0309 67.224 49.0538C67.177 49.0767 67.1253 49.0886 67.073 49.0884Z" fill="white"/>
<path d="M67.3662 60.5634C65.5642 60.5634 64.1034 59.1128 64.1034 57.3234C64.1034 55.534 65.5642 54.0834 67.3662 54.0834C69.1681 54.0834 70.6289 55.534 70.6289 57.3234C70.6289 59.1128 69.1681 60.5634 67.3662 60.5634Z" fill="#DF2C65"/>
<path d="M67.073 58.5594C66.9996 58.5595 66.9281 58.5359 66.8694 58.4922L66.8657 58.4895L66.099 57.9065C66.0634 57.8795 66.0334 57.8458 66.0109 57.8074C65.9884 57.7689 65.9738 57.7264 65.9678 57.6823C65.9619 57.6382 65.9648 57.5933 65.9763 57.5504C65.9879 57.5074 66.0078 57.467 66.0351 57.4317C66.0623 57.3964 66.0963 57.3668 66.1351 57.3445C66.1739 57.3223 66.2168 57.3078 66.2612 57.3021C66.3056 57.2963 66.3508 57.2992 66.394 57.3108C66.4373 57.3224 66.4778 57.3423 66.5133 57.3695L67.01 57.7476L68.1836 56.2277C68.2109 56.1924 68.2448 56.1628 68.2835 56.1406C68.3223 56.1184 68.365 56.1039 68.4094 56.0981C68.4537 56.0923 68.4988 56.0952 68.542 56.1067C68.5852 56.1182 68.6257 56.138 68.6612 56.1651L68.6539 56.1749L68.6614 56.1652C68.733 56.2199 68.7799 56.3005 68.7917 56.3894C68.8035 56.4783 68.7793 56.5682 68.7245 56.6395L67.344 58.4273C67.3121 58.4685 67.271 58.5019 67.224 58.5248C67.177 58.5477 67.1253 58.5595 67.073 58.5594Z" fill="white"/>
<path d="M65.6084 71.5295C63.8064 71.5295 62.3456 70.0789 62.3456 68.2895C62.3456 66.5 63.8064 65.0494 65.6084 65.0494C67.4103 65.0494 68.8711 66.5 68.8711 68.2895C68.8711 70.0789 67.4103 71.5295 65.6084 71.5295Z" fill="#DF2C65"/>
<path d="M65.3152 69.5254C65.2418 69.5256 65.1703 69.502 65.1116 69.4583L65.108 69.4556L64.3412 68.8726C64.3055 68.8456 64.2756 68.8119 64.2531 68.7734C64.2306 68.735 64.216 68.6925 64.21 68.6483C64.2041 68.6042 64.207 68.5594 64.2185 68.5164C64.2301 68.4734 64.25 68.4331 64.2773 68.3978C64.3045 68.3625 64.3385 68.3328 64.3773 68.3106C64.4161 68.2883 64.459 68.2739 64.5034 68.2681C64.5478 68.2623 64.593 68.2653 64.6362 68.2769C64.6795 68.2884 64.72 68.3084 64.7555 68.3355L65.2522 68.7137L66.4259 67.1937C66.4531 67.1585 66.487 67.1289 66.5258 67.1067C66.5645 67.0844 66.6073 67.07 66.6516 67.0642C66.696 67.0584 66.7411 67.0613 66.7843 67.0728C66.8275 67.0843 66.868 67.1041 66.9035 67.1311L66.8962 67.141L66.9037 67.1313C66.9753 67.1859 67.0222 67.2665 67.034 67.3555C67.0458 67.4444 67.0216 67.5343 66.9667 67.6055L65.5862 69.3934C65.5543 69.4346 65.5132 69.4679 65.4662 69.4908C65.4192 69.5137 65.3676 69.5256 65.3152 69.5254Z" fill="white"/>
<path d="M35.9308 97.1137C35.9646 97.1137 35.9859 97.1128 35.9934 97.1124L40.0441 97.1128V96.5197H35.9787C35.8846 96.523 33.9642 96.5769 32.1948 94.4449C29.5581 91.2674 27.3927 83.4015 32.0511 63.9728C38.3148 37.8482 33.0906 14.7686 30.5538 6.05832C30.4288 5.62739 30.4064 5.1735 30.4884 4.73251C30.5705 4.29152 30.7547 3.87552 31.0264 3.51738C31.2982 3.15923 31.6501 2.86875 32.0544 2.66889C32.4587 2.46903 32.9042 2.36527 33.3558 2.36581H93.8504C94.3104 2.36642 94.7636 2.47471 95.1735 2.68189C95.5834 2.88907 95.9383 3.18931 96.2095 3.55823C97.2841 5.0262 98.7589 7.8463 99.6818 12.9455L100.27 12.8407C99.3267 7.63069 97.804 4.72762 96.6926 3.20955C96.3659 2.76502 95.9384 2.40324 95.4445 2.15359C94.9507 1.90394 94.4046 1.77344 93.8504 1.77271H33.3558C32.8116 1.77219 32.2747 1.89734 31.7876 2.13828C31.3005 2.37922 30.8765 2.72935 30.549 3.161C30.2216 3.59265 29.9998 4.094 29.901 4.62543C29.8022 5.15687 29.8293 5.70383 29.98 6.2231C32.5037 14.8882 37.7009 37.8481 31.47 63.8355C26.7462 83.5375 29.0171 91.5738 31.7539 94.8461C33.5591 97.0043 35.548 97.1137 35.9308 97.1137Z" fill="#E6E6E6"/>
<path d="M46.8292 107.938C46.863 107.938 46.8843 107.937 46.8917 107.936L50.9425 107.937V107.344H46.8771C46.7825 107.347 44.8626 107.401 43.0932 105.269C40.4565 102.091 38.2911 94.2255 42.9494 74.7968C49.2132 48.6722 43.989 25.5925 41.4521 16.8823C41.3272 16.4514 41.3048 15.9975 41.3868 15.5565C41.4689 15.1155 41.6531 14.6995 41.9248 14.3414C42.1966 13.9832 42.5485 13.6927 42.9528 13.4929C43.3571 13.293 43.8026 13.1893 44.2542 13.1898H104.749C105.209 13.1904 105.662 13.2987 106.072 13.5059C106.482 13.713 106.837 14.0133 107.108 14.3822C108.183 15.8502 109.657 18.6703 110.58 23.7695L111.168 23.6647C110.225 18.4547 108.702 15.5516 107.591 14.0335C107.264 13.589 106.837 13.2272 106.343 12.9776C105.849 12.7279 105.303 12.5974 104.749 12.5967H44.2542C43.71 12.5962 43.1731 12.7213 42.686 12.9623C42.1989 13.2032 41.7748 13.5533 41.4474 13.985C41.12 14.4166 40.8982 14.918 40.7994 15.4494C40.7006 15.9808 40.7277 16.5278 40.8784 17.0471C43.4021 25.7121 48.5993 48.672 42.3684 74.6595C37.6446 94.3615 39.9155 102.398 42.6523 105.67C44.4574 107.828 46.4464 107.938 46.8292 107.938Z" fill="#CCCCCC"/>
<path d="M51.4865 83.712C57.7183 57.7246 52.5206 34.7629 49.9957 26.0996C49.8454 25.5803 49.8186 25.0334 49.9175 24.5021C50.0164 23.9708 50.2383 23.4695 50.5656 23.0379C50.8929 22.6063 51.3168 22.2561 51.8037 22.0149C52.2906 21.7738 52.8273 21.6483 53.3714 21.6483H113.867C114.421 21.6489 114.967 21.7791 115.461 22.0286C115.955 22.278 116.382 22.6396 116.709 23.0839C119.151 26.4186 124.218 37.477 118.558 68.0752C115.531 84.4447 115.577 95.6053 116.565 102.958C117.12 107.097 117.976 110.028 118.752 112.005L118.834 112.214C118.998 112.614 119.083 113.041 119.085 113.473C119.091 113.96 118.993 114.443 118.797 114.89C118.601 115.337 118.312 115.737 117.948 116.065C117.712 116.285 117.444 116.47 117.153 116.613C116.911 116.735 116.656 116.828 116.392 116.89C116.124 116.955 115.848 116.987 115.572 116.987H56.0092C56.0016 116.987 55.9816 116.989 55.9464 116.989C55.5649 116.989 53.5746 116.88 51.7701 114.721C49.0344 111.449 46.7631 103.414 51.4865 83.712ZM52.2119 114.32C53.9812 116.454 55.9012 116.399 55.9941 116.396H115.572C116.049 116.396 116.518 116.28 116.94 116.058C117.361 115.836 117.721 115.515 117.989 115.123C118.224 114.784 118.382 114.398 118.452 113.992C118.521 113.586 118.501 113.17 118.393 112.772C118.364 112.657 118.327 112.544 118.282 112.433C117.396 110.173 116.74 107.83 116.322 105.44C114.906 97.7761 114.643 85.9501 117.971 67.968C123.588 37.5967 118.621 26.7052 116.227 23.4328C115.955 23.0644 115.6 22.7647 115.19 22.5577C114.78 22.3508 114.327 22.2424 113.867 22.2415H53.3714C52.9201 22.2412 52.4748 22.345 52.0708 22.5449C51.6668 22.7447 51.3151 23.0351 51.0435 23.393C50.7719 23.751 50.5878 24.1667 50.5057 24.6075C50.4236 25.0482 50.4457 25.5019 50.5705 25.9326C53.1078 34.6433 58.3307 57.7246 52.0663 83.8491C47.4081 103.277 49.574 111.142 52.2119 114.32Z" fill="#3F3D56"/>
<path d="M80.2241 49.9462H111.392C112.026 49.9462 112.634 49.6962 113.082 49.2513C113.53 48.8064 113.781 48.203 113.781 47.5738C113.781 46.9446 113.53 46.3412 113.082 45.8963C112.634 45.4514 112.026 45.2014 111.392 45.2014H80.2241C79.5905 45.2014 78.9828 45.4514 78.5348 45.8963C78.0868 46.3412 77.8351 46.9446 77.8351 47.5738C77.8351 48.203 78.0868 48.8064 78.5348 49.2513C78.9828 49.6962 79.5905 49.9462 80.2241 49.9462Z" fill="#CCCCCC"/>
<path d="M80.2241 60.1646H111.392C112.026 60.1646 112.634 59.9146 113.082 59.4697C113.53 59.0248 113.781 58.4214 113.781 57.7922C113.781 57.163 113.53 56.5596 113.082 56.1147C112.634 55.6697 112.026 55.4198 111.392 55.4198H80.2241C79.5905 55.4198 78.9828 55.6697 78.5348 56.1147C78.0868 56.5596 77.8351 57.163 77.8351 57.7922C77.8351 58.4214 78.0868 59.0248 78.5348 59.4697C78.9828 59.9146 79.5905 60.1646 80.2241 60.1646Z" fill="#CCCCCC"/>
<path d="M77.7163 70.6322H108.884C109.518 70.6322 110.126 70.3823 110.574 69.9374C111.022 69.4925 111.273 68.889 111.273 68.2598C111.273 67.6306 111.022 67.0272 110.574 66.5823C110.126 66.1374 109.518 65.8875 108.884 65.8875H77.7163C77.0827 65.8875 76.475 66.1374 76.027 66.5823C75.579 67.0272 75.3273 67.6306 75.3273 68.2598C75.3273 68.889 75.579 69.4925 76.027 69.9374C76.475 70.3823 77.0827 70.6322 77.7163 70.6322Z" fill="#CCCCCC"/>
<path d="M75.9585 81.5985H107.127C107.76 81.5985 108.368 81.3486 108.816 80.9037C109.264 80.4587 109.516 79.8553 109.516 79.2261C109.516 78.5969 109.264 77.9935 108.816 77.5486C108.368 77.1037 107.76 76.8538 107.127 76.8538H75.9585C75.3249 76.8538 74.7172 77.1037 74.2692 77.5486C73.8212 77.9935 73.5695 78.5969 73.5695 79.2261C73.5695 79.8553 73.8212 80.4587 74.2692 80.9037C74.7172 81.3486 75.3249 81.5985 75.9585 81.5985Z" fill="#CCCCCC"/>
<path d="M75.9458 31.5254H98.3429C98.6568 31.5257 98.9678 31.4646 99.2579 31.3455C99.548 31.2264 99.8117 31.0517 100.034 30.8314C100.256 30.6111 100.432 30.3495 100.552 30.0615C100.672 29.7735 100.734 29.4648 100.734 29.153C100.734 28.8413 100.672 28.5326 100.552 28.2446C100.432 27.9566 100.256 27.695 100.034 27.4746C99.8117 27.2543 99.548 27.0796 99.2579 26.9605C98.9678 26.8414 98.6568 26.7803 98.3429 26.7806H75.9458C75.3122 26.7806 74.7046 27.0306 74.2565 27.4755C73.8085 27.9204 73.5568 28.5238 73.5568 29.153C73.5568 29.7822 73.8085 30.3856 74.2565 30.8306C74.7046 31.2755 75.3122 31.5254 75.9458 31.5254Z" fill="#DF2C65"/>
<path d="M63.5966 82.4662C61.7947 82.4662 60.3339 81.0156 60.3339 79.2262C60.3339 77.4368 61.7947 75.9862 63.5966 75.9862C65.3986 75.9862 66.8594 77.4368 66.8594 79.2262C66.8594 81.0156 65.3986 82.4662 63.5966 82.4662Z" fill="#CCCCCC"/>
<path d="M74.4507 92.3156H105.619C106.252 92.3156 106.86 92.0656 107.308 91.6207C107.756 91.1758 108.008 90.5724 108.008 89.9432C108.008 89.314 107.756 88.7106 107.308 88.2657C106.86 87.8207 106.252 87.5708 105.619 87.5708H74.4507C73.8171 87.5708 73.2094 87.8207 72.7614 88.2657C72.3134 88.7106 72.0616 89.314 72.0616 89.9432C72.0616 90.5724 72.3134 91.1758 72.7614 91.6207C73.2094 92.0656 73.8171 92.3156 74.4507 92.3156Z" fill="#CCCCCC"/>
<path d="M62.0927 93.1832C60.2908 93.1832 58.83 91.7326 58.83 89.9431C58.83 88.1537 60.2908 86.7031 62.0927 86.7031C63.8947 86.7031 65.3555 88.1537 65.3555 89.9431C65.3555 91.7326 63.8947 93.1832 62.0927 93.1832Z" fill="#CCCCCC"/>
<defs>
<linearGradient id="paint0_linear" x1="153.612" y1="19.3245" x2="153.612" y2="33.75" gradientUnits="userSpaceOnUse">
<stop stop-color="#893592"/>
<stop offset="1" stop-color="#5B2A92"/>
</linearGradient>
<linearGradient id="paint1_linear" x1="162.465" y1="19.4827" x2="159.299" y2="22.6705" gradientUnits="userSpaceOnUse">
<stop stop-color="#893592"/>
<stop offset="1" stop-color="#5B2A92"/>
</linearGradient>
<linearGradient id="paint2_linear" x1="151.568" y1="18.0129" x2="146.052" y2="20.3856" gradientUnits="userSpaceOnUse">
<stop stop-color="#893592"/>
<stop offset="1" stop-color="#5B2A92"/>
</linearGradient>
<linearGradient id="paint3_linear" x1="153.849" y1="21.1307" x2="153.849" y2="27.0845" gradientUnits="userSpaceOnUse">
<stop stop-color="#893592"/>
<stop offset="1" stop-color="#5B2A92"/>
</linearGradient>
</defs>
</svg>
