<svg width="205" height="121" viewBox="0 0 205 121" fill="none" xmlns="http://www.w3.org/2000/svg">
<g clip-path="url(#clip0)">
<path d="M45.459 61.1582C45.3926 62.0762 45.0527 62.7988 44.4395 63.3262C43.8301 63.8535 43.0254 64.1172 42.0254 64.1172C40.9316 64.1172 40.0703 63.75 39.4414 63.0156C38.8164 62.2773 38.5039 61.2656 38.5039 59.9805V59.459C38.5039 58.6387 38.6484 57.916 38.9375 57.291C39.2266 56.666 39.6387 56.1875 40.1738 55.8555C40.7129 55.5195 41.3379 55.3516 42.0488 55.3516C43.0332 55.3516 43.8262 55.6152 44.4277 56.1426C45.0293 56.6699 45.377 57.4102 45.4707 58.3633H43.7129C43.6699 57.8125 43.5156 57.4141 43.25 57.168C42.9883 56.918 42.5879 56.793 42.0488 56.793C41.4629 56.793 41.0234 57.0039 40.7305 57.4258C40.4414 57.8438 40.293 58.4941 40.2852 59.377V60.0215C40.2852 60.9434 40.4238 61.6172 40.7012 62.043C40.9824 62.4688 41.4238 62.6816 42.0254 62.6816C42.5684 62.6816 42.9727 62.5586 43.2383 62.3125C43.5078 62.0625 43.6621 61.6777 43.7012 61.1582H45.459Z" fill="#DF2C65"/>
<path d="M50.5859 64C50.5234 63.875 50.4727 63.6523 50.4336 63.332C49.9297 63.8555 49.3281 64.1172 48.6289 64.1172C48.0039 64.1172 47.4902 63.9414 47.0879 63.5898C46.6895 63.2344 46.4902 62.7852 46.4902 62.2422C46.4902 61.582 46.7402 61.0703 47.2402 60.707C47.7441 60.3398 48.4512 60.1562 49.3613 60.1562H50.416V59.6582C50.416 59.2793 50.3027 58.9785 50.0762 58.7559C49.8496 58.5293 49.5156 58.416 49.0742 58.416C48.6875 58.416 48.3633 58.5137 48.1016 58.709C47.8398 58.9043 47.709 59.1406 47.709 59.418H46.6191C46.6191 59.1016 46.7305 58.7969 46.9531 58.5039C47.1797 58.207 47.4844 57.9727 47.8672 57.8008C48.2539 57.6289 48.6777 57.543 49.1387 57.543C49.8691 57.543 50.4414 57.7266 50.8555 58.0938C51.2695 58.457 51.4844 58.959 51.5 59.5996V62.5176C51.5 63.0996 51.5742 63.5625 51.7227 63.9062V64H50.5859ZM48.7871 63.1738C49.127 63.1738 49.4492 63.0859 49.7539 62.9102C50.0586 62.7344 50.2793 62.5059 50.416 62.2246V60.9238H49.5664C48.2383 60.9238 47.5742 61.3125 47.5742 62.0898C47.5742 62.4297 47.6875 62.6953 47.9141 62.8867C48.1406 63.0781 48.4316 63.1738 48.7871 63.1738ZM54.377 64H53.293V55H54.377V64ZM55.8301 60.7715C55.8301 60.1504 55.9512 59.5918 56.1934 59.0957C56.4395 58.5996 56.7793 58.2168 57.2129 57.9473C57.6504 57.6777 58.1484 57.543 58.707 57.543C59.5703 57.543 60.2676 57.8418 60.7988 58.4395C61.334 59.0371 61.6016 59.832 61.6016 60.8242V60.9004C61.6016 61.5176 61.4824 62.0723 61.2441 62.5645C61.0098 63.0527 60.6719 63.4336 60.2305 63.707C59.793 63.9805 59.2891 64.1172 58.7188 64.1172C57.8594 64.1172 57.1621 63.8184 56.627 63.2207C56.0957 62.623 55.8301 61.832 55.8301 60.8477V60.7715ZM56.9199 60.9004C56.9199 61.6035 57.082 62.168 57.4062 62.5938C57.7344 63.0195 58.1719 63.2324 58.7188 63.2324C59.2695 63.2324 59.707 63.0176 60.0312 62.5879C60.3555 62.1543 60.5176 61.5488 60.5176 60.7715C60.5176 60.0762 60.3516 59.5137 60.0195 59.084C59.6914 58.6504 59.2539 58.4336 58.707 58.4336C58.1719 58.4336 57.7402 58.6465 57.4121 59.0723C57.084 59.498 56.9199 60.1074 56.9199 60.9004ZM66.0254 58.6328C65.8613 58.6055 65.6836 58.5918 65.4922 58.5918C64.7812 58.5918 64.2988 58.8945 64.0449 59.5V64H62.9609V57.6602H64.0156L64.0332 58.3926C64.3887 57.8262 64.8926 57.543 65.5449 57.543C65.7559 57.543 65.916 57.5703 66.0254 57.625V58.6328ZM68.2051 64H67.1211V57.6602H68.2051V64ZM67.0332 55.9785C67.0332 55.8027 67.0859 55.6543 67.1914 55.5332C67.3008 55.4121 67.4609 55.3516 67.6719 55.3516C67.8828 55.3516 68.043 55.4121 68.1523 55.5332C68.2617 55.6543 68.3164 55.8027 68.3164 55.9785C68.3164 56.1543 68.2617 56.3008 68.1523 56.418C68.043 56.5352 67.8828 56.5938 67.6719 56.5938C67.4609 56.5938 67.3008 56.5352 67.1914 56.418C67.0859 56.3008 67.0332 56.1543 67.0332 55.9785ZM72.5762 64.1172C71.7168 64.1172 71.0176 63.8359 70.4785 63.2734C69.9395 62.707 69.6699 61.9512 69.6699 61.0059V60.8066C69.6699 60.1777 69.7891 59.6172 70.0273 59.125C70.2695 58.6289 70.6055 58.2422 71.0352 57.9648C71.4688 57.6836 71.9375 57.543 72.4414 57.543C73.2656 57.543 73.9062 57.8145 74.3633 58.3574C74.8203 58.9004 75.0488 59.6777 75.0488 60.6895V61.1406H70.7539C70.7695 61.7656 70.9512 62.2715 71.2988 62.6582C71.6504 63.041 72.0957 63.2324 72.6348 63.2324C73.0176 63.2324 73.3418 63.1543 73.6074 62.998C73.873 62.8418 74.1055 62.6348 74.3047 62.377L74.9668 62.8926C74.4355 63.709 73.6387 64.1172 72.5762 64.1172ZM72.4414 58.4336C72.0039 58.4336 71.6367 58.5938 71.3398 58.9141C71.043 59.2305 70.8594 59.6758 70.7891 60.25H73.9648V60.168C73.9336 59.6172 73.7852 59.1914 73.5195 58.8906C73.2539 58.5859 72.8945 58.4336 72.4414 58.4336ZM80 62.3184C80 62.0254 79.8887 61.7988 79.666 61.6387C79.4473 61.4746 79.0625 61.334 78.5117 61.2168C77.9648 61.0996 77.5293 60.959 77.2051 60.7949C76.8848 60.6309 76.6465 60.4355 76.4902 60.209C76.3379 59.9824 76.2617 59.7129 76.2617 59.4004C76.2617 58.8809 76.4805 58.4414 76.918 58.082C77.3594 57.7227 77.9219 57.543 78.6055 57.543C79.3242 57.543 79.9062 57.7285 80.3516 58.0996C80.8008 58.4707 81.0254 58.9453 81.0254 59.5234H79.9355C79.9355 59.2266 79.8086 58.9707 79.5547 58.7559C79.3047 58.541 78.9883 58.4336 78.6055 58.4336C78.2109 58.4336 77.9023 58.5195 77.6797 58.6914C77.457 58.8633 77.3457 59.0879 77.3457 59.3652C77.3457 59.627 77.4492 59.8242 77.6562 59.957C77.8633 60.0898 78.2363 60.2168 78.7754 60.3379C79.3184 60.459 79.7578 60.6035 80.0938 60.7715C80.4297 60.9395 80.6777 61.1426 80.8379 61.3809C81.002 61.6152 81.084 61.9023 81.084 62.2422C81.084 62.8086 80.8574 63.2637 80.4043 63.6074C79.9512 63.9473 79.3633 64.1172 78.6406 64.1172C78.1328 64.1172 77.6836 64.0273 77.293 63.8477C76.9023 63.668 76.5957 63.418 76.373 63.0977C76.1543 62.7734 76.0449 62.4238 76.0449 62.0488H77.1289C77.1484 62.4121 77.293 62.7012 77.5625 62.916C77.8359 63.127 78.1953 63.2324 78.6406 63.2324C79.0508 63.2324 79.3789 63.1504 79.625 62.9863C79.875 62.8184 80 62.5957 80 62.3184Z" fill="black"/>
<path d="M185.027 121C201.142 92.2904 170.233 77.587 166.255 107.904C166.053 103.991 165.84 100.016 164.549 96.3201C162.59 88.6531 151.941 83.0974 146.856 90.8584C144.167 95.6674 147.732 102.413 144.64 106.97C142.69 95.5015 126.157 98.1919 127.898 109.699C129.205 115.228 135.004 118.445 139.633 120.946L185.027 121Z" fill="#F2F2F2"/>
<path d="M102.944 40.7268H37.9698C37.8918 40.7268 37.817 40.6957 37.7619 40.6404C37.7068 40.585 37.6758 40.51 37.6758 40.4317C37.6758 40.3534 37.7068 40.2784 37.7619 40.223C37.817 40.1677 37.8918 40.1366 37.9698 40.1366H102.944C103.022 40.1366 103.096 40.1677 103.152 40.223C103.207 40.2784 103.238 40.3534 103.238 40.4317C103.238 40.51 103.207 40.585 103.152 40.6404C103.096 40.6957 103.022 40.7268 102.944 40.7268Z" fill="#E6E6E6"/>
<path d="M88.716 40.7267H51.7901C51.7121 40.7267 51.6373 40.6956 51.5822 40.6403C51.5271 40.5849 51.4961 40.5099 51.4961 40.4316C51.4961 40.3533 51.5271 40.2783 51.5822 40.2229C51.6373 40.1676 51.7121 40.1365 51.7901 40.1365H88.716C88.794 40.1365 88.8687 40.1676 88.9239 40.2229C88.979 40.2783 89.01 40.3533 89.01 40.4316C89.01 40.5099 88.979 40.5849 88.9239 40.6403C88.8687 40.6956 88.794 40.7267 88.716 40.7267Z" fill="#3F3D56"/>
<path d="M70.6026 40.7269C70.5246 40.7269 70.4498 40.6958 70.3947 40.6404C70.3396 40.5851 70.3086 40.51 70.3086 40.4317V21.8391C70.3086 21.7608 70.3396 21.6857 70.3947 21.6304C70.4498 21.575 70.5246 21.5439 70.6026 21.5439C70.6806 21.5439 70.7554 21.575 70.8105 21.6304C70.8656 21.6857 70.8966 21.7608 70.8966 21.8391V40.4317C70.8966 40.51 70.8656 40.5851 70.8105 40.6404C70.7553 40.6958 70.6806 40.7269 70.6026 40.7269Z" fill="#3F3D56"/>
<path d="M89.126 40.7268C89.0481 40.7268 88.9733 40.6957 88.9181 40.6403C88.863 40.585 88.832 40.5099 88.832 40.4317V3.24629C88.832 3.16802 88.863 3.09296 88.9181 3.03761C88.9733 2.98226 89.0481 2.95117 89.126 2.95117C89.204 2.95117 89.2788 2.98226 89.3339 3.03761C89.389 3.09296 89.42 3.16802 89.42 3.24629V40.4317C89.42 40.5099 89.389 40.585 89.3339 40.6403C89.2788 40.6957 89.204 40.7268 89.126 40.7268Z" fill="#3F3D56"/>
<path d="M27.9762 6.49268C29.7623 6.49268 31.2102 5.03925 31.2102 3.24634C31.2102 1.45344 29.7623 0 27.9762 0C26.1901 0 24.7422 1.45344 24.7422 3.24634C24.7422 5.03925 26.1901 6.49268 27.9762 6.49268Z" fill="#E0E0E0"/>
<path d="M27.9762 25.0855C29.7623 25.0855 31.2102 23.632 31.2102 21.8391C31.2102 20.0462 29.7623 18.5928 27.9762 18.5928C26.1901 18.5928 24.7422 20.0462 24.7422 21.8391C24.7422 23.632 26.1901 25.0855 27.9762 25.0855Z" fill="#E0E0E0"/>
<path d="M27.9762 43.678C29.7623 43.678 31.2102 42.2246 31.2102 40.4316C31.2102 38.6387 29.7623 37.1853 27.9762 37.1853C26.1901 37.1853 24.7422 38.6387 24.7422 40.4316C24.7422 42.2246 26.1901 43.678 27.9762 43.678Z" fill="#E0E0E0"/>
<path d="M102.944 3.54142H37.9698C37.8918 3.54142 37.817 3.51032 37.7619 3.45497C37.7068 3.39963 37.6758 3.32457 37.6758 3.24629C37.6758 3.16802 37.7068 3.09296 37.7619 3.03761C37.817 2.98226 37.8918 2.95117 37.9698 2.95117H102.944C103.022 2.95117 103.096 2.98226 103.152 3.03761C103.207 3.09296 103.238 3.16802 103.238 3.24629C103.238 3.32457 103.207 3.39963 103.152 3.45497C103.096 3.51032 103.022 3.54142 102.944 3.54142Z" fill="#E6E6E6"/>
<path d="M102.944 22.1342H37.9698C37.8918 22.1342 37.817 22.1031 37.7619 22.0477C37.7068 21.9924 37.6758 21.9173 37.6758 21.8391C37.6758 21.7608 37.7068 21.6857 37.7619 21.6304C37.817 21.575 37.8918 21.5439 37.9698 21.5439H102.944C103.022 21.5439 103.096 21.575 103.152 21.6304C103.207 21.6857 103.238 21.7608 103.238 21.8391C103.238 21.9173 103.207 21.9924 103.152 22.0477C103.096 22.1031 103.022 22.1342 102.944 22.1342Z" fill="#E6E6E6"/>
<path d="M51.9371 43.678C53.7232 43.678 55.1711 42.2246 55.1711 40.4316C55.1711 38.6387 53.7232 37.1853 51.9371 37.1853C50.151 37.1853 48.7031 38.6387 48.7031 40.4316C48.7031 42.2246 50.151 43.678 51.9371 43.678Z" fill="#DF2C65"/>
<path d="M70.6051 25.0855C72.3912 25.0855 73.8391 23.632 73.8391 21.8391C73.8391 20.0462 72.3912 18.5928 70.6051 18.5928C68.819 18.5928 67.3711 20.0462 67.3711 21.8391C67.3711 23.632 68.819 25.0855 70.6051 25.0855Z" fill="#DF2C65"/>
<path d="M70.6051 43.678C72.3912 43.678 73.8391 42.2246 73.8391 40.4316C73.8391 38.6387 72.3912 37.1853 70.6051 37.1853C68.819 37.1853 67.3711 38.6387 67.3711 40.4316C67.3711 42.2246 68.819 43.678 70.6051 43.678Z" fill="#DF2C65"/>
<path d="M89.1285 6.49268C90.9146 6.49268 92.3625 5.03925 92.3625 3.24634C92.3625 1.45344 90.9146 0 89.1285 0C87.3424 0 85.8945 1.45344 85.8945 3.24634C85.8945 5.03925 87.3424 6.49268 89.1285 6.49268Z" fill="#DF2C65"/>
<path d="M89.1285 25.0855C90.9146 25.0855 92.3625 23.632 92.3625 21.8391C92.3625 20.0462 90.9146 18.5928 89.1285 18.5928C87.3424 18.5928 85.8945 20.0462 85.8945 21.8391C85.8945 23.632 87.3424 25.0855 89.1285 25.0855Z" fill="#DF2C65"/>
<path d="M89.1285 43.678C90.9146 43.678 92.3625 42.2246 92.3625 40.4316C92.3625 38.6387 90.9146 37.1853 89.1285 37.1853C87.3424 37.1853 85.8945 38.6387 85.8945 40.4316C85.8945 42.2246 87.3424 43.678 89.1285 43.678Z" fill="#DF2C65"/>
<path d="M95.549 94.7497C95.3542 94.7396 95.1582 94.7344 94.9611 94.7341C91.9981 94.7341 89.1564 95.9157 87.0613 98.0188C84.9661 100.122 83.7891 102.974 83.7891 105.949H95.549V94.7497Z" fill="#DF2C65"/>
<path d="M97.9035 121C94.8636 120.997 91.9491 119.783 89.7996 117.625C87.6501 115.467 86.4409 112.542 86.4375 109.49C86.4375 109.412 86.4685 109.337 86.5236 109.282C86.5788 109.226 86.6535 109.195 86.7315 109.195H98.1975V98.2912C98.1975 98.2512 98.2056 98.2115 98.2213 98.1747C98.2371 98.1379 98.2601 98.1048 98.2891 98.0772C98.3178 98.0493 98.352 98.0278 98.3894 98.0139C98.4269 98 98.4668 97.9941 98.5067 97.9965C101.491 98.1543 104.297 99.4757 106.325 101.679C108.353 103.883 109.444 106.794 109.366 109.793C109.287 112.792 108.045 115.642 105.904 117.735C103.763 119.829 100.892 121 97.9035 121ZM87.0294 109.785C87.0863 111.894 87.7504 113.941 88.9413 115.679C90.1323 117.417 91.7993 118.771 93.7407 119.578C95.6821 120.385 97.8148 120.611 99.8812 120.227C101.947 119.844 103.859 118.868 105.384 117.417C106.91 115.967 107.984 114.103 108.478 112.053C108.971 110.003 108.862 107.853 108.164 105.863C107.466 103.873 106.209 102.129 104.544 100.841C102.88 99.5537 100.88 98.7774 98.7855 98.6063V109.49C98.7855 109.569 98.7545 109.644 98.6994 109.699C98.6442 109.754 98.5695 109.785 98.4915 109.785H87.0294Z" fill="#3F3D56"/>
<path d="M130.338 102.94C138.556 105.604 148.827 110.092 149.66 119.901C149.684 120.29 150.293 120.292 150.269 119.901C150.056 116.437 148.366 113.268 146.027 110.761C143.462 108.013 140.138 106.136 136.706 104.679C136.035 104.524 129.051 101.223 130.338 102.94Z" fill="white"/>
<path d="M111.658 51.9225C111.741 52.0391 111.815 52.1623 111.879 52.2909L124.328 53.741L126.138 51.2068L130.187 53.5377L126.623 59.6934L111.372 55.5467C110.983 55.9333 110.491 56.1882 109.96 56.2777C109.428 56.3672 108.883 56.287 108.397 56.0478C107.91 55.8085 107.506 55.4215 107.237 54.9383C106.968 54.4551 106.848 53.8985 106.892 53.3427C106.936 52.7868 107.142 52.2579 107.483 51.8264C107.824 51.3949 108.284 51.0812 108.801 50.9271C109.319 50.7729 109.869 50.7856 110.379 50.9634C110.89 51.1412 111.336 51.4757 111.658 51.9225Z" fill="#A0616A"/>
<path d="M129.55 55.5702C129.448 55.5284 129.352 55.4731 129.267 55.406L124.166 51.4057C124.044 51.3096 123.944 51.1908 123.873 51.0569C123.802 50.923 123.762 50.7769 123.755 50.6278C123.748 50.4787 123.774 50.3299 123.832 50.1907C123.89 50.0516 123.979 49.9251 124.092 49.8194L128.72 45.4925C128.915 45.3092 129.173 45.1972 129.449 45.1767C129.725 45.1563 129.999 45.2288 130.222 45.3811L133.723 47.7474C133.941 47.8952 134.098 48.1094 134.164 48.3529C134.231 48.5965 134.205 48.8542 134.09 49.0815L131.061 55.0421C130.932 55.2957 130.703 55.4926 130.421 55.5912C130.138 55.6897 129.826 55.6822 129.55 55.5702H129.55Z" fill="#6C63FF"/>
<path d="M148.666 115.363L145.802 116.16L141.434 105.237L145.66 104.06L148.666 115.363Z" fill="#A0616A"/>
<path d="M143.107 115.955L149.063 114.329L150.043 117.945L140.719 120.492L140.655 120.257C140.412 119.36 140.534 118.403 140.993 117.596C141.453 116.79 142.214 116.199 143.107 115.955Z" fill="#2F2E41"/>
<path d="M122.947 117.773L120.225 117.773L118.93 105.673L122.948 105.674L122.947 117.773Z" fill="#A0616A"/>
<path d="M117.593 116.967H123.753V120.193H114.109V119.984C114.109 119.184 114.476 118.416 115.13 117.85C115.783 117.285 116.669 116.967 117.593 116.967Z" fill="#2F2E41"/>
<path d="M132.282 37.2111C134.688 34.7963 134.688 30.8812 132.282 28.4663C129.877 26.0515 125.976 26.0515 123.571 28.4663C121.165 30.8812 121.165 34.7963 123.571 37.2111C125.976 39.626 129.877 39.6259 132.282 37.2111Z" fill="#A0616A"/>
<path d="M123.246 108.9H119.042C118.754 108.899 118.478 108.789 118.268 108.592C118.059 108.394 117.932 108.124 117.914 107.837C116.661 87.8521 117.394 73.5168 120.22 62.7229C120.232 62.6756 120.247 62.6292 120.265 62.5839L120.491 62.0191C120.574 61.8083 120.718 61.6276 120.905 61.5006C121.092 61.3735 121.313 61.3059 121.539 61.3066H130.184C130.347 61.3065 130.508 61.3418 130.656 61.4101C130.804 61.4784 130.936 61.5781 131.042 61.7023L132.216 63.0772C132.239 63.104 132.26 63.1313 132.281 63.1601C137.576 70.57 142.321 85.0566 147.817 104.528C147.898 104.811 147.866 105.115 147.727 105.374C147.589 105.634 147.355 105.829 147.075 105.917L142.557 107.368C142.297 107.45 142.017 107.436 141.767 107.328C141.517 107.22 141.315 107.026 141.195 106.781L129.471 82.3781C129.389 82.2075 129.254 82.068 129.087 81.9802C128.92 81.8923 128.729 81.8609 128.543 81.8904C128.356 81.92 128.184 82.009 128.052 82.1442C127.92 82.2795 127.835 82.4538 127.81 82.6414L124.365 107.92C124.327 108.191 124.193 108.44 123.987 108.62C123.782 108.8 123.519 108.899 123.246 108.9Z" fill="url(#paint0_linear)"/>
<path d="M131.625 63.7266C131.613 63.7266 131.601 63.7263 131.59 63.7261L121.108 63.3862C120.839 63.3785 120.581 63.2715 120.382 63.0848C120.183 62.8981 120.056 62.6441 120.024 62.3692C118.695 51.3247 122.339 48.3659 123.968 47.6066C124.104 47.5435 124.222 47.4454 124.31 47.3218C124.398 47.1982 124.454 47.0533 124.472 46.9011L124.613 45.7434C124.637 45.539 124.714 45.3449 124.835 45.1813C127.388 41.7849 130.875 40.6973 132.725 40.3515C132.876 40.3238 133.03 40.3277 133.178 40.363C133.327 40.3983 133.467 40.4643 133.59 40.5569C133.713 40.6495 133.816 40.7668 133.894 40.9017C133.971 41.0366 134.021 41.1863 134.041 41.3416L134.252 43.0039C134.273 43.1624 134.335 43.3124 134.43 43.4389C139.755 50.587 133.823 61.1413 132.58 63.1843C132.478 63.3502 132.338 63.4869 132.171 63.5818C132.004 63.6766 131.816 63.7264 131.625 63.7266Z" fill="#DF4A7A"/>
<path d="M130.344 78.5508C130.659 78.324 130.922 78.0291 131.114 77.6869C131.305 77.3446 131.422 76.9633 131.455 76.5699C131.488 76.1764 131.436 75.7803 131.304 75.4096C131.171 75.0388 130.961 74.7023 130.688 74.4239L132.593 50.8199L126.922 51.6205L126.815 74.5539C126.389 75.0553 126.158 75.6995 126.164 76.3643C126.171 77.0291 126.414 77.6685 126.849 78.1611C127.284 78.6538 127.88 78.9656 128.524 79.0374C129.169 79.1092 129.816 78.9361 130.344 78.5508H130.344Z" fill="#A0616A"/>
<path d="M133.662 54.0467C133.551 54.0467 133.441 54.0316 133.335 54.0018L126.989 52.2364C126.837 52.1939 126.695 52.122 126.573 52.0252C126.452 51.9284 126.353 51.8087 126.282 51.6738C126.212 51.5389 126.172 51.3917 126.165 51.2414C126.158 51.0912 126.184 50.9412 126.242 50.8009L128.59 45.062C128.688 44.8196 128.875 44.6187 129.116 44.4957C129.358 44.3728 129.638 44.3362 129.906 44.3925L134.099 45.2546C134.36 45.3085 134.594 45.4471 134.759 45.6465C134.924 45.846 135.011 46.0937 135.003 46.347L134.808 52.989C134.8 53.2716 134.676 53.54 134.462 53.7374C134.248 53.9349 133.961 54.0458 133.662 54.0467Z" fill="#DF4A7A"/>
<path d="M134.421 29.0883C133.965 27.6777 133.628 26.2297 133.414 24.7604C133.347 23.9049 133.562 22.9845 134.173 22.3942C135.316 21.2897 137.258 21.8158 138.453 22.8611C140.181 24.372 141.042 26.6938 141.368 28.991C141.693 31.2882 141.55 33.6243 141.629 35.944C141.707 38.2637 142.032 40.649 143.192 42.6462C144.351 44.6434 146.503 46.1765 148.772 46.0065C149.688 45.956 150.558 45.58 151.231 44.9438C151.561 44.6233 151.811 44.2269 151.96 43.7875C152.109 43.3482 152.153 42.8789 152.087 42.4188C153.247 44.5374 152.659 47.4088 150.929 49.0743C149.199 50.7398 146.537 51.2106 144.263 50.4995C141.988 49.7884 140.116 48.0054 138.998 45.8636C137.88 43.7218 137.47 41.2476 137.529 38.8217C137.575 36.9589 137.885 35.0808 137.577 33.2441C137.268 31.4075 136.141 29.5426 134.364 29.1101L134.421 29.0883Z" fill="url(#paint1_linear)"/>
<path d="M126.952 31.4048C126.653 32.3913 125.511 32.9995 124.484 32.8327C123.457 32.6659 122.612 31.8291 122.3 30.8468C122.017 29.8435 122.133 28.7715 122.623 27.8496C122.893 27.297 123.27 26.8024 123.733 26.3943C124.197 25.9861 124.737 25.6723 125.323 25.4708C125.912 25.2776 126.54 25.2274 127.153 25.3243C127.766 25.4212 128.347 25.6624 128.846 26.0276C128.899 25.806 129.011 25.6024 129.17 25.4378C129.329 25.2732 129.53 25.1535 129.751 25.0911C130.197 24.9722 130.668 24.9791 131.11 25.1109C132.384 25.47 133.488 26.2645 134.226 27.353C134.954 28.4381 135.436 29.6665 135.638 30.9536C135.986 32.8837 135.858 34.9928 134.762 36.6264C133.666 38.2599 131.423 39.2245 129.604 38.4457C129.491 37.8722 129.76 37.2947 130.07 36.7977C130.381 36.3007 130.75 35.8166 130.869 35.2442C130.989 34.6719 130.76 33.9718 130.2 33.7846C129.722 33.625 129.213 33.8837 128.71 33.9149C128.425 33.9326 128.139 33.8758 127.883 33.75C127.626 33.6242 127.408 33.4339 127.249 33.1982C127.09 32.9626 126.997 32.6898 126.979 32.4072C126.961 32.1247 127.018 31.8423 127.144 31.5885L126.952 31.4048Z" fill="url(#paint2_linear)"/>
</g>
<defs>
<linearGradient id="paint0_linear" x1="117" y1="65" x2="148" y2="103" gradientUnits="userSpaceOnUse">
<stop stop-color="#FFCC4C"/>
<stop offset="1" stop-color="#FFB94C"/>
</linearGradient>
<linearGradient id="paint1_linear" x1="143.046" y1="21.78" x2="143.046" y2="50.82" gradientUnits="userSpaceOnUse">
<stop stop-color="#8D3692"/>
<stop offset="1" stop-color="#582992"/>
</linearGradient>
<linearGradient id="paint2_linear" x1="128.979" y1="25.0067" x2="128.979" y2="38.72" gradientUnits="userSpaceOnUse">
<stop stop-color="#8D3692"/>
<stop offset="1" stop-color="#582992"/>
</linearGradient>
<clipPath id="clip0">
<rect width="205" height="121" fill="white"/>
</clipPath>
</defs>
</svg>
