<svg width="140" height="130" viewBox="0 0 140 130" fill="none" xmlns="http://www.w3.org/2000/svg">
<path d="M39.1404 73.9268C38.7459 73.9268 38.3474 73.9206 37.9562 73.9085L37.9651 73.6277C38.5268 73.645 39.1 73.6498 39.6644 73.6421L39.6683 73.9232C39.4926 73.9255 39.3167 73.9267 39.1404 73.9268ZM41.3794 73.8616L41.3627 73.581C41.9252 73.5482 42.495 73.5021 43.0562 73.444L43.0859 73.7235C42.5204 73.7821 41.9464 73.8286 41.3794 73.8616ZM36.2466 73.8178C35.6793 73.7748 35.1061 73.7186 34.5427 73.6502L34.5774 73.3713C35.1365 73.439 35.7053 73.495 36.2683 73.5375L36.2466 73.8178ZM44.7841 73.5087L44.7414 73.2309C45.3004 73.147 45.8636 73.0497 46.415 72.9414L46.4705 73.217C45.9147 73.3261 45.3473 73.4243 44.7841 73.5087ZM32.8486 73.4059C32.2882 73.312 31.7226 73.2041 31.1674 73.085L31.2277 72.8102C31.7787 72.9285 32.34 73.0356 32.8961 73.1286L32.8486 73.4059ZM48.1419 72.8491L48.0735 72.5762C48.6222 72.4421 49.1739 72.2939 49.7134 72.1358L49.7942 72.4053C49.2506 72.5647 48.6947 72.714 48.1419 72.8491ZM29.503 72.6879C28.9533 72.5434 28.4001 72.3845 27.8588 72.2152L27.9445 71.9473C28.4817 72.1152 29.0306 72.2729 29.576 72.4162L29.503 72.6879ZM51.4241 71.8867L51.3308 71.6212C51.8632 71.4383 52.3986 71.2405 52.9226 71.0332L53.0281 71.2943C52.5003 71.503 51.9607 71.7023 51.4241 71.8867H51.4241ZM26.2342 71.6665C25.7004 71.4726 25.1632 71.2633 24.6377 71.0445L24.7481 70.7854C25.2695 71.0025 25.8026 71.2102 26.3324 71.4027L26.2342 71.6665ZM54.5992 70.631L54.4815 70.3751C54.9928 70.1455 55.5067 69.9004 56.009 69.6466L56.1384 69.8969C55.6323 70.1526 55.1144 70.3995 54.5993 70.631H54.5992ZM57.6421 69.0936L57.5013 68.8496C57.9916 68.573 58.4811 68.2823 58.9559 67.9854L59.1078 68.2229C58.6294 68.5221 58.1363 68.8151 57.6421 69.0936H57.6421ZM60.532 67.2866L60.3693 67.0562C60.831 66.7374 61.2917 66.4035 61.7388 66.0639L61.9121 66.2868C61.4617 66.629 60.9974 66.9654 60.532 67.2866ZM17.1862 66.8907C16.7272 66.5612 16.2687 66.216 15.8232 65.8645L16.0007 65.6449C16.4427 65.9936 16.8978 66.3362 17.3533 66.6632L17.1862 66.8907ZM63.2448 65.2259L63.0615 65.0109C63.4918 64.652 63.9201 64.278 64.3346 63.8992L64.5276 64.1056C64.11 64.4873 63.6784 64.8642 63.2448 65.2259H63.2448ZM14.5093 64.7781C14.0818 64.4081 13.6571 64.0233 13.247 63.6342L13.4439 63.4313C13.8509 63.8175 14.2724 64.1995 14.6966 64.5668L14.5093 64.7781ZM65.7578 62.9284L65.5553 62.7311C65.9521 62.3337 66.3445 61.9225 66.7215 61.509L66.9329 61.697C66.553 62.1138 66.1576 62.5281 65.7578 62.9284ZM12.039 62.4349C11.6468 62.0272 11.2594 61.6059 10.8877 61.1826L11.1025 60.9984C11.4714 61.4185 11.8558 61.8366 12.2451 62.2411L12.039 62.4349ZM68.0501 60.4138L67.8304 60.2354C68.1888 59.8043 68.5417 59.3595 68.8795 58.913L69.1073 59.0813C68.7669 59.5312 68.4113 59.9796 68.0501 60.4138L68.0501 60.4138ZM9.79542 59.8802C9.4432 59.4403 9.09637 58.9862 8.76455 58.5303L8.99534 58.3662C9.32466 58.8184 9.66884 59.2692 10.0184 59.7059L9.79542 59.8802ZM70.1018 57.7022L69.8666 57.5443C70.1837 57.0828 70.4944 56.6077 70.7898 56.1322L71.0322 56.2793C70.7344 56.7584 70.4213 57.2372 70.1018 57.7022L70.1018 57.7022ZM7.79736 57.1359C7.48748 56.6663 7.1842 56.1832 6.89585 55.6995L7.14081 55.5568C7.42701 56.0368 7.728 56.5163 8.03552 56.9821L7.79736 57.1359ZM71.8957 54.8154L71.6468 54.6795C71.9199 54.1911 72.1851 53.6896 72.4355 53.1888L72.6904 53.3134C72.4382 53.818 72.1708 54.3233 71.8957 54.8154ZM73.4145 51.7766L73.154 51.6638C73.3806 51.1523 73.5982 50.6284 73.8008 50.1068L74.0663 50.2076C73.8622 50.7332 73.6428 51.2611 73.4145 51.7766ZM4.60421 51.1701C4.38619 50.6529 4.17741 50.1238 3.98369 49.5973L4.251 49.5013C4.44319 50.0238 4.65038 50.5488 4.86667 51.062L4.60421 51.1701ZM74.6443 48.61L74.3743 48.5216C74.5518 47.993 74.7193 47.4528 74.872 46.9157L75.1458 46.9918C74.9918 47.533 74.823 48.0774 74.6443 48.61ZM3.43586 47.994C3.26665 47.4583 3.10765 46.9111 2.9633 46.3673L3.23839 46.2959C3.38163 46.8356 3.53946 47.3787 3.70734 47.9102L3.43586 47.994ZM75.5712 45.3524L75.2942 45.2887C75.4215 44.747 75.5379 44.1938 75.6402 43.6446L75.9199 43.6954C75.8168 44.2489 75.6995 44.8063 75.5712 45.3524V45.3524ZM2.56726 44.7208C2.44867 44.1718 2.34133 43.6125 2.24829 43.0581L2.5288 43.012C2.62121 43.5623 2.72772 44.1173 2.84541 44.6621L2.56726 44.7208ZM76.1909 42.0246L75.909 41.9865C75.9856 41.436 76.0501 40.8746 76.1011 40.3179L76.3844 40.3432C76.333 40.9043 76.2679 41.4699 76.1909 42.0247V42.0246ZM2.0068 41.3829C1.93973 40.8264 1.88466 40.2597 1.84307 39.6985L2.12678 39.6779C2.16795 40.235 2.22267 40.7973 2.28925 41.3496L2.0068 41.3829ZM76.5002 38.655L76.2161 38.6424C76.2414 38.0854 76.2543 37.5205 76.2543 36.9634H76.5387C76.5387 37.5247 76.5258 38.0939 76.5002 38.655ZM1.75691 38.0083C1.74719 37.6636 1.74226 37.312 1.74219 36.9634C1.74219 36.7471 1.74406 36.5312 1.74781 36.3157L2.03221 36.3206C2.02846 36.5345 2.02658 36.7487 2.02658 36.9634C2.02665 37.3094 2.03158 37.6584 2.04117 38.0006L1.75691 38.0083ZM2.0997 34.6425L1.81586 34.625C1.85134 34.0633 1.90036 33.4961 1.96139 32.9389L2.24412 32.9692C2.1835 33.5221 2.13497 34.0851 2.09969 34.6425H2.0997ZM76.0706 32.9277C76.0138 32.3735 75.9357 32.1033 75.8532 31.5516L76.1346 31.5105C76.2176 32.0665 76.2889 32.4908 76.3462 33.0492L76.0706 32.9277ZM2.46554 31.3042L2.18447 31.2612C2.27161 30.7051 2.37284 30.1447 2.48539 29.5952L2.7641 29.6509C2.65245 30.1962 2.55198 30.7524 2.46554 31.3042ZM75.5662 29.8965C75.4577 29.3482 75.3354 28.7962 75.2024 28.256L75.4787 28.1896C75.6127 28.7339 75.736 29.2901 75.8453 29.8426L75.5662 29.8965ZM3.13917 28.013L2.86332 27.9447C3.00142 27.4003 3.15438 26.8513 3.31796 26.313L3.59027 26.3939C3.42802 26.928 3.27623 27.4728 3.13917 28.013ZM74.7624 26.6338C74.6039 26.0986 74.4305 25.5602 74.2474 25.0334L74.5162 24.942C74.7009 25.4728 74.8756 26.0155 75.0354 26.5547L74.7624 26.6338ZM4.11818 24.7926L3.84989 24.6994C4.03889 24.1681 4.24295 23.6342 4.45639 23.1125L4.72009 23.2179C4.50825 23.7355 4.30572 24.2654 4.11818 24.7926ZM73.658 23.4582C73.4506 22.9409 73.2284 22.4218 72.9976 21.9151L73.257 21.7997C73.4896 22.3102 73.7135 22.8334 73.9224 23.3546L73.658 23.4582ZM5.39463 21.6729L5.1362 21.5556C5.37373 21.0443 5.62654 20.5316 5.88761 20.0317L6.14034 20.1606C5.88122 20.6567 5.63036 21.1655 5.39463 21.6729ZM72.2662 20.403C72.0117 19.9068 71.742 19.4095 71.4647 18.9252L71.7121 18.7867C71.9916 19.2748 72.2633 19.7758 72.5198 20.2759L72.2662 20.403ZM6.95555 18.6842L6.70907 18.5439C6.99277 18.057 7.29196 17.5697 7.59836 17.0955L7.83805 17.2467C7.534 17.7173 7.23704 18.201 6.95555 18.6842ZM70.5954 17.4846C70.2948 17.0118 69.9802 16.5407 69.6601 16.0845L69.8937 15.9244C70.2162 16.3841 70.5334 16.8587 70.8361 17.3352L70.5954 17.4846ZM8.78608 15.851L8.55362 15.689C8.88148 15.2295 9.22428 14.7714 9.57269 14.3275L9.79737 14.4998C9.45167 14.9403 9.11138 15.3949 8.78608 15.851ZM68.6608 14.7277C68.3181 14.2841 67.9612 13.843 67.5997 13.4168L67.8178 13.2363C68.1819 13.6657 68.5415 14.1101 68.8869 14.5571L68.6608 14.7277ZM10.8698 13.1959L10.6533 13.0137C11.0212 12.5865 11.4047 12.1614 11.793 11.7501L12.0009 11.9418C11.6155 12.3501 11.235 12.772 10.8698 13.1959ZM66.4794 12.1548C66.0974 11.7438 65.701 11.3364 65.3016 10.9441L65.5022 10.7447C65.9046 11.1401 66.3038 11.5504 66.6888 11.9645L66.4794 12.1548ZM13.1883 10.7403L12.9894 10.5394C13.3961 10.1461 13.8169 9.75738 14.2401 9.38392L14.4295 9.59364C14.0095 9.96422 13.5919 10.35 13.1883 10.7403ZM64.0695 9.78744C63.6508 9.41213 63.2185 9.04196 62.7847 8.68723L62.9661 8.47065C63.4031 8.82806 63.8387 9.20104 64.2606 9.57923L64.0695 9.78744ZM15.722 8.50401L15.5425 8.28605C15.9823 7.93202 16.4369 7.58284 16.8936 7.24823L17.0631 7.474C16.6097 7.80615 16.1585 8.15264 15.722 8.50401ZM18.4497 6.50583L18.291 6.27264C18.7617 5.95957 19.2464 5.65302 19.7315 5.3613L19.8792 5.60149C19.3979 5.89095 18.9169 6.19524 18.4497 6.50583ZM21.3488 4.76288L21.2123 4.51624C21.7103 4.24689 22.221 3.98556 22.7301 3.7394L22.8551 3.99194C22.3499 4.23619 21.8431 4.49552 21.3488 4.76288ZM55.6713 4.11163C55.1653 3.86244 54.6469 3.62171 54.1306 3.39614L54.2456 3.13906C54.7659 3.36635 55.2883 3.60894 55.7982 3.86004L55.6713 4.11163ZM24.395 3.29025L24.2819 3.03235C24.8024 2.80938 25.3348 2.59554 25.8643 2.39674L25.9653 2.65957C25.4398 2.85681 24.9115 3.069 24.395 3.29025ZM52.5576 2.75133C52.0311 2.5495 51.4921 2.35693 50.9557 2.17906L51.0462 1.91251C51.5867 2.09183 52.1298 2.28584 52.6604 2.48931L52.5576 2.75133ZM27.5672 2.09966L27.4786 1.83257C28.0191 1.65744 28.5705 1.49253 29.1175 1.34258L29.1935 1.61338C28.6507 1.76223 28.1035 1.92583 27.5672 2.09966ZM49.3326 1.68173C48.7902 1.5289 48.237 1.38657 47.6883 1.25872L47.7536 0.985181C48.3065 1.11399 48.864 1.25742 49.4107 1.41135L49.3326 1.68173ZM30.8409 1.2017L30.7776 0.927673C31.3317 0.802568 31.8961 0.688582 32.4551 0.588936L32.5056 0.865498C31.9508 0.964456 31.3907 1.07755 30.8409 1.2017ZM46.026 0.911202C45.4722 0.808471 44.9081 0.71706 44.3493 0.639514L44.3887 0.361169C44.9518 0.439333 45.5203 0.531428 46.0784 0.634916L46.026 0.911202ZM34.1843 0.605341L34.1467 0.326721C34.7096 0.252468 35.2822 0.190019 35.8483 0.141296L35.8731 0.421287C35.3112 0.469734 34.7431 0.531635 34.1843 0.605341ZM42.6617 0.444071C42.1015 0.391916 41.5313 0.351702 40.9668 0.324731L40.9807 0.0439217C41.5493 0.0711664 42.1238 0.111656 42.6883 0.164229L42.6617 0.444071ZM37.5689 0.313476L37.5569 0.0326668C38.0796 0.0111185 38.6123 0.000137734 39.1404 0L39.2691 0.000206681L39.2683 0.281297L39.1404 0.28109C38.6163 0.28122 38.0875 0.292132 37.5689 0.313473V0.313476Z" fill="#3F3D56"/>
<path d="M84.365 13.6913V105.464C84.3639 106.557 83.9233 107.605 83.14 108.378C82.3567 109.151 81.2947 109.585 80.1873 109.586H42.4473C41.8986 109.587 41.3552 109.481 40.848 109.274C40.3409 109.067 39.8801 108.764 39.492 108.381C39.1039 107.998 38.7962 107.543 38.5864 107.043C38.3766 106.542 38.2689 106.006 38.2695 105.464V13.6913C38.2695 13.1497 38.3775 12.6133 38.5875 12.1129C38.7974 11.6125 39.1051 11.1579 39.4931 10.7749C39.881 10.3919 40.3416 10.0881 40.8485 9.88086C41.3553 9.67362 41.8986 9.56697 42.4473 9.56702H48.095V10.282C48.0949 11.1826 48.4571 12.0464 49.1021 12.6833C49.747 13.3203 50.6218 13.6783 51.5341 13.6785H70.729C71.4633 13.6801 72.1785 13.4477 72.7684 13.0159C72.8876 12.9303 73.0007 12.8366 73.1068 12.7356C73.4428 12.4189 73.7101 12.0381 73.8926 11.6163C74.075 11.1946 74.1687 10.7406 74.1681 10.282V9.56702H80.1873C80.736 9.56685 81.2793 9.67341 81.7863 9.88062C82.2932 10.0878 82.7538 10.3916 83.1418 10.7746C83.5298 11.1576 83.8375 11.6123 84.0474 12.1128C84.2573 12.6132 84.3652 13.1496 84.365 13.6913Z" fill="#3F3D56" fill-opacity="0.99"/>
<path d="M79.1445 41.7469H44.3555V68.7085H79.1445V41.7469Z" fill="#DF2C65"/>
<path d="M26.1371 38.2691C29.0191 38.3219 31.3117 40.1029 31.3117 40.1029C31.3117 40.1029 28.9317 41.7984 26.0496 41.7456C23.1676 41.6929 20.875 39.9119 20.875 39.9119C20.875 39.9119 23.2551 38.2164 26.1371 38.2691Z" fill="#DF2C65"/>
<path d="M10.3398 27.1306C13.2218 28.4126 16.5266 27.5433 16.5266 27.5433C16.5266 27.5433 15.1586 24.5955 12.2766 23.3136C9.3946 22.0316 6.08984 22.9009 6.08984 22.9009C6.08984 22.9009 7.45776 25.8487 10.3398 27.1306Z" fill="#DF2C65"/>
<path d="M10.6702 26.1192C13.7923 25.8418 16.5252 27.7638 16.5252 27.7638C16.5252 27.7638 14.196 30.1356 11.0738 30.4131C7.9516 30.6905 5.21875 28.7684 5.21875 28.7684C5.21875 28.7684 7.54797 26.3966 10.6702 26.1192Z" fill="#3F3D56"/>
<path d="M22.6434 26.3149C22.3527 29.4371 24.2612 32.1799 24.2612 32.1799C24.2612 32.1799 26.6411 29.8606 26.9318 26.7384C27.2225 23.6162 25.3139 20.8734 25.3139 20.8734C25.3139 20.8734 22.9341 23.1927 22.6434 26.3149Z" fill="#3F3D56"/>
<path d="M35.9512 45.3859C34.3215 48.0278 34.8822 51.3139 34.8822 51.3139C34.8822 51.3139 38.0852 50.3168 39.715 47.675C41.3447 45.0331 40.784 41.7469 40.784 41.7469C40.784 41.7469 37.581 42.7441 35.9512 45.3859Z" fill="#3F3D56"/>
<path d="M31.6824 73.9268L31.9181 73.769C31.0874 72.5749 30.6338 71.1631 30.615 69.713C30.6216 67.5918 31.6734 65.6299 32.6906 63.7325C32.8794 63.3804 33.0676 63.0293 33.2487 62.6785C34.0085 61.2479 34.6141 59.742 35.0553 58.1858C36.6332 52.3777 35.0797 45.5252 30.9 39.8554C27.5842 35.3576 22.6414 31.4245 15.7893 27.8313L15.6562 28.0803C22.4694 31.653 27.3805 35.559 30.6703 40.0216C34.7997 45.6231 36.3363 52.3861 34.7806 58.1126C34.3446 59.6498 33.7462 61.1372 32.9955 62.5503C32.815 62.8998 32.6275 63.2495 32.4394 63.6004C31.406 65.528 30.3374 67.5213 30.3306 69.7122C30.3494 71.2188 30.8199 72.6858 31.6824 73.9268Z" fill="#3F3D56"/>
<path d="M2.60918 27.8313C4.05019 27.8313 5.21836 26.6631 5.21836 25.2221C5.21836 23.7811 4.05019 22.6129 2.60918 22.6129C1.16817 22.6129 0 23.7811 0 25.2221C0 26.6631 1.16817 27.8313 2.60918 27.8313Z" fill="#3F3D56"/>
<path d="M40.0092 68.7085L23.4844 67.3042V42.5894L40.0092 41.7469V68.7085Z" fill="#DF2C65"/>
<path d="M82.6211 68.7085L99.1459 67.3042V42.5894L82.6211 41.7469V68.7085Z" fill="#DF2C65"/>
<path d="M67.1257 52.0125C66.6426 51.5749 66.0472 51.2965 65.414 51.2121C64.7808 51.1277 64.1379 51.241 63.5658 51.538C63.069 51.79 62.5345 51.9504 61.9857 52.012C61.9721 50.7656 62.1903 49.5283 62.6281 48.3693L62.6999 48.175H61.7456L61.7182 48.28C61.6119 48.6898 61.5281 49.1057 61.4673 49.5256C61.4157 49.3436 61.3489 49.1667 61.2677 48.997C60.5983 47.6053 59.0518 47.0361 58.9862 47.0126L58.8544 46.9652L58.8123 47.1046C58.7914 47.1738 58.3085 48.8164 58.9778 50.2082C59.457 51.2046 60.3858 51.7793 60.8988 52.034C60.2495 51.9902 59.6148 51.8121 59.0313 51.5102C58.6675 51.3136 58.2582 51.2284 57.8504 51.2645C57.4426 51.3006 57.0528 51.4565 56.7255 51.7143C54.9438 53.1341 53.9219 55.2155 53.9219 57.4247C53.9219 60.3267 55.714 62.9844 58.4875 64.1954C58.7377 64.3042 59.006 64.3601 59.2769 64.3597C59.653 64.3598 60.0222 64.2536 60.3456 64.0523C60.7756 63.7901 61.2639 63.6515 61.7612 63.6504C62.2586 63.6493 62.7474 63.7859 63.1783 64.0463C63.457 64.2187 63.77 64.3208 64.0927 64.3446C64.4154 64.3685 64.739 64.3134 65.0379 64.1837C67.7953 62.968 69.577 60.3149 69.577 57.4247C69.577 55.3559 68.7063 53.4339 67.1257 52.0125ZM61.9539 48.4605H62.3043C61.9102 49.5674 61.7093 50.7397 61.7113 51.9212H61.6488C61.5644 50.7579 61.6676 49.5879 61.9539 48.4605ZM59.221 50.0796C58.7128 49.0231 58.9357 47.7637 59.0342 47.3388C59.4184 47.5079 60.5155 48.0671 61.0246 49.1256C61.5326 50.182 61.3098 51.4411 61.2113 51.8663C60.8268 51.6966 59.7289 51.136 59.221 50.0796ZM64.9323 63.9204C64.6725 64.0331 64.3913 64.0809 64.1108 64.06C63.8304 64.0391 63.5584 63.9502 63.3164 63.8001C62.8434 63.5138 62.3067 63.3637 61.7606 63.3649C61.2145 63.3661 60.6784 63.5186 60.2066 63.807C59.9651 63.9576 59.6936 64.0473 59.4134 64.069C59.1332 64.0907 58.8521 64.0437 58.5921 63.9319C55.9204 62.7654 54.1941 60.2111 54.1941 57.4246C54.1941 55.3055 55.1768 53.307 56.8902 51.9416C57.2189 51.6813 57.6199 51.5409 58.0318 51.5419C58.3361 51.5417 58.636 51.6178 58.9065 51.7639C59.6522 52.1371 60.4673 52.3332 61.2936 52.3384C62.1198 52.3435 62.937 52.1575 63.687 51.7937C64.2111 51.5217 64.8002 51.418 65.3803 51.4954C65.9605 51.5729 66.5059 51.8282 66.9483 52.2293C68.4678 53.5955 69.3047 55.4406 69.3047 57.4246C69.3047 60.1997 67.5884 62.7493 64.9323 63.9204Z" fill="white"/>
<path d="M31.8177 49.0007V48.6572H31.9274V47.587C31.9278 47.5077 31.9107 47.4298 31.8779 47.3617C31.8451 47.2937 31.798 47.2381 31.7416 47.2012C31.2565 46.8861 30.7352 46.8865 30.1921 47.2027C30.1322 47.2381 30.0815 47.294 30.0461 47.3639C30.0107 47.4338 29.992 47.5147 29.9921 47.5973V48.6572H30.1017V48.9681C29.6981 49.109 29.3427 49.4108 29.09 49.8272C28.8374 50.2437 28.7015 50.7518 28.7031 51.2737V53.5893L28.912 53.676L28.7031 53.8493V54.5452L28.912 54.6319L28.7031 54.8053V55.5011L28.912 55.5878L28.7031 55.7612V61.061C28.7035 61.4744 28.8356 61.8707 29.0704 62.163C29.3052 62.4554 29.6236 62.6198 29.9556 62.6203H31.8021C32.1334 62.6198 32.451 62.4558 32.6853 62.1641C32.9196 61.8725 33.0514 61.477 33.0518 61.0646V55.7612L32.8429 55.5878L33.0518 55.5011V54.8053L32.8429 54.6319L33.0518 54.5452V53.8493L32.8429 53.676L33.0518 53.5893V51.1541C33.0504 50.6803 32.9309 50.2187 32.7099 49.833C32.4888 49.4473 32.1771 49.1565 31.8177 49.0007ZM30.2916 47.4677C30.7717 47.1886 31.2105 47.1863 31.6328 47.4607C31.651 47.4731 31.6661 47.4914 31.6766 47.5136C31.687 47.5359 31.6925 47.5613 31.6923 47.5871V48.1597H30.2271V47.5973C30.2269 47.5704 30.2329 47.5439 30.2443 47.5209C30.2557 47.498 30.2721 47.4795 30.2916 47.4677ZM32.8167 53.3784L32.3126 53.5876L32.8167 54.0059V54.3343L32.3126 54.5435L32.8167 54.9619V55.2902L32.3126 55.4993L32.8167 55.9178V61.0646C32.8164 61.3994 32.7094 61.7205 32.5192 61.9573C32.329 62.1941 32.0711 62.3273 31.8021 62.3277H29.9556C29.6859 62.3273 29.4273 62.1937 29.2365 61.9562C29.0458 61.7188 28.9385 61.3968 28.9382 61.061V55.9178L29.4423 55.4993L28.9382 55.2902V54.9619L29.4423 54.5435L28.9382 54.3343V54.0059L29.4423 53.5876L28.9382 53.3784V51.2737C28.9367 50.798 29.0654 50.3358 29.3031 49.9633C29.5407 49.5907 29.8732 49.33 30.2458 49.2241L30.3368 49.1979V48.6572H31.5826V49.2176L31.6674 49.2482C31.9983 49.3695 32.2888 49.6205 32.4959 49.9639C32.703 50.3073 32.8155 50.7247 32.8167 51.1541V53.3784Z" fill="white"/>
<path d="M98.2789 53.2718L97.6012 53.1285L97.7608 52.7908L97.45 52.7249L97.5037 52.3829L97.1644 52.3229V51.9985L96.889 51.9153L97.1504 51.5696H96.6968L96.7916 51.3192L96.4562 51.2601L96.57 50.838H96.2071V50.4441H96.0725C95.6485 50.4441 95.4121 50.9771 95.3344 51.1905C92.9936 51.6225 86.197 56.6043 85.4213 57.1772C85.099 57.0666 84.621 57.3259 84.5213 57.3835L84.3633 57.4747L84.5912 57.7158L84.5232 57.9313L84.9415 58.0973L84.8498 58.3396L85.1132 58.572L84.8767 58.7599L85.2327 58.986L85.1701 59.3165L85.5679 59.3767V59.7075L85.7988 59.7564L85.6837 60.1834H85.9401V60.5211H86.1903L86.3038 60.8808L86.4202 60.8561C86.691 60.7987 86.9228 60.4024 87.0135 60.2265C89.2678 59.8008 96.2279 54.6188 96.9054 54.1114C97.6962 54.2117 97.9868 53.988 98.018 53.9617L98.1467 53.8528L97.8394 53.5819L98.2789 53.2718ZM96.8881 53.8219L96.8356 53.8145L96.7924 53.847C96.7155 53.9048 89.0825 59.6274 86.9065 59.9563L86.8367 59.9669L86.8052 60.0336C86.7217 60.2136 86.6091 60.3766 86.4723 60.5153L86.3843 60.2363H86.2093V59.8986H86.0404L86.1379 59.5378L85.837 59.4741V59.1297L85.4901 59.0773L85.534 58.845L85.3582 58.7334L85.547 58.5836L85.1724 58.2533L85.2934 57.9329L84.8608 57.7611L84.8993 57.639L84.8157 57.5504C85.0178 57.4615 85.2623 57.3954 85.3673 57.4618L85.4423 57.5095L85.5138 57.4564C85.5902 57.3997 93.1714 51.7883 95.4526 51.4592L95.5377 51.4469L95.5631 51.36C95.6023 51.2253 95.7416 50.8852 95.9379 50.7688V51.1228H96.2133L96.1145 51.4886L96.4173 51.542L96.2991 51.8544H96.5903L96.4261 52.0716L96.8952 52.2134V52.5643L97.194 52.617L97.1416 52.9502L97.3625 52.9969L97.203 53.3346L97.5889 53.4163L97.3902 53.5564L97.6759 53.8085C97.4163 53.8643 97.1492 53.8688 96.8881 53.8219Z" fill="white"/>
<path d="M61.5 81C63.9853 81 66 78.9853 66 76.5C66 74.0147 63.9853 72 61.5 72C59.0147 72 57 74.0147 57 76.5C57 78.9853 59.0147 81 61.5 81Z" fill="#DF2C65"/>
<path d="M64.2184 76.1999H62.0184V74H61.1999V76.1999H59V77.0184H61.1999V79.2184H62.0184V77.0184H64.2184V76.1999Z" fill="white"/>
<path d="M74.7963 76.536L72.448 75.6663V76.1632H66.9688V76.9087H72.448V77.4057L74.7963 76.536Z" fill="white"/>
<path d="M48.7031 76.536L50.7905 75.6663V76.1632H55.6609V76.9087H50.7905V77.4057L48.7031 76.536Z" fill="white"/>
<path d="M134.748 128.867H9.56641V129.177H134.748V128.867Z" fill="#3F3D56"/>
<path d="M75.4347 14.3264H45.6719V14.6364H75.4347V14.3264Z" fill="white"/>
<path d="M75.5129 98.9648H45.75V99.2749H75.5129V98.9648Z" fill="white"/>
<path d="M117.847 48.7046C114.725 48.7046 112.194 46.1736 112.194 43.0514C112.194 39.9292 114.725 37.3982 117.847 37.3982C120.969 37.3982 123.5 39.9292 123.5 43.0514C123.5 46.1736 120.969 48.7046 117.847 48.7046Z" fill="#A0616A"/>
<path d="M119.969 78.2754C120.041 78.2754 120.114 78.2722 120.186 78.2657C120.546 78.2349 120.895 78.1268 121.211 77.9484C121.527 77.7699 121.803 77.5252 122.02 77.2302C122.237 76.9352 122.391 76.5966 122.471 76.2366C122.551 75.8765 122.556 75.5032 122.486 75.1411C122.469 75.057 122.448 74.9738 122.423 74.892L130.863 64.6787C131.138 64.3433 131.3 63.9261 131.325 63.489C131.35 63.052 131.236 62.6183 131.001 62.2525L130.986 62.2334L123.389 54.5689C122.974 54.151 122.414 53.9187 121.832 53.9232C121.25 53.9276 120.693 54.1683 120.284 54.5925C119.876 55.0166 119.648 55.5894 119.652 56.1851C119.656 56.7807 119.891 57.3504 120.305 57.7689C120.315 57.7785 120.324 57.788 120.334 57.7975L125.836 63.1495L119.813 73.0413C119.699 73.0474 119.585 73.0617 119.473 73.0841C118.85 73.2113 118.295 73.5709 117.917 74.0931C117.538 74.6153 117.363 75.2627 117.425 75.9097C117.487 76.5567 117.781 77.1571 118.251 77.5943C118.722 78.0314 119.334 78.2742 119.969 78.2754Z" fill="#A0616A"/>
<path d="M108.714 125.241H105.768L104.366 113.934L108.715 113.934L108.714 125.241Z" fill="#A0616A"/>
<path d="M109.586 124.371L103.743 124.371H103.743C103.254 124.371 102.769 124.458 102.318 124.627C101.866 124.797 101.455 125.045 101.11 125.358C100.764 125.671 100.49 126.042 100.302 126.451C100.115 126.859 100.019 127.297 100.019 127.74V127.85L109.586 127.85L109.586 124.371Z" fill="#2F2E41"/>
<path d="M137.418 121.12L134.882 122.631L127.851 113.556L131.594 111.325L137.418 121.12Z" fill="#A0616A"/>
<path d="M137.214 119.152L132.255 122.324L132.255 122.324C131.417 122.86 130.812 123.732 130.572 124.747C130.332 125.763 130.478 126.839 130.977 127.739L130.977 127.739L131.038 127.85L139.156 122.657L137.214 119.152Z" fill="#2F2E41"/>
<path d="M105.191 121.762H108.409C108.669 121.762 108.921 121.662 109.114 121.482C109.308 121.301 109.43 121.052 109.457 120.784L112.701 89.1698C112.709 89.0902 112.742 89.0156 112.796 88.9575C112.849 88.8995 112.919 88.8611 112.995 88.8484C113.071 88.8358 113.149 88.8494 113.217 88.8873C113.285 88.9253 113.339 88.9853 113.371 89.0582L119.223 102.493L129.583 120.009C129.717 120.233 129.925 120.4 130.168 120.479C130.411 120.558 130.673 120.543 130.907 120.438L135.046 118.55C135.183 118.487 135.305 118.395 135.405 118.28C135.505 118.165 135.58 118.029 135.626 117.881C135.671 117.733 135.686 117.577 135.669 117.423C135.652 117.269 135.603 117.121 135.527 116.988L126.003 100.454L123.082 86.5226C124 80.4812 120.062 71.4993 120.022 71.4091L120.003 71.3652L109.154 66.969L109.1 67.0381C104.822 81.5946 102.215 97.2599 104.14 120.76C104.163 121.032 104.284 121.286 104.479 121.471C104.673 121.657 104.927 121.76 105.191 121.762Z" fill="url(#paint0_linear)"/>
<path d="M120.484 73.057L120.534 72.953C120.558 72.9032 122.963 67.9197 124.817 62.5934C125.173 61.5634 125.308 60.4719 125.212 59.3881C125.117 58.3043 124.794 57.2518 124.263 56.2972C123.725 55.3328 122.989 54.4886 122.101 53.8182C121.214 53.1478 120.195 52.6658 119.108 52.4026C117.221 51.9583 115.235 52.1947 113.511 53.0688C111.787 53.9429 110.44 55.3966 109.715 57.1649C108.245 60.7778 108.713 64.6342 109.154 67.667L109.163 67.7277L109.219 67.7542L120.484 73.057Z" fill="#DF4A7A"/>
<path d="M111.326 40.0074H120.023V36.4383C118.114 35.7243 116.246 35.1171 115.117 36.4383C114.112 36.4383 113.148 36.8143 112.437 37.4837C111.726 38.153 111.326 39.0609 111.326 40.0074H111.326Z" fill="url(#paint1_linear)"/>
<path d="M120.455 35.6588C126.231 35.6588 127.848 42.4549 127.848 46.2889C127.848 48.4271 126.818 49.1918 125.199 49.4506L124.627 46.5886L123.288 49.5737C122.833 49.5759 122.356 49.5676 121.86 49.559L121.406 48.6815L120.394 49.5432C116.339 49.5489 113.062 50.1037 113.062 46.2889C113.062 42.4549 114.48 35.6588 120.455 35.6588Z" fill="url(#paint2_linear)"/>
<path d="M96.8602 43.9895C96.8251 44.0547 96.7928 44.1219 96.7631 44.1909C96.6149 44.5318 96.5391 44.9007 96.5406 45.2734C96.5422 45.6462 96.6212 46.0144 96.7723 46.354C96.9235 46.6935 97.1434 46.9967 97.4177 47.2437C97.6919 47.4907 98.0144 47.6759 98.3639 47.7872C98.4452 47.8128 98.5278 47.834 98.6113 47.8508L103.394 60.4441C103.552 60.8557 103.836 61.2044 104.205 61.4385C104.573 61.6727 105.005 61.7797 105.438 61.7438L105.462 61.7391L115.828 58.5625C116.394 58.3891 116.869 57.9939 117.149 57.4639C117.428 56.934 117.49 56.3126 117.319 55.7366C117.149 55.1606 116.761 54.6771 116.24 54.3924C115.72 54.1078 115.109 54.0453 114.543 54.2187C114.53 54.2227 114.517 54.2268 114.505 54.231L107.17 56.628L101.492 46.3806C101.542 46.2742 101.585 46.1644 101.62 46.0519C101.812 45.4256 101.769 44.7488 101.499 44.1531C101.228 43.5573 100.75 43.085 100.157 42.828C99.5637 42.5709 98.8979 42.5475 98.2887 42.7621C97.6794 42.9767 97.1703 43.4142 96.8601 43.9895L96.8602 43.9895Z" fill="#A0616A"/>
<defs>
<linearGradient id="paint0_linear" x1="125.5" y1="109" x2="113" y2="82.5" gradientUnits="userSpaceOnUse">
<stop stop-color="#FFBA4C"/>
<stop offset="1" stop-color="#FFCB4C"/>
</linearGradient>
<linearGradient id="paint1_linear" x1="115.675" y1="35.6588" x2="115.675" y2="40.0074" gradientUnits="userSpaceOnUse">
<stop stop-color="#8C3692"/>
<stop offset="1" stop-color="#5F2B92"/>
</linearGradient>
<linearGradient id="paint2_linear" x1="120.455" y1="35.6588" x2="120.455" y2="49.5744" gradientUnits="userSpaceOnUse">
<stop stop-color="#8C3692"/>
<stop offset="1" stop-color="#5F2B92"/>
</linearGradient>
</defs>
</svg>
