<svg width="88" height="88" viewBox="0 0 88 88" fill="none" xmlns="http://www.w3.org/2000/svg">
<g filter="url(#filter0_d)">
<path d="M43.7588 5.64844C23.1846 5.64844 6.50537 22.3274 6.50537 42.9019C6.50537 63.4764 23.1846 80.1553 43.7588 80.1553C64.3331 80.1553 81.0123 63.4764 81.0123 42.9019C81.0123 22.3274 64.3331 5.64844 43.7588 5.64844ZM56.6345 44.8766L38.0078 56.5183C37.6309 56.7536 37.2024 56.8719 36.7738 56.8719C36.3855 56.8719 35.9967 56.7753 35.6448 56.5797C34.9047 56.1694 34.4455 55.3905 34.4455 54.5436V31.2602C34.4455 30.4132 34.9047 29.6344 35.6448 29.224C36.385 28.8113 37.29 28.8364 38.0078 29.2855L56.6345 40.9272C57.315 41.3535 57.7289 42.0993 57.7289 42.9019C57.7289 43.7044 57.315 44.4504 56.6345 44.8766Z" fill="white"/>
</g>
<path d="M57.0499 44.9405L37.8223 56.9573C37.4332 57.2002 36.9909 57.3223 36.5485 57.3223C36.1477 57.3223 35.7463 57.2226 35.3831 57.0207C34.6191 56.5971 34.145 55.7932 34.145 54.919V30.8854C34.145 30.0112 34.6191 29.2073 35.3831 28.7837C36.1471 28.3577 37.0813 28.3835 37.8223 28.8471L57.0499 40.8638C57.7523 41.304 58.1795 42.0738 58.1795 42.9022C58.1795 43.7306 57.7523 44.5006 57.0499 44.9405Z" fill="#DF2C65"/>
<path d="M57.0499 44.9405L37.8223 56.9573C37.4332 57.2002 36.9909 57.3223 36.5485 57.3223C36.1477 57.3223 35.7463 57.2226 35.3831 57.0207C34.6191 56.5971 34.145 55.7932 34.145 54.919V30.8854C34.145 30.0112 34.6191 29.2073 35.3831 28.7837C36.1471 28.3577 37.0813 28.3835 37.8223 28.8471L57.0499 40.8638C57.7523 41.304 58.1795 42.0738 58.1795 42.9022C58.1795 43.7306 57.7523 44.5006 57.0499 44.9405Z" fill="#DF2C65"/>
<defs>
<filter id="filter0_d" x="0.505371" y="0.648438" width="86.5069" height="86.5069" filterUnits="userSpaceOnUse" color-interpolation-filters="sRGB">
<feFlood flood-opacity="0" result="BackgroundImageFix"/>
<feColorMatrix in="SourceAlpha" type="matrix" values="0 0 0 0 0 0 0 0 0 0 0 0 0 0 0 0 0 0 127 0"/>
<feOffset dy="1"/>
<feGaussianBlur stdDeviation="3"/>
<feColorMatrix type="matrix" values="0 0 0 0 0 0 0 0 0 0 0 0 0 0 0 0 0 0 0.25 0"/>
<feBlend mode="normal" in2="BackgroundImageFix" result="effect1_dropShadow"/>
<feBlend mode="normal" in="SourceGraphic" in2="effect1_dropShadow" result="shape"/>
</filter>
</defs>
</svg>
