<svg width="25" height="30" viewBox="0 0 25 30" fill="none" xmlns="http://www.w3.org/2000/svg">
<path d="M23.0499 17.4576L3.8223 29.4744C3.43324 29.7173 2.99085 29.8394 2.54847 29.8394C2.14769 29.8394 1.74632 29.7397 1.3831 29.5378C0.6191 29.1142 0.14502 28.3103 0.14502 27.4361V3.40251C0.14502 2.52828 0.6191 1.72436 1.3831 1.30077C2.14709 0.874775 3.08128 0.900611 3.8223 1.36416L23.0499 13.3809C23.7523 13.8211 24.1795 14.5909 24.1795 15.4193C24.1795 16.2477 23.7523 17.0177 23.0499 17.4576Z" fill="#DF2C65"/>
<path d="M23.0499 17.4576L3.8223 29.4744C3.43324 29.7173 2.99085 29.8394 2.54847 29.8394C2.14769 29.8394 1.74632 29.7397 1.3831 29.5378C0.6191 29.1142 0.14502 28.3103 0.14502 27.4361V3.40251C0.14502 2.52828 0.6191 1.72436 1.3831 1.30077C2.14709 0.874775 3.08128 0.900611 3.8223 1.36416L23.0499 13.3809C23.7523 13.8211 24.1795 14.5909 24.1795 15.4193C24.1795 16.2477 23.7523 17.0177 23.0499 17.4576Z" fill="#DF2C65"/>
</svg>
