<svg width="523" height="593" viewBox="0 0 523 593" fill="none" xmlns="http://www.w3.org/2000/svg">
<path d="M384.725 256.424C389.536 256.424 393.45 252.516 393.45 247.712C393.45 242.908 389.536 239 384.725 239C379.914 239 376 242.908 376 247.712C376 252.516 379.914 256.424 384.725 256.424ZM384.725 241.23C388.305 241.23 391.206 244.138 391.206 247.702C391.206 251.276 388.295 254.173 384.725 254.173C381.145 254.173 378.244 251.266 378.244 247.702C378.234 244.138 381.145 241.23 384.725 241.23Z" fill="url(#paint0_linear)"/>
<path d="M344.067 153.111C339.612 153.111 336 149.505 336 145.056C336 140.607 339.612 137 344.067 137C348.523 137 352.135 140.607 352.135 145.056C352.135 149.505 348.523 153.111 344.067 153.111Z" fill="url(#paint1_linear)"/>
<path d="M337.532 52.838L341.435 51.577C343.888 50.785 345.808 48.8675 346.591 46.429L347.854 42.5315C348.083 41.8228 349.085 41.8228 349.315 42.5315L350.578 46.429C351.371 48.878 353.291 50.7954 355.733 51.577L359.637 52.838C360.346 53.0673 360.346 54.0677 359.637 54.297L355.733 55.5579C353.281 56.3499 351.36 58.2674 350.578 60.706L349.315 64.6035C349.085 65.3121 348.083 65.3121 347.854 64.6035L346.591 60.706C345.798 58.257 343.877 56.3395 341.435 55.5579L337.532 54.297C336.822 54.0677 336.822 53.0673 337.532 52.838Z" fill="url(#paint2_linear)"/>
<path d="M635.944 3.04171C690.945 -3.93302 750.91 -0.459604 786.166 29.9084C824.702 63.1081 829.001 109.867 789.402 143.011C758.489 168.873 686.824 200.426 701.338 237.853C704.574 246.209 714.124 253.155 725.359 258.038C803.828 292.172 985.339 217.291 1013.57 303.039C1030.3 353.898 960.786 399.96 901.73 427.705C853.133 450.54 796.16 466.443 736.462 473.334C669.76 481.034 629.54 458.952 566.429 453.246C529.112 449.871 490.354 463.834 463.408 478.537C435.243 493.909 412.374 512.811 384.23 528.197C331.202 557.226 262.861 572.165 196.337 586.464C139.719 598.628 59.4334 597.205 41.1515 552.497C32.0438 530.247 43.6556 506.31 63.4222 487.004C83.1888 467.684 110.534 452.033 136.616 435.949C192.791 401.299 258.141 352.629 231.261 299.342C204.536 246.348 120.417 218.742 75.7873 173.1C47.9324 144.615 44.8078 96.5868 92.9391 75.4254C125.292 61.197 164.87 69.2877 201.301 69.7898C288.722 71.0034 344.069 -10.9593 424 14C487.852 33.9386 574.207 167.133 635.944 159C636.654 158.916 635.213 3.13935 635.944 3.04171Z" fill="#F6E3FF"/>
<path d="M370.532 45.838L374.436 44.577C376.888 43.785 378.808 41.8675 379.591 39.429L380.854 35.5315C381.084 34.8228 382.086 34.8228 382.315 35.5315L383.578 39.429C384.371 41.878 386.291 43.7954 388.734 44.577L392.637 45.838C393.347 46.0673 393.347 47.0677 392.637 47.297L388.734 48.5579C386.281 49.3499 384.361 51.2674 383.578 53.706L382.315 57.6035C382.086 58.3121 381.084 58.3121 380.854 57.6035L379.591 53.706C378.798 51.257 376.878 49.3395 374.436 48.5579L370.532 47.297C369.823 47.0677 369.823 46.0673 370.532 45.838Z" fill="url(#paint3_linear)"/>
<path d="M175.48 536.783C217.046 536.783 250.742 531.192 250.742 524.296C250.742 517.399 217.046 511.808 175.48 511.808C133.914 511.808 100.218 517.399 100.218 524.296C100.218 531.192 133.914 536.783 175.48 536.783Z" fill="#E6D4EF"/>
<path d="M441.033 531.538C469.198 531.538 492.031 528.296 492.031 524.296C492.031 520.297 469.198 517.055 441.033 517.055C412.867 517.055 390.035 520.297 390.035 524.296C390.035 528.296 412.867 531.538 441.033 531.538Z" fill="#E6D4EF"/>
<path d="M219.292 254.39C219.292 254.39 241.52 338.987 303.457 394.45C311.926 401.412 439.414 414.333 439.414 414.333C439.414 414.333 445.707 412.979 446.237 405.905C446.767 398.831 440.726 396.85 440.726 396.85C440.726 396.85 364.836 363.725 324.707 361.423C321.874 340.103 307.098 255.729 286.797 235.693C266.495 215.643 219.292 254.39 219.292 254.39Z" fill="url(#paint4_linear)"/>
<path d="M433.833 416.426C433.833 416.426 433.122 420.319 436.345 422.426C439.568 424.533 450.632 437.202 448.651 449.438C446.684 461.675 449.112 466.531 454.149 466.824C459.2 467.103 471.813 459.917 473.418 437.411C472.915 431.481 465.116 417.04 471.241 414.375C473.013 411.57 474.157 395.036 470.892 388.311C466.078 386.86 438.898 380.664 436.135 388.38C435.103 393.515 442.526 397.687 441.828 402.403C441.117 407.105 433.722 413.928 433.833 416.426Z" fill="url(#paint5_linear)"/>
<path d="M448.121 440.802C445.805 431.788 438.8 424.03 436.345 422.426C433.121 420.319 433.833 416.426 433.833 416.426C433.721 413.928 441.116 407.105 441.828 402.389C442.54 397.673 435.103 393.501 436.135 388.367C436.637 386.971 437.949 386.036 439.777 385.437C439.037 387.069 438.786 389.427 441.298 391.939C445.916 396.557 447.884 399.138 445.065 406.129C442.247 413.119 438.312 413.51 439.54 415.77C440.768 418.031 450.577 425.175 451.958 431.691C452.907 436.142 450.018 439.281 448.121 440.802Z" fill="url(#paint6_linear)"/>
<path d="M444.074 423.794C444.088 423.724 444.088 423.655 444.088 423.585C444.06 423.124 443.67 422.776 443.209 422.789C443.14 422.789 441.423 422.901 440.293 424.171C439.596 424.966 439.289 426.013 439.386 427.282C439.428 427.743 439.819 428.092 440.279 428.05C440.74 428.008 441.075 427.603 441.047 427.157C440.977 426.361 441.158 425.72 441.549 425.273C442.205 424.534 443.279 424.45 443.293 424.45C443.698 424.45 444.005 424.157 444.074 423.794Z" fill="url(#paint7_linear)"/>
<path d="M447.186 428.621C447.2 428.551 447.2 428.482 447.2 428.412C447.172 427.951 446.781 427.603 446.321 427.617C446.251 427.617 444.535 427.728 443.405 428.998C442.707 429.793 442.4 430.84 442.498 432.109C442.54 432.57 442.93 432.919 443.391 432.877C443.851 432.835 444.2 432.43 444.158 431.984C444.088 431.189 444.27 430.547 444.66 430.1C445.316 429.361 446.391 429.277 446.404 429.277C446.795 429.277 447.116 428.998 447.186 428.621Z" fill="url(#paint8_linear)"/>
<path d="M450.186 434.3C450.2 434.23 450.2 434.16 450.2 434.091C450.172 433.63 449.781 433.281 449.321 433.295C449.251 433.295 447.535 433.407 446.404 434.677C445.707 435.472 445.4 436.518 445.497 437.788C445.539 438.249 445.93 438.597 446.39 438.556C446.851 438.514 447.2 438.109 447.158 437.663C447.088 436.867 447.269 436.239 447.66 435.779C448.316 435.039 449.39 434.956 449.404 434.956C449.795 434.956 450.116 434.663 450.186 434.3Z" fill="url(#paint9_linear)"/>
<path d="M454.148 466.824C453.841 466.81 453.548 466.768 453.255 466.726C468.143 457.21 470.794 440.983 467.864 431.718C464.85 422.161 464.264 416.007 467.78 411.236C470.515 407.524 468.38 393.473 467.292 387.376C468.897 387.753 470.152 388.088 470.892 388.311C474.157 395.036 473.027 411.584 471.241 414.375C465.115 417.026 472.915 431.481 473.417 437.411C471.813 459.917 459.199 467.103 454.148 466.824Z" fill="white"/>
<path d="M459.604 407.72C459.408 409.603 458.055 410.873 456.618 411.682C455.906 412.115 455.083 412.422 454.288 412.701L453.046 413.064C452.572 413.203 452.041 413.371 451.553 413.622C450.576 414.082 449.46 414.892 448.986 416.329C448.497 417.808 449.055 419.273 449.683 420.222C450.939 422.175 452.948 423.291 454.623 424.101C455.488 424.491 456.283 424.84 457.009 425.231C457.371 425.426 457.706 425.621 458.013 425.845C458.292 426.068 458.529 426.277 458.781 426.5C459.688 427.449 460.12 428.914 460.162 430.561C460.19 433.881 459.129 437.44 457.804 440.886C460.315 438.123 462.241 434.705 462.771 430.686C463.064 428.705 462.66 426.319 461.18 424.435C460.818 423.989 460.343 423.584 459.925 423.235C459.492 422.914 459.046 422.621 458.613 422.384C457.734 421.882 456.855 421.477 456.06 421.087C454.427 420.375 453.13 419.594 452.306 418.45C451.888 417.919 451.748 417.473 451.818 417.152C451.874 416.817 452.237 416.301 452.851 415.896C453.144 415.687 453.492 415.519 453.869 415.338C454.316 415.129 454.762 414.933 455.195 414.696C456.046 414.194 456.897 413.678 457.623 412.994C458.348 412.31 459.004 411.515 459.395 410.58C459.757 409.659 459.911 408.613 459.604 407.72Z" fill="#FFDD77"/>
<path opacity="0.5" d="M359.868 367.939C347.813 366.67 328.349 365.93 321.749 370.521C315.149 375.111 315.275 369.418 316.949 362.986C318.624 356.554 311.131 350.47 311.131 350.47C311.131 350.47 315.582 343.075 320.479 335.806C322.558 346.912 323.995 356.093 324.693 361.395C334.767 361.981 347.074 364.493 359.868 367.939Z" fill="url(#paint10_linear)"/>
<path d="M219.292 254.391C219.292 254.391 222.278 251.949 227.05 248.6C233.957 244.679 243.64 239.154 249.961 235.387C263.202 229.54 277.699 226.694 286.797 235.68C302.926 251.6 315.568 308.095 321.498 341.345C312.959 349.773 296.899 363.154 277.658 367.228C235.213 314.974 219.292 254.391 219.292 254.391Z" fill="#F1A639"/>
<path opacity="0.5" d="M241.589 310.648C253.882 300.686 286.853 279.617 286.853 279.617C286.853 279.617 296.62 270.031 304.936 272.152C307.322 279.422 309.526 287.179 311.535 295.007C307.559 303.742 300.094 317.346 289.155 325.787C274.923 336.782 267.584 339.698 266.942 353.093C256.658 338.638 248.287 324.043 241.589 310.648Z" fill="url(#paint11_linear)"/>
<path d="M294.457 236.252C294.457 236.252 334.753 274.595 289.211 306.24C243.668 337.885 175.145 363.168 175.145 363.168C175.145 363.168 200.749 405.557 214.758 491.102C213.753 495.177 215.372 497.158 208.66 499.656C201.949 502.153 195.67 495.707 195.67 495.707C195.67 495.707 149.486 408.85 133.608 357.629C134.487 334.913 188.484 276.464 232.073 253.121C266.998 237.229 294.457 236.252 294.457 236.252Z" fill="url(#paint12_linear)"/>
<path d="M190.103 490.098C190.103 490.098 186.154 489.875 184.466 493.335C182.778 496.795 171.56 509.325 159.169 508.879C146.779 508.432 142.259 511.432 142.593 516.469C142.928 521.506 151.621 533.157 174.155 531.971C179.987 530.729 193.354 521.227 196.745 526.976C199.745 528.399 216.293 527.492 222.572 523.418C223.423 518.464 226.213 490.726 218.232 488.94C213 488.549 209.791 496.433 205.019 496.307C200.247 496.181 192.559 489.679 190.103 490.098Z" fill="url(#paint13_linear)"/>
<path d="M167.667 507.288C176.332 503.883 183.169 495.972 184.452 493.335C186.141 489.875 190.089 490.098 190.089 490.098C192.559 489.679 200.233 496.181 205.005 496.307C209.777 496.433 212.986 488.549 218.218 488.94C219.67 489.261 220.758 490.447 221.567 492.191C219.865 491.647 217.493 491.689 215.302 494.493C211.284 499.642 208.968 501.902 201.684 499.977C194.401 498.051 193.536 494.186 191.443 495.679C189.35 497.172 183.462 507.79 177.183 509.967C172.871 511.46 169.411 508.99 167.667 507.288Z" fill="url(#paint14_linear)"/>
<path d="M184.047 501.176C184.117 501.176 184.187 501.176 184.257 501.162C184.717 501.078 185.01 500.646 184.94 500.199C184.927 500.13 184.62 498.427 183.21 497.479C182.331 496.879 181.257 496.711 180.015 496.962C179.569 497.06 179.276 497.492 179.359 497.953C179.457 498.399 179.903 498.692 180.35 498.609C181.131 498.441 181.787 498.539 182.275 498.874C183.099 499.432 183.294 500.492 183.308 500.506C183.364 500.883 183.685 501.148 184.047 501.176Z" fill="url(#paint15_linear)"/>
<path d="M179.639 504.86C179.708 504.86 179.778 504.86 179.848 504.846C180.308 504.762 180.601 504.329 180.531 503.883C180.518 503.813 180.211 502.111 178.801 501.162C177.922 500.562 176.848 500.395 175.606 500.646C175.16 500.744 174.867 501.176 174.95 501.636C175.048 502.097 175.495 502.376 175.941 502.292C176.722 502.125 177.378 502.223 177.867 502.557C178.69 503.116 178.885 504.176 178.899 504.19C178.941 504.553 179.262 504.832 179.639 504.86Z" fill="url(#paint16_linear)"/>
<path d="M174.378 508.53C174.448 508.53 174.518 508.53 174.587 508.516C175.048 508.432 175.341 507.999 175.271 507.553C175.257 507.483 174.936 505.795 173.541 504.832C172.662 504.232 171.588 504.065 170.346 504.316C169.899 504.413 169.606 504.846 169.69 505.306C169.788 505.753 170.234 506.046 170.681 505.962C171.462 505.795 172.118 505.892 172.606 506.227C173.415 506.785 173.625 507.846 173.639 507.86C173.681 508.237 174.001 508.502 174.378 508.53Z" fill="url(#paint17_linear)"/>
<path d="M142.593 516.469C142.579 516.162 142.565 515.869 142.593 515.576C153.867 529.18 170.29 529.808 179.136 525.762C188.247 521.59 194.275 520.25 199.452 523.153C203.47 525.413 217.158 521.562 223.06 519.734C222.879 521.381 222.711 522.664 222.586 523.418C216.307 527.492 199.758 528.399 196.759 526.976C193.368 521.227 180.001 530.729 174.169 531.971C151.607 533.157 142.928 521.506 142.593 516.469Z" fill="white"/>
<path d="M201.921 514.614C200.024 514.656 198.6 513.47 197.624 512.13C197.107 511.475 196.703 510.707 196.326 509.94L195.81 508.754C195.614 508.307 195.377 507.805 195.07 507.344C194.484 506.438 193.549 505.433 192.056 505.126C190.536 504.819 189.14 505.558 188.289 506.298C186.503 507.777 185.638 509.926 185.052 511.684C184.773 512.591 184.522 513.428 184.229 514.195C184.089 514.586 183.922 514.935 183.74 515.27C183.545 515.577 183.378 515.828 183.182 516.107C182.359 517.126 180.964 517.739 179.317 517.977C176.024 518.409 172.355 517.795 168.783 516.902C171.839 519.051 175.452 520.544 179.527 520.572C181.536 520.628 183.852 519.916 185.54 518.228C185.945 517.809 186.28 517.293 186.573 516.832C186.838 516.372 187.075 515.898 187.257 515.423C187.647 514.488 187.94 513.567 188.233 512.73C188.736 511.028 189.363 509.633 190.382 508.67C190.856 508.196 191.275 507.986 191.61 508.014C191.945 508.028 192.517 508.321 192.991 508.879C193.242 509.144 193.438 509.465 193.675 509.828C193.94 510.247 194.177 510.665 194.47 511.056C195.07 511.837 195.684 512.619 196.466 513.261C197.233 513.888 198.112 514.447 199.075 514.726C200.01 515.005 201.056 515.019 201.921 514.614Z" fill="#FFDD77"/>
<path opacity="0.5" d="M160.495 361.549C157.453 358.73 168.225 358.214 176.583 350.052C184.94 341.889 178.494 324.559 178.494 324.559L194.693 316.271C194.693 316.271 214.228 336.015 221.26 343.745C195.433 355.661 175.159 363.153 175.159 363.153C175.159 363.153 188.833 385.813 201.67 431.397C191.345 398.622 163.313 364.172 160.495 361.549Z" fill="url(#paint18_linear)"/>
<path d="M165.713 306.812C184.927 286.05 209.847 265.023 232.06 253.121C266.998 237.229 294.457 236.252 294.457 236.252C294.457 236.252 334.753 274.595 289.211 306.24C264.737 323.249 233.636 338.401 210.084 348.81C183.224 334.606 170.485 315.644 165.713 306.812Z" fill="url(#paint19_linear)"/>
<path d="M277.169 286.259C287.369 265.79 260.802 254.153 260.802 254.153C260.802 254.153 260.914 248.558 263.719 241.693C282.234 236.684 294.457 236.237 294.457 236.237C294.457 236.237 334.753 274.58 289.211 306.225C269.928 319.634 246.529 331.871 225.934 341.554C226.115 341.429 266.984 306.7 277.169 286.259Z" fill="url(#paint20_linear)"/>
<path d="M0.873228 125.242C2.8964 123.498 5.53349 123.986 9.09149 127.098C12.6495 130.209 22.6119 144.078 22.6119 144.078C22.6119 144.078 21.1189 139.558 21.5236 137.465C21.9142 135.358 24.8863 130.614 25.3048 134.535C25.7234 138.455 30.5651 143.353 31.5278 146.269C32.4906 149.185 30.9418 160.668 30.9418 160.668C43.3041 171.747 57.3827 181.207 70.4286 191.211C76.9586 196.193 83.5863 200.992 90.1581 205.095C93.3254 207.048 96.5206 208.862 99.381 210.132C99.674 209.811 99.9949 209.476 100.358 209.029L101.097 208.164L101.893 207.188C104.013 204.564 106.246 201.495 108.436 198.327C112.818 191.923 117.087 185.044 121.231 178.04C125.375 171.036 129.422 163.878 133.37 156.65C133.482 156.441 133.594 156.245 133.705 156.036C139.9 144.664 154.356 140.786 165.378 147.567C176.834 154.613 179.652 170.073 171.364 180.677C171.169 180.928 170.974 181.179 170.778 181.417C165.434 188.24 159.979 194.993 154.356 201.69C148.705 208.388 142.9 215.029 136.58 221.615C133.37 224.922 130.063 228.201 126.254 231.535L124.817 232.791L123.241 234.075C122.25 234.898 121.022 235.805 119.808 236.684L118.873 237.34L117.785 238.051C117.018 238.526 116.39 238.944 115.511 239.447C114.548 239.963 113.571 240.451 112.58 240.912C112.19 241.121 111.297 241.442 110.627 241.679C109.902 241.93 109.176 242.168 108.436 242.363C108.032 242.475 107.795 242.558 107.237 242.656C106.734 242.754 106.218 242.837 105.702 242.907C104.613 243.075 103.79 243.089 102.911 243.089C102.493 243.089 102.018 243.089 101.627 243.061L100.525 242.963C99.7856 242.893 99.0601 242.795 98.488 242.67C95.9346 242.196 94.1486 241.512 92.4882 240.842C89.2651 239.475 86.8512 238.01 84.6188 236.545C80.2236 233.614 76.6377 230.629 73.1634 227.601C66.2986 221.545 60.1872 215.308 54.2293 208.988C42.3832 196.29 31.3883 183.356 20.6445 169.933C20.6445 169.933 5.96606 161.157 3.45453 153.622C0.970907 146.102 -1.14995 126.986 0.873228 125.242Z" fill="url(#paint21_linear)"/>
<path opacity="0.5" d="M131.989 201.48C131.528 191.239 130.035 173.281 129.24 164.058C130.621 161.589 132.017 159.119 133.37 156.635C133.482 156.426 133.593 156.231 133.705 156.022C139.314 145.71 151.704 141.594 162.197 145.947C165.867 149.226 169.229 152.826 171.364 155.756C173.038 158.059 174.643 162.635 176.094 168.021C175.857 172.444 174.336 176.867 171.378 180.648C171.183 180.9 170.987 181.151 170.792 181.388C165.448 188.211 159.992 194.964 154.369 201.662C148.718 208.359 142.914 215.001 136.593 221.586C133.384 224.893 130.077 228.172 126.268 231.507L124.831 232.763L123.254 234.046C122.264 234.87 121.036 235.777 119.822 236.656L118.887 237.311L117.799 238.023C117.031 238.497 116.403 238.916 115.524 239.418C114.562 239.934 113.585 240.423 112.594 240.883C112.204 241.093 111.311 241.414 110.641 241.651C109.915 241.902 109.19 242.139 108.45 242.334C108.046 242.446 107.808 242.53 107.25 242.627C107.25 242.641 132.631 215.684 131.989 201.48Z" fill="url(#paint22_linear)"/>
<path d="M155.29 125.256C155.29 125.256 140.068 141.735 137.11 157.85C134.152 173.966 140.654 198.091 160.495 207.313C180.336 216.536 216.349 262.707 216.349 262.707C216.349 262.707 264.709 260.167 295.783 237.047C287.523 224.824 237.417 166.222 223.716 145C210.028 123.763 182.052 100.601 155.29 125.256Z" fill="url(#paint23_linear)"/>
<path d="M244.725 88.4242C249.536 88.4242 253.45 84.5162 253.45 79.7121C253.45 74.9079 249.536 71 244.725 71C239.914 71 236 74.9079 236 79.7121C236 84.5162 239.914 88.4242 244.725 88.4242ZM244.725 73.2301C248.305 73.2301 251.206 76.1376 251.206 79.7017C251.206 83.2761 248.295 86.1732 244.725 86.1732C241.145 86.1732 238.244 83.2657 238.244 79.7017C238.234 76.1376 241.145 73.2301 244.725 73.2301Z" fill="url(#paint24_linear)"/>
<path d="M371.725 273.424C376.536 273.424 380.45 269.516 380.45 264.712C380.45 259.908 376.536 256 371.725 256C366.914 256 363 259.908 363 264.712C363 269.516 366.914 273.424 371.725 273.424ZM371.725 258.23C375.305 258.23 378.206 261.138 378.206 264.702C378.206 268.276 375.294 271.173 371.725 271.173C368.145 271.173 365.244 268.266 365.244 264.702C365.233 261.138 368.145 258.23 371.725 258.23Z" fill="url(#paint25_linear)"/>
<path d="M189.067 35.1111C184.612 35.1111 181 31.5045 181 27.0556C181 22.6066 184.612 19 189.067 19C193.523 19 197.135 22.6066 197.135 27.0556C197.135 31.5045 193.523 35.1111 189.067 35.1111Z" fill="url(#paint26_linear)"/>
<path d="M313 85C310.239 85 308 82.7614 308 80C308 77.2386 310.239 75 313 75C315.761 75 318 77.2386 318 80C318 82.7614 315.761 85 313 85Z" fill="url(#paint27_linear)"/>
<path d="M122.532 268.838L126.436 267.577C128.888 266.785 130.808 264.868 131.591 262.429L132.854 258.531C133.084 257.823 134.086 257.823 134.315 258.531L135.578 262.429C136.371 264.878 138.291 266.795 140.734 267.577L144.637 268.838C145.347 269.067 145.347 270.068 144.637 270.297L140.734 271.558C138.281 272.35 136.361 274.267 135.578 276.706L134.315 280.603C134.086 281.312 133.084 281.312 132.854 280.603L131.591 276.706C130.798 274.257 128.878 272.34 126.436 271.558L122.532 270.297C121.823 270.068 121.823 269.057 122.532 268.838Z" fill="url(#paint28_linear)"/>
<path d="M360.532 139.838L364.436 138.577C366.888 137.785 368.808 135.868 369.591 133.429L370.854 129.531C371.084 128.823 372.086 128.823 372.315 129.531L373.578 133.429C374.371 135.878 376.291 137.795 378.734 138.577L382.637 139.838C383.347 140.067 383.347 141.068 382.637 141.297L378.734 142.558C376.281 143.35 374.361 145.267 373.578 147.706L372.315 151.603C372.086 152.312 371.084 152.312 370.854 151.603L369.591 147.706C368.798 145.257 366.878 143.34 364.436 142.558L360.532 141.297C359.823 141.068 359.823 140.057 360.532 139.838Z" fill="url(#paint29_linear)"/>
<path d="M135.31 121.656C135.31 121.656 146.933 128.046 145.412 148.236C145.077 157.194 154.607 163.236 165.002 153.371C175.397 143.506 167.695 117.526 167.695 117.526C167.695 117.526 151.216 115.391 144.435 108.233C138.812 107.466 135.31 121.656 135.31 121.656Z" fill="url(#paint30_linear)"/>
<path opacity="0.5" d="M144.421 108.219C147.826 111.819 153.686 114.149 158.667 115.573C154.035 121.489 144.254 123.191 137.863 123.651C136.398 122.256 135.324 121.642 135.324 121.642C135.324 121.642 138.812 107.466 144.421 108.219Z" fill="url(#paint31_linear)"/>
<path d="M146.374 63.6535C146.374 63.6535 133.747 53.3423 118.148 60.0537C102.548 66.7511 98.8088 85.4062 100.106 93.5826C101.404 101.759 100.358 107.661 99.8413 111.666C99.3251 115.67 107.46 112.238 107.46 112.238C107.46 112.238 110.766 127.349 114.924 128.73C119.068 130.111 144.044 123.26 151.23 101.257C151.216 101.229 159.044 79.0576 146.374 63.6535Z" fill="url(#paint32_linear)"/>
<path d="M80.0979 77.3278C82.2466 75.486 84.9814 75.4023 86.6418 74.3698C88.3022 73.3512 83.1396 71.2303 83.8373 69.5699C86.1953 69.0955 88.8185 68.4677 91.2184 68.37C91.4556 67.9793 91.1207 67.477 90.716 67.2538C90.3114 67.0305 89.837 66.9328 89.5161 66.6119C88.9301 65.998 89.2929 64.9236 89.9905 64.4353C90.6882 63.9609 91.5672 63.8911 92.4044 63.7795C96.2833 63.2074 99.7157 61.0726 103.023 58.9657C103.023 58.9657 122.096 46.129 137.472 54.738C144.03 55.4496 170.792 62.5656 153.421 103.699C149.765 112.112 147.812 111.401 145.593 111.973C143.374 112.545 141.449 104.076 143.165 98.2432C144.881 92.397 142.091 89.8436 138.826 90.6668C135.561 91.49 133.007 94.2806 133.831 100.322C134.654 106.35 126.352 103.587 125.138 84.2066C125.138 84.2066 101.864 94.448 91.916 91.0156C81.9955 87.5692 77.9491 79.1696 80.0979 77.3278Z" fill="url(#paint33_linear)"/>
<path opacity="0.5" d="M112.915 79.7828C126.143 71.4668 134.431 66.4159 139.091 71.1738C143.375 75.5411 150.365 84.3314 159.169 78.3317C159.434 84.8756 157.886 93.1637 153.435 103.712C149.779 112.126 147.826 111.414 145.607 111.986C143.389 112.558 141.463 104.089 143.179 98.2565C144.896 92.4102 142.105 89.8568 138.84 90.68C135.575 91.5033 133.022 94.2939 133.845 100.335C134.668 106.363 126.366 103.6 125.152 84.2198C125.152 84.2198 101.879 94.4613 91.9302 91.0289C81.9818 87.5964 77.9354 79.1968 80.0841 77.355C80.0981 77.3271 99.688 88.0987 112.915 79.7828Z" fill="url(#paint34_linear)"/>
<path d="M210.488 137.925C212.358 137.13 215.121 137.074 218.288 137.465C220.283 139.948 222.111 142.488 223.73 144.999C237.431 166.222 287.537 224.824 295.797 237.047C285.262 244.888 272.746 250.344 260.789 254.167C260.803 254.111 271.044 221.252 255.096 200.518C239.134 179.77 197.317 155.38 197.317 155.38C193.005 141.929 202.075 141.525 210.488 137.925Z" fill="url(#paint35_linear)"/>
<path d="M195.852 113.633C202.8 113.312 209.735 113.033 216.739 112.81C224.162 112.6 236.622 112.837 244.198 112.851L249.947 112.935C251.873 112.977 253.896 113.075 255.849 113.13C257.817 113.2 260.021 113.396 262.086 113.549C263.202 113.647 264.528 113.828 265.728 113.982L267.57 114.233C268.756 114.456 269.956 114.749 271.128 115.084C275.286 116.507 277.951 118.377 280.002 120.037L281.564 121.321L282.89 122.577C283.811 123.428 284.578 124.251 285.332 125.088C288.36 128.409 290.773 131.674 293.062 134.939C297.527 141.469 301.308 148.013 304.88 154.599C311.87 167.617 317.996 180.677 323.73 194.085C326.87 196.067 337.906 203.406 340.069 209.866C342.581 217.401 344.701 236.516 342.678 238.26C340.655 240.005 338.018 239.516 334.46 236.405C330.902 233.293 320.94 219.424 320.94 219.424C320.94 219.424 322.433 223.945 322.028 226.038C321.637 228.145 318.665 232.889 318.247 228.968C317.828 225.047 312.986 220.15 312.024 217.233C311.061 214.317 312.61 202.834 312.61 202.834C312.61 201.55 313.056 200.406 313.74 199.401C305.745 187.835 297.234 176.407 288.346 165.733C284.425 161.045 280.364 156.468 276.039 152.129C272.844 148.92 268.56 144.72 264.081 143.52C257.914 141.874 248.329 145.418 242.133 146.464C234.92 147.678 208.242 153.734 202.033 154.71C190.187 157.71 178.313 149.98 176.29 137.925C174.197 125.604 183.364 114.219 195.852 113.633Z" fill="url(#paint36_linear)"/>
<path opacity="0.5" d="M243.724 140.422C251.956 137.255 257.579 134.325 261.151 131.506C264.709 128.674 266.732 136.055 269.104 138.804C271.476 141.553 307.489 190.611 307.489 190.611C301.336 182.072 294.931 173.686 288.304 165.747C284.383 161.059 280.323 156.482 275.997 152.143C272.802 148.934 268.518 144.734 264.039 143.534C257.872 141.887 248.287 145.431 242.091 146.478C237.808 147.189 226.701 149.617 217.074 151.668C217.088 151.668 235.506 143.59 243.724 140.422Z" fill="url(#paint37_linear)"/>
<defs>
<linearGradient id="paint0_linear" x1="392.099" y1="243.064" x2="377.354" y2="252.373" gradientUnits="userSpaceOnUse">
<stop stop-color="#8F3692"/>
<stop offset="1" stop-color="#542891"/>
</linearGradient>
<linearGradient id="paint1_linear" x1="352.13" y1="145.054" x2="335.995" y2="145.054" gradientUnits="userSpaceOnUse">
<stop offset="0.0127" stop-color="#FFD54C"/>
<stop offset="0.3774" stop-color="#FFCD4C"/>
<stop offset="0.957" stop-color="#FFB64C"/>
<stop offset="1" stop-color="#FFB44C"/>
</linearGradient>
<linearGradient id="paint2_linear" x1="356.978" y1="48.2873" x2="340.21" y2="58.8741" gradientUnits="userSpaceOnUse">
<stop offset="0.0739" stop-color="#F16680"/>
<stop offset="0.991" stop-color="#FFBBD2"/>
</linearGradient>
<linearGradient id="paint3_linear" x1="389.978" y1="41.2873" x2="373.21" y2="51.8741" gradientUnits="userSpaceOnUse">
<stop offset="0.0739" stop-color="#F16680"/>
<stop offset="0.991" stop-color="#FFBBD2"/>
</linearGradient>
<linearGradient id="paint4_linear" x1="375.937" y1="412.356" x2="310.335" y2="299.412" gradientUnits="userSpaceOnUse">
<stop offset="0.0284" stop-color="#FFCBB7"/>
<stop offset="1" stop-color="#E4A887"/>
</linearGradient>
<linearGradient id="paint5_linear" x1="470.253" y1="385.635" x2="425.126" y2="403.165" gradientUnits="userSpaceOnUse">
<stop offset="0.00280449" stop-color="#DFA5FF"/>
<stop offset="1" stop-color="#B27DFF"/>
</linearGradient>
<linearGradient id="paint6_linear" x1="444.346" y1="387.668" x2="413.377" y2="412.927" gradientUnits="userSpaceOnUse">
<stop offset="0.0127" stop-color="#FFD54C"/>
<stop offset="0.3774" stop-color="#FFCD4C"/>
<stop offset="0.957" stop-color="#FFB64C"/>
<stop offset="1" stop-color="#FFB44C"/>
</linearGradient>
<linearGradient id="paint7_linear" x1="443.712" y1="422.856" x2="439.65" y2="425.791" gradientUnits="userSpaceOnUse">
<stop offset="0.00280449" stop-color="#DFA5FF"/>
<stop offset="1" stop-color="#B27DFF"/>
</linearGradient>
<linearGradient id="paint8_linear" x1="446.823" y1="427.683" x2="442.761" y2="430.618" gradientUnits="userSpaceOnUse">
<stop offset="0.00280449" stop-color="#DFA5FF"/>
<stop offset="1" stop-color="#B27DFF"/>
</linearGradient>
<linearGradient id="paint9_linear" x1="449.823" y1="433.362" x2="445.761" y2="436.297" gradientUnits="userSpaceOnUse">
<stop offset="0.00280449" stop-color="#DFA5FF"/>
<stop offset="1" stop-color="#B27DFF"/>
</linearGradient>
<linearGradient id="paint10_linear" x1="331.816" y1="344.318" x2="339.263" y2="374.397" gradientUnits="userSpaceOnUse">
<stop offset="0.0284" stop-color="#FFCBB7"/>
<stop offset="1" stop-color="#E4A887"/>
</linearGradient>
<linearGradient id="paint11_linear" x1="275.318" y1="297.826" x2="288.273" y2="350.157" gradientUnits="userSpaceOnUse">
<stop offset="0.0156" stop-color="#F1A639"/>
<stop offset="1" stop-color="#C48427"/>
</linearGradient>
<linearGradient id="paint12_linear" x1="202.155" y1="281.767" x2="242.016" y2="357.29" gradientUnits="userSpaceOnUse">
<stop offset="0.0284" stop-color="#FFCBB7"/>
<stop offset="1" stop-color="#E4A887"/>
</linearGradient>
<linearGradient id="paint13_linear" x1="217.262" y1="489.477" x2="185.04" y2="538.337" gradientUnits="userSpaceOnUse">
<stop offset="0.00280449" stop-color="#DFA5FF"/>
<stop offset="1" stop-color="#B27DFF"/>
</linearGradient>
<linearGradient id="paint14_linear" x1="198.695" y1="489.793" x2="194.811" y2="513.717" gradientUnits="userSpaceOnUse">
<stop offset="0.0127" stop-color="#FFD54C"/>
<stop offset="0.3774" stop-color="#FFCD4C"/>
<stop offset="0.957" stop-color="#FFB64C"/>
<stop offset="1" stop-color="#FFB44C"/>
</linearGradient>
<linearGradient id="paint15_linear" x1="184.503" y1="496.905" x2="180.99" y2="500.573" gradientUnits="userSpaceOnUse">
<stop offset="0.00280449" stop-color="#DFA5FF"/>
<stop offset="1" stop-color="#B27DFF"/>
</linearGradient>
<linearGradient id="paint16_linear" x1="180.094" y1="500.588" x2="176.581" y2="504.256" gradientUnits="userSpaceOnUse">
<stop offset="0.00280449" stop-color="#DFA5FF"/>
<stop offset="1" stop-color="#B27DFF"/>
</linearGradient>
<linearGradient id="paint17_linear" x1="174.834" y1="504.258" x2="171.321" y2="507.926" gradientUnits="userSpaceOnUse">
<stop offset="0.00280449" stop-color="#DFA5FF"/>
<stop offset="1" stop-color="#B27DFF"/>
</linearGradient>
<linearGradient id="paint18_linear" x1="189.809" y1="349.027" x2="210.592" y2="432.977" gradientUnits="userSpaceOnUse">
<stop offset="0.0284" stop-color="#FFCBB7"/>
<stop offset="1" stop-color="#E4A887"/>
</linearGradient>
<linearGradient id="paint19_linear" x1="249.295" y1="240.789" x2="212.411" y2="357.697" gradientUnits="userSpaceOnUse">
<stop offset="0.0127" stop-color="#FFD54C"/>
<stop offset="0.3774" stop-color="#FFCD4C"/>
<stop offset="0.957" stop-color="#FFB64C"/>
<stop offset="1" stop-color="#FFB44C"/>
</linearGradient>
<linearGradient id="paint20_linear" x1="274.849" y1="240.483" x2="226.486" y2="336.362" gradientUnits="userSpaceOnUse">
<stop offset="0.0572917" stop-color="#FFB44C"/>
<stop offset="1" stop-color="#FFD54C"/>
</linearGradient>
<linearGradient id="paint21_linear" x1="73.5115" y1="140.841" x2="159.305" y2="228.311" gradientUnits="userSpaceOnUse">
<stop offset="0.0284" stop-color="#FFCBB7"/>
<stop offset="1" stop-color="#E4A887"/>
</linearGradient>
<linearGradient id="paint22_linear" x1="173.945" y1="196.669" x2="111.049" y2="191.951" gradientUnits="userSpaceOnUse">
<stop offset="0.0284" stop-color="#FFCBB7"/>
<stop offset="1" stop-color="#E4A887"/>
</linearGradient>
<linearGradient id="paint23_linear" x1="288.698" y1="140.036" x2="243.12" y2="263.194" gradientUnits="userSpaceOnUse">
<stop offset="0.0235" stop-color="#F16680"/>
<stop offset="1" stop-color="#D33775"/>
</linearGradient>
<linearGradient id="paint24_linear" x1="252.099" y1="75.0638" x2="237.354" y2="84.3733" gradientUnits="userSpaceOnUse">
<stop stop-color="#8F3692"/>
<stop offset="1" stop-color="#542891"/>
</linearGradient>
<linearGradient id="paint25_linear" x1="379.099" y1="260.064" x2="364.354" y2="269.373" gradientUnits="userSpaceOnUse">
<stop stop-color="#8F3692"/>
<stop offset="1" stop-color="#542891"/>
</linearGradient>
<linearGradient id="paint26_linear" x1="197.135" y1="27.0588" x2="180.999" y2="27.0588" gradientUnits="userSpaceOnUse">
<stop offset="0.00280449" stop-color="#DFA5FF"/>
<stop offset="1" stop-color="#B27DFF"/>
</linearGradient>
<linearGradient id="paint27_linear" x1="318" y1="80.002" x2="308" y2="80.002" gradientUnits="userSpaceOnUse">
<stop offset="0.00280449" stop-color="#DFA5FF"/>
<stop offset="1" stop-color="#B27DFF"/>
</linearGradient>
<linearGradient id="paint28_linear" x1="141.977" y1="264.281" x2="125.209" y2="274.867" gradientUnits="userSpaceOnUse">
<stop offset="0.0127" stop-color="#FFD54C"/>
<stop offset="0.3774" stop-color="#FFCD4C"/>
<stop offset="0.957" stop-color="#FFB64C"/>
<stop offset="1" stop-color="#FFB44C"/>
</linearGradient>
<linearGradient id="paint29_linear" x1="379.977" y1="135.281" x2="363.209" y2="145.867" gradientUnits="userSpaceOnUse">
<stop offset="0.0127" stop-color="#FFD54C"/>
<stop offset="0.3774" stop-color="#FFCD4C"/>
<stop offset="0.957" stop-color="#FFB64C"/>
<stop offset="1" stop-color="#FFB44C"/>
</linearGradient>
<linearGradient id="paint30_linear" x1="170.667" y1="134.943" x2="134.513" y2="132.231" gradientUnits="userSpaceOnUse">
<stop offset="0.0284" stop-color="#FFCBB7"/>
<stop offset="1" stop-color="#E4A887"/>
</linearGradient>
<linearGradient id="paint31_linear" x1="158.533" y1="117.244" x2="135.765" y2="115.537" gradientUnits="userSpaceOnUse">
<stop offset="0.0284" stop-color="#FFCBB7"/>
<stop offset="1" stop-color="#E4A887"/>
</linearGradient>
<linearGradient id="paint32_linear" x1="153.005" y1="95.5812" x2="99.6806" y2="91.5813" gradientUnits="userSpaceOnUse">
<stop offset="0.0284" stop-color="#FFCBB7"/>
<stop offset="1" stop-color="#E4A887"/>
</linearGradient>
<linearGradient id="paint33_linear" x1="123.31" y1="54.617" x2="121.461" y2="89.2896" gradientUnits="userSpaceOnUse">
<stop stop-color="#8F3692"/>
<stop offset="1" stop-color="#542891"/>
</linearGradient>
<linearGradient id="paint34_linear" x1="123.307" y1="71.3555" x2="122.378" y2="95.9571" gradientUnits="userSpaceOnUse">
<stop stop-color="#8F3692"/>
<stop offset="1" stop-color="#542891"/>
</linearGradient>
<linearGradient id="paint35_linear" x1="291.369" y1="157.292" x2="248.937" y2="248.029" gradientUnits="userSpaceOnUse">
<stop offset="0.0235" stop-color="#CD5C71"/>
<stop offset="1" stop-color="#D33775"/>
</linearGradient>
<linearGradient id="paint36_linear" x1="347.55" y1="179.896" x2="173.477" y2="166.838" gradientUnits="userSpaceOnUse">
<stop offset="0.0284" stop-color="#FFCBB7"/>
<stop offset="1" stop-color="#E4A887"/>
</linearGradient>
<linearGradient id="paint37_linear" x1="309.602" y1="162.572" x2="216.789" y2="155.61" gradientUnits="userSpaceOnUse">
<stop offset="0.0284" stop-color="#FFCBB7"/>
<stop offset="1" stop-color="#E4A887"/>
</linearGradient>
</defs>
</svg>
