<svg width="19" height="19" viewBox="0 0 19 19" fill="none" xmlns="http://www.w3.org/2000/svg">
<path d="M0.436487 8.9009L3.63739 7.86532C5.64865 7.21487 7.22342 5.64009 7.86532 3.63739L8.9009 0.436486C9.08919 -0.145496 9.91081 -0.145496 10.0991 0.436486L11.1347 3.63739C11.7851 5.64865 13.3599 7.22342 15.3626 7.86532L18.5635 8.9009C19.1455 9.08919 19.1455 9.91081 18.5635 10.0991L15.3626 11.1347C13.3514 11.7851 11.7766 13.3599 11.1347 15.3626L10.0991 18.5635C9.91081 19.1455 9.08919 19.1455 8.9009 18.5635L7.86532 15.3626C7.21486 13.3514 5.64009 11.7766 3.63739 11.1347L0.436487 10.0991C-0.145494 9.91081 -0.145494 9.08063 0.436487 8.9009Z" fill="url(#paint0_linear)"/>
<defs>
<linearGradient id="paint0_linear" x1="16.3822" y1="5.15807" x2="2.61986" y2="13.8343" gradientUnits="userSpaceOnUse">
<stop offset="0.0127" stop-color="#FFD54C"/>
<stop offset="0.3774" stop-color="#FFCD4C"/>
<stop offset="0.957" stop-color="#FFB64C"/>
<stop offset="1" stop-color="#FFB44C"/>
</linearGradient>
</defs>
</svg>
