<svg width="25" height="24" viewBox="0 0 25 24" fill="none" xmlns="http://www.w3.org/2000/svg">
<path d="M1.52711 10.838L5.43039 9.57703C7.88298 8.78503 9.80332 6.86753 10.5861 4.42898L11.8489 0.531479C12.0785 -0.17716 13.0804 -0.17716 13.31 0.531479L14.5728 4.42898C15.366 6.87795 17.2864 8.79545 19.7285 9.57703L23.6318 10.838C24.3415 11.0673 24.3415 12.0677 23.6318 12.297L19.7285 13.5579C17.2759 14.3499 15.3556 16.2674 14.5728 18.706L13.31 22.6035C13.0804 23.3121 12.0785 23.3121 11.8489 22.6035L10.5861 18.706C9.79288 16.257 7.87255 14.3395 5.43039 13.5579L1.52711 12.297C0.817423 12.0677 0.817423 11.0673 1.52711 10.838Z" fill="url(#paint0_linear)"/>
<defs>
<linearGradient id="paint0_linear" x1="20.9733" y1="6.28729" x2="4.20518" y2="16.8741" gradientUnits="userSpaceOnUse">
<stop offset="0.0739" stop-color="#F16680"/>
<stop offset="0.991" stop-color="#FFBBD2"/>
</linearGradient>
</defs>
</svg>
