<svg width="730" height="574" viewBox="0 0 730 574" fill="none" xmlns="http://www.w3.org/2000/svg">
<path fill-rule="evenodd" clip-rule="evenodd" d="M507.548 51.8224C525.791 -19.8102 648.252 27.1904 648.252 72.1903C648.252 130.191 632.252 120.658 632.252 170.19C632.252 209.658 661.17 231.43 640.252 282.19C621.707 327.19 612.013 328.621 573.133 351.248C534.254 373.875 436.475 452.691 389.625 473.318C327.4 500.714 291.679 513.918 223.755 492.11C170.711 475.079 173.001 432.127 147.462 390.498C122.314 349.507 73.1523 326.521 71.8392 271.462C70.5261 216.404 86.8944 188.028 137.924 151.152C247.603 71.8928 482.252 151.152 507.548 51.8224Z" fill="url(#paint0_linear)"/>
<path opacity="0.2" fill-rule="evenodd" clip-rule="evenodd" d="M518.455 30.2402C579.587 -3.24106 498.894 140.917 564.649 161.114C631.41 181.619 615.37 112.559 645.704 164.86C675.142 215.616 716.174 272.94 687.991 327.761C660.007 382.197 651.643 331.768 592.092 366.426C548.439 391.831 438.656 480.324 386.054 503.482C316.19 534.242 276.084 549.067 199.82 524.581C140.265 505.46 142.836 457.235 114.161 410.495C85.9258 364.471 30.7288 338.663 29.2545 276.845C27.7802 215.027 46.158 183.167 103.452 141.764C226.597 52.7746 517.503 138.292 518.455 30.2402Z" fill="url(#paint1_linear)"/>
<path d="M480.252 135.19C477.491 135.19 475.252 132.952 475.252 130.19C475.252 127.429 477.491 125.19 480.252 125.19C483.013 125.19 485.252 127.429 485.252 130.19C485.252 132.952 483.013 135.19 480.252 135.19Z" fill="url(#paint2_linear)"/>
<path d="M407.252 355.19C404.491 355.19 402.252 352.952 402.252 350.19C402.252 347.429 404.491 345.19 407.252 345.19C410.013 345.19 412.252 347.429 412.252 350.19C412.252 352.952 410.013 355.19 407.252 355.19Z" fill="url(#paint3_linear)"/>
<path d="M395.252 306.19C392.491 306.19 390.252 303.952 390.252 301.19C390.252 298.429 392.491 296.19 395.252 296.19C398.013 296.19 400.252 298.429 400.252 301.19C400.252 303.952 398.013 306.19 395.252 306.19Z" fill="url(#paint4_linear)"/>
<path d="M434.62 84.6859L437.315 83.8139C439.009 83.2661 440.335 81.94 440.875 80.2535L441.747 77.558C441.906 77.0679 442.598 77.0679 442.756 77.558L443.629 80.2535C444.176 81.9472 445.502 83.2733 447.189 83.8139L449.884 84.6859C450.374 84.8445 450.374 85.5364 449.884 85.6949L447.189 86.567C445.495 87.1148 444.169 88.4409 443.629 90.1274L442.756 92.8229C442.598 93.313 441.906 93.313 441.747 92.8229L440.875 90.1274C440.328 88.4337 439.002 87.1075 437.315 86.567L434.62 85.6949C434.129 85.5364 434.129 84.8373 434.62 84.6859Z" fill="url(#paint5_linear)"/>
<path d="M422.41 217.349L416.687 214.548L421.975 210.992L422.41 217.349Z" fill="#B27DFF"/>
<path d="M412.41 479.349L406.687 476.548L411.975 472.992L412.41 479.349Z" fill="#B27DFF"/>
<path d="M388.41 428.348L382.687 425.547L387.974 421.991L388.41 428.348Z" fill="#B27DFF"/>
<path d="M444.42 302.652L440.306 307.517L438.15 301.522L444.42 302.652Z" fill="#B27DFF"/>
<path d="M290.42 164.652L286.306 169.517L284.15 163.522L290.42 164.652Z" fill="url(#paint6_linear)"/>
<path d="M352.42 155.652L348.306 160.517L346.15 154.522L352.42 155.652Z" fill="#B27DFF"/>
<defs>
<linearGradient id="paint0_linear" x1="78.5089" y1="235.765" x2="500.457" y2="283.423" gradientUnits="userSpaceOnUse">
<stop stop-color="#FFE3E6"/>
<stop offset="1" stop-color="#EDCDFC"/>
</linearGradient>
<linearGradient id="paint1_linear" x1="36.7431" y1="236.765" x2="510.493" y2="290.274" gradientUnits="userSpaceOnUse">
<stop stop-color="#FFE3E6"/>
<stop offset="1" stop-color="#EDCDFC"/>
</linearGradient>
<linearGradient id="paint2_linear" x1="485.252" y1="130.192" x2="475.252" y2="130.192" gradientUnits="userSpaceOnUse">
<stop offset="0.00280449" stop-color="#DFA5FF"/>
<stop offset="1" stop-color="#B27DFF"/>
</linearGradient>
<linearGradient id="paint3_linear" x1="412.252" y1="350.192" x2="402.252" y2="350.192" gradientUnits="userSpaceOnUse">
<stop offset="0.00280449" stop-color="#DFA5FF"/>
<stop offset="1" stop-color="#B27DFF"/>
</linearGradient>
<linearGradient id="paint4_linear" x1="400.252" y1="301.192" x2="390.252" y2="301.192" gradientUnits="userSpaceOnUse">
<stop offset="0.00280449" stop-color="#DFA5FF"/>
<stop offset="1" stop-color="#B27DFF"/>
</linearGradient>
<linearGradient id="paint5_linear" x1="448.047" y1="81.5341" x2="436.458" y2="88.8404" gradientUnits="userSpaceOnUse">
<stop offset="0.0127" stop-color="#FFD54C"/>
<stop offset="0.3774" stop-color="#FFCD4C"/>
<stop offset="0.957" stop-color="#FFB64C"/>
<stop offset="1" stop-color="#FFB44C"/>
</linearGradient>
<linearGradient id="paint6_linear" x1="287.639" y1="162.82" x2="286.281" y2="168.972" gradientUnits="userSpaceOnUse">
<stop offset="0.0127" stop-color="#FFD54C"/>
<stop offset="0.3774" stop-color="#FFCD4C"/>
<stop offset="0.957" stop-color="#FFB64C"/>
<stop offset="1" stop-color="#FFB44C"/>
</linearGradient>
</defs>
</svg>
