<svg width="678" height="648" viewBox="0 0 678 648" fill="none" xmlns="http://www.w3.org/2000/svg">
<path d="M418.452 507.664C446.177 498.258 481.518 526.842 519.391 500.755C641.024 416.974 751.189 162.341 457.42 64.7244C375.97 37.6589 320.983 96.1554 239.038 80.7132C204.889 74.2814 169.024 60.2043 136.296 68.2809C87.6088 80.2906 82.6874 125.93 104.201 157.253C138.669 207.441 213.194 247.142 229.636 301.309C246.175 355.777 176.809 390.817 118.356 414.185C91.2171 425.031 62.9621 435.264 41.2281 450.184C19.4964 465.091 4.66949 485.683 9.58744 508.079C19.4515 553.079 94.6572 567.551 149.848 565.384C214.695 562.832 281.354 559.974 335.93 541.373C364.892 531.52 389.472 517.501 418.452 507.664Z" fill="#F6E3FF"/>
<path d="M444.532 84.838L448.435 83.577C450.888 82.785 452.808 80.8675 453.591 78.429L454.854 74.5315C455.083 73.8228 456.085 73.8228 456.315 74.5315L457.578 78.429C458.371 80.878 460.291 82.7954 462.734 83.577L466.637 84.838C467.346 85.0673 467.346 86.0677 466.637 86.297L462.734 87.5579C460.281 88.3499 458.361 90.2674 457.578 92.706L456.315 96.6035C456.085 97.3121 455.083 97.3121 454.854 96.6035L453.591 92.706C452.798 90.257 450.878 88.3395 448.435 87.5579L444.532 86.297C443.822 86.0677 443.822 85.0673 444.532 84.838Z" fill="url(#paint0_linear)"/>
<path d="M325.725 148.424C330.536 148.424 334.45 144.516 334.45 139.712C334.45 134.908 330.536 131 325.725 131C320.914 131 317 134.908 317 139.712C317 144.516 320.914 148.424 325.725 148.424ZM325.725 133.23C329.305 133.23 332.206 136.138 332.206 139.702C332.206 143.276 329.294 146.173 325.725 146.173C322.145 146.173 319.244 143.266 319.244 139.702C319.233 136.138 322.145 133.23 325.725 133.23Z" fill="url(#paint1_linear)"/>
<path d="M263.067 74.1111C258.612 74.1111 255 70.5045 255 66.0556C255 61.6066 258.612 58 263.067 58C267.523 58 271.135 61.6066 271.135 66.0556C271.135 70.5045 267.523 74.1111 263.067 74.1111Z" fill="url(#paint2_linear)"/>
<path d="M387 124C384.239 124 382 121.761 382 119C382 116.239 384.239 114 387 114C389.762 114 392 116.239 392 119C392 121.761 389.762 124 387 124Z" fill="url(#paint3_linear)"/>
<path d="M434.532 178.838L438.435 177.577C440.888 176.785 442.808 174.868 443.591 172.429L444.854 168.531C445.083 167.823 446.085 167.823 446.315 168.531L447.578 172.429C448.371 174.878 450.291 176.795 452.734 177.577L456.637 178.838C457.346 179.067 457.346 180.068 456.637 180.297L452.734 181.558C450.281 182.35 448.361 184.267 447.578 186.706L446.315 190.603C446.085 191.312 445.083 191.312 444.854 190.603L443.591 186.706C442.798 184.257 440.878 182.34 438.435 181.558L434.532 180.297C433.822 180.068 433.822 179.057 434.532 178.838Z" fill="url(#paint4_linear)"/>
<path d="M452.725 291.424C457.536 291.424 461.45 287.516 461.45 282.712C461.45 277.908 457.536 274 452.725 274C447.914 274 444 277.908 444 282.712C444 287.516 447.914 291.424 452.725 291.424ZM452.725 276.23C456.305 276.23 459.206 279.138 459.206 282.702C459.206 286.276 456.294 289.173 452.725 289.173C449.145 289.173 446.244 286.266 446.244 282.702C446.233 279.138 449.145 276.23 452.725 276.23Z" fill="url(#paint5_linear)"/>
<path d="M384.067 272.111C379.612 272.111 376 268.505 376 264.056C376 259.607 379.612 256 384.067 256C388.523 256 392.135 259.607 392.135 264.056C392.135 268.505 388.523 272.111 384.067 272.111Z" fill="url(#paint6_linear)"/>
<path d="M504 322C501.239 322 499 319.761 499 317C499 314.239 501.239 312 504 312C506.762 312 509 314.239 509 317C509 319.761 506.762 322 504 322Z" fill="url(#paint7_linear)"/>
<defs>
<linearGradient id="paint0_linear" x1="463.978" y1="80.2873" x2="447.21" y2="90.8741" gradientUnits="userSpaceOnUse">
<stop offset="0.0739" stop-color="#F16680"/>
<stop offset="0.991" stop-color="#FFBBD2"/>
</linearGradient>
<linearGradient id="paint1_linear" x1="333.098" y1="135.064" x2="318.354" y2="144.373" gradientUnits="userSpaceOnUse">
<stop stop-color="#8F3692"/>
<stop offset="1" stop-color="#542891"/>
</linearGradient>
<linearGradient id="paint2_linear" x1="271.135" y1="66.0588" x2="254.999" y2="66.0588" gradientUnits="userSpaceOnUse">
<stop offset="0.00280449" stop-color="#DFA5FF"/>
<stop offset="1" stop-color="#B27DFF"/>
</linearGradient>
<linearGradient id="paint3_linear" x1="392" y1="119.002" x2="382" y2="119.002" gradientUnits="userSpaceOnUse">
<stop offset="0.00280449" stop-color="#DFA5FF"/>
<stop offset="1" stop-color="#B27DFF"/>
</linearGradient>
<linearGradient id="paint4_linear" x1="453.977" y1="174.281" x2="437.209" y2="184.867" gradientUnits="userSpaceOnUse">
<stop offset="0.0127" stop-color="#FFD54C"/>
<stop offset="0.3774" stop-color="#FFCD4C"/>
<stop offset="0.957" stop-color="#FFB64C"/>
<stop offset="1" stop-color="#FFB44C"/>
</linearGradient>
<linearGradient id="paint5_linear" x1="460.098" y1="278.064" x2="445.354" y2="287.373" gradientUnits="userSpaceOnUse">
<stop stop-color="#8F3692"/>
<stop offset="1" stop-color="#542891"/>
</linearGradient>
<linearGradient id="paint6_linear" x1="392.135" y1="264.059" x2="375.999" y2="264.059" gradientUnits="userSpaceOnUse">
<stop offset="0.00280449" stop-color="#DFA5FF"/>
<stop offset="1" stop-color="#B27DFF"/>
</linearGradient>
<linearGradient id="paint7_linear" x1="509" y1="317.002" x2="499" y2="317.002" gradientUnits="userSpaceOnUse">
<stop offset="0.00280449" stop-color="#DFA5FF"/>
<stop offset="1" stop-color="#B27DFF"/>
</linearGradient>
</defs>
</svg>
